<svg width="194" height="194" viewBox="0 0 194 194" fill="none" xmlns="http://www.w3.org/2000/svg">
<path fill-rule="evenodd" clip-rule="evenodd" d="M114.249 39.8979C107.609 40.1383 102.421 45.7148 102.66 52.3531C102.9 58.9932 108.475 64.1816 115.118 63.9411C121.755 63.7016 126.943 58.1251 126.704 51.485C126.464 44.8466 120.889 39.6574 114.249 39.8979Z" fill="#00C2A9"/>
<path fill-rule="evenodd" clip-rule="evenodd" d="M176.52 13.0079C169.88 13.2484 164.692 18.8249 164.931 25.4632C165.171 32.1033 170.746 37.2917 177.388 37.0512C184.026 36.8117 189.214 31.2351 188.975 24.595C188.735 17.9567 183.16 12.7675 176.52 13.0079Z" fill="#00C2A9"/>
<path fill-rule="evenodd" clip-rule="evenodd" d="M172.376 49.8031C167.299 50.0006 163.332 54.592 163.515 60.0599C163.696 65.5278 167.962 69.8001 173.041 69.6036C178.115 69.4052 182.085 64.8128 181.901 59.3459C181.718 53.8771 177.454 49.6057 172.376 49.8031Z" fill="#00C2A9"/>
<path fill-rule="evenodd" clip-rule="evenodd" d="M159.691 76.692C155.394 76.8609 152.038 80.7984 152.192 85.4845C152.347 90.1717 155.956 93.8337 160.251 93.6638C164.549 93.4959 167.907 89.5574 167.749 84.8713C167.594 80.1861 163.985 76.5231 159.691 76.692Z" fill="#00C2A9"/>
<path fill-rule="evenodd" clip-rule="evenodd" d="M138.513 93.6737C134.997 93.8009 132.252 96.7528 132.377 100.268C132.505 103.784 135.457 106.529 138.972 106.403C142.487 106.275 145.234 103.323 145.106 99.8089C144.981 96.2935 142.029 93.5474 138.513 93.6737Z" fill="#00C2A9"/>
<path fill-rule="evenodd" clip-rule="evenodd" d="M118.017 103.58C114.892 103.678 112.452 105.974 112.564 108.709C112.677 111.442 115.302 113.578 118.425 113.48C121.55 113.381 123.992 111.085 123.879 108.35C123.767 105.617 121.142 103.481 118.017 103.58Z" fill="#00C2A9"/>
<path fill-rule="evenodd" clip-rule="evenodd" d="M101.084 112.07C98.7411 112.156 96.9106 114.124 96.995 116.467C97.0785 118.809 99.0481 120.641 101.391 120.556C103.734 120.472 105.565 118.503 105.481 116.161C105.396 113.817 103.427 111.987 101.084 112.07Z" fill="#00C2A9"/>
<path fill-rule="evenodd" clip-rule="evenodd" d="M89.0797 121.978C87.1266 122.061 85.5999 124.03 85.6719 126.375C85.7411 128.718 87.3823 130.551 89.3363 130.463C91.2876 130.38 92.8161 128.411 92.7432 126.065C92.6731 123.722 91.0319 121.89 89.0797 121.978Z" fill="#00C2A9"/>
<path fill-rule="evenodd" clip-rule="evenodd" d="M150.157 180C156.86 157.101 155.887 145.849 151.716 138.293C130.91 100.607 49.4225 174.709 5 178.172C58.5382 175.408 120.438 127.644 140.268 147.081C145.649 152.355 153.006 162.583 150.157 180Z" fill="#00C2A9"/>
<path fill-rule="evenodd" clip-rule="evenodd" d="M154.347 35.6441C163.119 105.258 82.9104 75.2181 76.0722 124.805C69.989 64.9351 155.454 84.9226 154.347 35.6441Z" fill="#1E4793"/>
</svg>
