<svg width="130" height="130" viewBox="0 0 130 130" fill="none" xmlns="http://www.w3.org/2000/svg">
<path d="M32.4833 20.2035C31.4628 20.1818 30.597 21.005 30.5773 22.0383C30.3373 34.6595 23.409 45.5917 18.3503 53.5742C17.5773 54.7935 16.8478 55.945 16.1931 57.0225C7.74832 70.9177 4.32933 82.5982 5.10758 94.8952C5.47532 100.714 7.31382 108.052 10.5728 116.706C12.9826 123.106 15.2533 127.757 15.3486 127.952C15.6736 128.615 16.3383 129 17.0296 129C17.3056 129 17.5863 128.938 17.8511 128.808C18.7788 128.354 19.1625 127.234 18.7083 126.306C18.6181 126.122 9.66557 107.708 8.84132 94.6592C8.11457 83.1739 11.3678 72.1652 19.39 58.9652C20.0265 57.918 20.747 56.781 21.51 55.577C26.8055 47.2215 34.0583 35.778 34.3183 22.1098C34.3375 21.0763 33.5163 20.223 32.4833 20.2035Z" fill="#00C2A9"/>
<path d="M33.7146 14.1107C33.0123 10.0712 31.7143 6.23545 29.6306 2.0392C29.1708 1.11396 28.0481 0.735957 27.1231 1.19571C26.1978 1.6552 25.8201 2.7777 26.2796 3.70295C28.1983 7.56669 29.3898 11.0777 30.0288 14.7514C30.1871 15.6607 30.9771 16.3017 31.8696 16.3017C31.9761 16.3017 32.0838 16.2924 32.1923 16.2737C33.2101 16.0969 33.8916 15.1282 33.7146 14.1107Z" fill="#00C2A9"/>
<path d="M113.544 57.0224C112.889 55.9449 112.16 54.7934 111.387 53.5741C106.224 45.4279 99.1531 34.2709 99.1531 21.3675C99.1531 13.393 101.453 7.73824 103.458 3.703C103.917 2.77775 103.539 1.655 102.614 1.19575C101.689 0.736001 100.566 1.11375 100.107 2.03925C97.9211 6.44074 95.4121 12.6152 95.4121 21.3677C95.4121 35.3572 102.819 47.0439 108.227 55.5774C108.99 56.7814 109.711 57.9184 110.347 58.9656C118.37 72.1659 121.623 83.1741 120.896 94.6598C120.072 107.708 111.12 126.122 111.029 126.306C110.575 127.234 110.959 128.355 111.886 128.809C112.151 128.939 112.432 129 112.708 129C113.399 129 114.064 128.615 114.389 127.952C114.771 127.172 123.758 108.691 124.63 94.8958C125.408 82.5983 121.989 70.9179 113.544 57.0224Z" fill="#00C2A9"/>
<path d="M80.6194 82.1888C78.6897 80.2585 76.1235 79.1958 73.3932 79.1958C70.6635 79.1958 68.097 80.2586 66.1667 82.1885L64.8532 83.5023L63.5697 82.2188C61.6397 80.2888 59.0732 79.2258 56.3432 79.2258C53.6132 79.2258 51.0468 80.2888 49.117 82.2185C47.1873 84.148 46.1245 86.7145 46.1245 89.445C46.1245 92.1708 47.187 94.736 49.1168 96.6688L62.737 110.289C62.82 110.372 62.9075 110.448 62.9975 110.519V127.129C62.9975 128.162 63.8347 128.999 64.868 128.999C65.9012 128.999 66.7385 128.162 66.7385 127.129V110.499C66.8187 110.434 66.8967 110.364 66.9715 110.289L73.9072 103.352C74.6377 102.622 74.6377 101.437 73.907 100.707C73.176 99.9763 71.992 99.9768 71.2617 100.707L64.8545 107.116L51.7635 94.0245C50.5403 92.7993 49.8663 91.1728 49.8663 89.4453C49.8663 87.714 50.5398 86.0875 51.7627 84.8643C52.986 83.641 54.6127 82.9673 56.3435 82.9673C58.074 82.9673 59.701 83.641 60.9242 84.8643L62.735 86.6748C63.3007 87.2405 64.053 87.5523 64.8535 87.5523C65.6537 87.5523 66.4062 87.2405 66.9717 86.675L68.8122 84.8343C70.0355 83.611 71.6625 82.9375 73.3932 82.9375C75.124 82.9375 76.7507 83.6113 77.9742 84.8343C79.1972 86.0575 79.871 87.684 79.871 89.414C79.871 91.144 79.1972 92.7703 77.974 93.9938L76.657 95.311C75.9265 96.0415 75.9265 97.226 76.6572 97.9563C77.388 98.6865 78.5724 98.6868 79.3024 97.956L80.6194 96.6388C82.5492 94.7088 83.6122 92.1428 83.6122 89.4138C83.6122 86.6843 82.5492 84.1185 80.6194 82.1888Z" fill="#00C2A9"/>
<path d="M66.7018 55.0202C66.6793 54.9005 66.642 54.7832 66.597 54.6685C66.5498 54.5562 66.4923 54.449 66.4253 54.3467C66.3555 54.2445 66.2778 54.1497 66.1908 54.0625C66.106 53.9752 66.0088 53.898 65.9065 53.8305C65.8068 53.7632 65.6968 53.7057 65.5848 53.6585C65.4725 53.611 65.3525 53.5762 65.233 53.5512C64.9935 53.5012 64.7443 53.5037 64.5023 53.5512C64.3848 53.5762 64.2653 53.611 64.153 53.6585C64.0408 53.706 63.931 53.7632 63.8313 53.8305C63.729 53.8977 63.6318 53.9752 63.547 54.0625C63.4595 54.1497 63.3825 54.2445 63.3125 54.3467C63.2453 54.449 63.1878 54.5562 63.1405 54.6685C63.0955 54.7832 63.0585 54.9005 63.0358 55.0202C63.0108 55.14 62.9985 55.2622 62.9985 55.3845C62.9985 55.5067 63.011 55.629 63.0358 55.7512C63.0585 55.871 63.0955 55.9882 63.1405 56.1005C63.188 56.2127 63.2455 56.3225 63.3125 56.4247C63.3823 56.527 63.4598 56.6217 63.547 56.709C63.6318 56.7937 63.7288 56.8735 63.8313 56.941C63.931 57.0082 64.0408 57.0657 64.153 57.113C64.2653 57.1605 64.385 57.1952 64.5023 57.2202C64.6243 57.2452 64.7468 57.2552 64.8688 57.2552C65.36 57.2552 65.8413 57.0557 66.1908 56.709C66.278 56.6217 66.3553 56.527 66.4253 56.4247C66.4925 56.3225 66.55 56.2127 66.597 56.1005C66.642 55.9882 66.6793 55.871 66.7018 55.7512C66.727 55.629 66.7393 55.5067 66.7393 55.3845C66.7393 55.2622 66.7268 55.14 66.7018 55.0202Z" fill="#00C2A9"/>
</svg>
