<svg width="138" height="138" viewBox="0 0 138 138" fill="none" xmlns="http://www.w3.org/2000/svg">
<path d="M115.023 10.1485C115.023 7.10783 113.791 4.25565 111.642 2.32155C109.723 0.593811 107.297 -0.21373 104.811 0.0494843C97.5709 0.813858 90.2188 1.21078 82.9456 1.23921C81.3127 0.263214 79.4765 -0.148453 77.5866 0.0484315C74.5986 0.365341 71.558 0.621185 68.5468 0.810699C65.4988 0.620132 62.456 0.3685 59.4343 0.0494843C57.5486 -0.150559 55.6935 0.269531 54.069 1.24026C46.8085 1.21079 39.4585 0.811752 32.2074 0.0484315C31.8916 0.0157929 31.5947 0 31.2999 0C26.1725 0 22 4.5536 22 10.1495C22 13.346 23.3792 16.3256 25.666 18.2249C25.6608 18.3344 25.6555 18.4439 25.6555 18.5534V47.3954C25.6555 55.1381 28.1708 62.6355 32.737 68.5083C36.9221 73.8895 42.5644 77.5913 48.7689 79.0643V112.074C48.7689 113.19 49.6733 114.096 50.7904 114.096C51.9074 114.096 52.8118 113.19 52.8118 112.074V77.4134C52.8118 76.4268 52.1001 75.5846 51.1283 75.4193C45.265 74.4254 39.867 71.0889 35.9293 66.0257C31.9116 60.8593 29.6985 54.2432 29.6985 47.3954V20.1454C29.8933 20.1822 30.0901 20.2138 30.2881 20.237C32.1369 20.457 33.9604 20.6497 35.7071 20.8087C41.3715 21.3361 47.138 21.6299 52.8771 21.6867V36.0698H37.916V26.5615C37.916 25.4454 37.0116 24.54 35.8945 24.54C34.7775 24.54 33.8731 25.4454 33.8731 26.5615V38.0913C33.8731 39.2073 34.7775 40.1128 35.8945 40.1128H52.8771V45.3739H35.8945C34.7775 45.3739 33.8731 46.2783 33.8731 47.3954C33.8731 60.1981 43.3056 70.613 54.8986 70.613C56.9496 70.613 58.9595 70.2845 60.8936 69.6465C62.0907 71.0478 63.3931 72.3186 64.786 73.4567C62.835 74.398 60.7904 75.0602 58.672 75.4193C57.7003 75.5846 56.9885 76.4268 56.9885 77.4134V118.643C56.3505 118.518 55.6904 118.451 55.0155 118.451C49.3974 118.451 44.8259 123.021 44.8259 128.64V134.567C44.8259 136.46 46.3663 138 48.2593 138H61.7717C63.6647 138 65.205 136.46 65.205 134.567V128.64C65.205 125.27 63.5605 122.279 61.0315 120.423V79.0643C63.6447 78.4473 66.1505 77.4376 68.5141 76.0531C70.8768 77.4365 73.3815 78.4473 75.9936 79.0643V120.597C73.5963 122.464 72.0496 125.373 72.0496 128.639V134.567C72.0496 136.46 73.59 137.999 75.483 137.999H88.9964C90.8895 137.999 92.4298 136.46 92.4298 134.567V128.639C92.4298 125.269 90.7831 122.277 88.2542 120.42V79.0632C96.7718 77.0396 104.128 70.8278 108.151 62.1606C108.622 61.1478 108.182 59.9465 107.169 59.4759C106.156 59.0052 104.955 59.4453 104.484 60.4582C100.758 68.4852 93.808 74.0779 85.8936 75.4203C84.9219 75.5846 84.2101 76.4268 84.2101 77.4134V118.643C83.5732 118.518 82.9141 118.451 82.2392 118.451C81.4832 118.451 80.7462 118.536 80.0356 118.693V77.4134C80.0356 76.4268 79.3249 75.5846 78.3531 75.4193C75.263 74.8949 72.3213 73.74 69.6091 71.9827C67.177 70.414 65.0008 68.4051 63.1404 66.0109C59.129 60.8477 56.9201 54.2358 56.9201 47.3954V21.6888C58.3183 21.6752 59.7133 21.6478 61.0978 21.6067V38.0913C61.0978 39.2073 62.0022 40.1128 63.1193 40.1128H101.128C102.245 40.1128 103.15 39.2073 103.15 38.0913V20.6297C104.347 20.5086 105.543 20.3791 106.736 20.238C106.935 20.2138 107.132 20.1812 107.327 20.1443V47.3954C107.327 49.4116 107.136 51.4257 106.761 53.3809C106.551 54.4769 107.269 55.5361 108.365 55.7466C108.494 55.7719 108.622 55.7835 108.748 55.7835C109.699 55.7835 110.545 55.1107 110.732 54.1431C111.155 51.9364 111.37 49.6664 111.37 47.3954V18.2302C111.37 18.226 111.37 18.2228 111.37 18.2186C113.604 16.3572 115.023 13.4229 115.023 10.1485ZM61.1631 133.957H48.8689V128.639C48.8689 125.25 51.6263 122.492 55.0165 122.492C58.4057 122.492 61.1631 125.25 61.1631 128.639V133.957ZM88.3868 128.639V133.957H76.0937V128.639C76.0937 125.25 78.8511 122.492 82.2402 122.492C85.6304 122.492 88.3868 125.25 88.3868 128.639ZM80.1029 36.0698H75.9284V21.6057C77.3213 21.6467 78.7121 21.6699 80.1029 21.6836V36.0698ZM71.8854 36.0698H65.1408V21.4425C66.28 21.3867 67.4202 21.3235 68.552 21.2477C69.6628 21.3203 70.7736 21.3846 71.8854 21.4393V36.0698ZM30.7608 16.2214C30.1007 16.1445 29.469 15.9255 28.8794 15.5675C27.1295 14.5084 26.043 12.4332 26.043 10.1495C26.043 6.7825 28.4014 4.04297 31.3009 4.04297C31.4557 4.04297 31.6157 4.05139 31.7874 4.06929C37.9529 4.7189 44.19 5.10635 50.3871 5.23586C49.6343 6.71933 49.2258 8.40285 49.2258 10.1485C49.2258 13.0996 50.3787 15.7749 52.2422 17.6375C46.8379 17.5659 41.4136 17.2805 36.0788 16.7825C34.3647 16.6267 32.577 16.4372 30.7608 16.2214ZM58.3109 66.1762C57.1959 66.4352 56.0557 66.57 54.8986 66.57C46.1388 66.57 38.9089 59.0431 38.0108 49.4169H52.9424C53.2846 55.4497 55.1439 61.2605 58.3109 66.1762ZM99.107 36.0698H84.1459V21.6836C89.1238 21.6341 94.127 21.4046 99.107 20.9971V36.0698ZM106.258 16.2224C98.2742 17.1731 90.1546 17.6553 82.1234 17.6553C82.1055 17.6553 82.0855 17.6553 82.0665 17.6553C74.0553 17.6532 65.9547 17.171 57.9898 16.2224C57.3349 16.1445 56.72 15.9287 56.1631 15.6054C56.1304 15.5833 56.0968 15.5644 56.062 15.5444C54.3869 14.5168 53.2677 12.4806 53.2677 10.1485C53.2677 8.25229 54.0132 6.49402 55.3113 5.32535C56.2399 4.48938 57.3676 4.04402 58.5299 4.04402C58.6899 4.04402 58.85 4.05244 59.01 4.06929C62.117 4.39778 65.244 4.65573 68.3773 4.85262C68.4078 4.85472 68.4394 4.85683 68.471 4.85788C73.0246 5.1411 77.5908 5.28745 82.1276 5.28639H82.2992H82.3382C82.3455 5.28639 82.3518 5.2885 82.3592 5.2885C82.3708 5.2885 82.3824 5.28639 82.394 5.28639C89.9882 5.27692 97.672 4.86841 105.236 4.07034C106.565 3.92821 107.88 4.37567 108.938 5.32745C110.236 6.49507 110.98 8.25229 110.98 10.1485C110.98 12.4627 109.878 14.4841 108.223 15.5202C108.182 15.5444 108.141 15.5696 108.103 15.596C107.54 15.9255 106.92 16.1445 106.258 16.2224Z" fill="#00C2A9"/>
<path d="M101.128 45.374H63.1191C62.0031 45.374 61.0977 46.2784 61.0977 47.3955C61.0977 53.4357 63.1918 59.1559 66.9894 63.5C69.1425 65.97 71.8094 67.9125 74.6953 69.1149C77.0621 70.1088 79.5616 70.6131 82.1243 70.6131C93.7173 70.6131 103.15 60.1972 103.15 47.3955C103.15 46.2784 102.244 45.374 101.128 45.374ZM74.8343 64.6992C73.5329 63.9959 72.3074 63.102 71.1988 62.0481C73.872 58.4337 75.4818 54.058 75.845 49.417H80.0312C79.6774 54.9719 77.8718 60.2867 74.8343 64.6992ZM65.2364 49.417H71.7884C71.4704 52.8461 70.3428 56.0837 68.5129 58.8411C66.6831 56.0858 65.5555 52.8483 65.2364 49.417ZM82.1243 66.5701C80.9672 66.5701 79.828 66.4354 78.713 66.1764C81.8789 61.2616 83.7393 55.452 84.0815 49.417H99.0121C98.114 59.0433 90.884 66.5701 82.1243 66.5701Z" fill="#00C2A9"/>
</svg>
