<svg width="130" height="130" viewBox="0 0 130 130" fill="none" xmlns="http://www.w3.org/2000/svg">
<path d="M33.8302 71.8263C34.0443 71.9525 34.271 72.032 34.5018 72.068C35.2516 72.1858 36.03 71.8453 36.4371 71.1512C36.9725 70.2457 36.6701 69.0775 35.7619 68.5443C34.856 68.0113 33.6906 68.314 33.1551 69.2192C32.6224 70.1254 32.9245 71.2936 33.8302 71.8263Z" fill="#00C2A9"/>
<path d="M41.5567 96.3874C41.6308 96.1499 41.6562 95.9113 41.6387 95.6782C41.5821 94.9216 41.073 94.2413 40.3039 94.0034C39.3002 93.6888 38.2321 94.2502 37.9203 95.2562C37.6082 96.2599 38.1693 97.3255 39.173 97.6401C40.1767 97.9517 41.2449 97.3908 41.5567 96.3874Z" fill="#00C2A9"/>
<path d="M39.2232 101.937C39.2973 101.699 39.3227 101.46 39.3052 101.228C39.2486 100.471 38.7395 99.7907 37.9704 99.5527C36.9667 99.2382 35.8986 99.7995 35.5868 100.806C35.2747 101.809 35.8358 102.875 36.8395 103.189C37.8432 103.501 38.9114 102.94 39.2232 101.937Z" fill="#00C2A9"/>
<path d="M35.5631 50.9501C35.7863 50.8406 35.977 50.6949 36.1342 50.522C36.6445 49.9603 36.788 49.123 36.4317 48.4011C35.9696 47.4561 34.8276 47.0671 33.8828 47.5327C32.9398 47.9969 32.5521 49.1369 33.0142 50.0817C33.4783 51.0247 34.6204 51.4142 35.5631 50.9501Z" fill="#00C2A9"/>
<path d="M29.7028 53.9066C29.926 53.7972 30.1169 53.6514 30.2738 53.4785C30.7842 52.9169 30.9276 52.0795 30.5714 51.3576C30.1093 50.4126 28.9672 50.0236 28.0224 50.4893C27.0794 50.9534 26.6917 52.0935 27.1538 53.0382C27.6177 53.981 28.7598 54.3705 29.7028 53.9066Z" fill="#00C2A9"/>
<path d="M30.0695 69.9904C30.2927 69.8809 30.4836 69.7352 30.6405 69.562C31.1509 69.0004 31.2943 68.163 30.9381 67.4411C30.476 66.4961 29.3339 66.1071 28.3891 66.5728C27.4461 67.0369 27.0584 68.177 27.5205 69.1217C27.9847 70.0647 29.1267 70.4542 30.0695 69.9904Z" fill="#00C2A9"/>
<path d="M50.2711 0C46.1871 0 43.0453 2.20252 41.3498 5.95573C40.1681 5.20946 38.8129 4.81258 37.3747 4.81258C34.0153 4.81258 31.3083 6.95161 30.0046 10.2874C29.0011 9.73383 27.877 9.44106 26.6915 9.44106C23.0822 9.44106 20.2909 12.1116 19.4219 16.0803C17.9355 15.3478 16.3216 15.1353 14.8034 15.537C12.8461 16.0547 11.302 17.3946 10.4555 19.3102C9.93873 20.4795 9.70791 21.8032 9.76479 23.2199C9.07666 23.2082 8.42104 23.2869 7.89517 23.4083C6.0649 23.8303 4.59342 25.026 3.75244 26.7753C2.94166 28.4618 2.78245 30.5224 3.29258 32.7343C3.92688 35.4863 5.44965 37.8087 7.41068 39.0524C6.47752 42.0748 6.17866 45.2872 6.5471 48.5861C6.61489 49.1943 16.4178 115.205 21.0798 121.757C21.08 121.757 21.0803 121.758 21.0806 121.758C23.3077 125.416 26.3045 127.89 29.9876 129.111C31.7948 129.71 33.655 130 35.5112 130C41.4745 130 47.3886 127.012 51.3076 121.711C51.9328 120.865 51.754 119.672 50.9085 119.047C50.0622 118.422 48.8705 118.601 48.2448 119.447C44.0876 125.069 37.231 127.5 31.1864 125.496C29.0738 124.796 27.2935 123.581 25.7921 121.811C31.0488 119.627 34.6372 114.436 34.6372 108.565C34.6372 100.656 28.2025 94.2212 20.2934 94.2212C19.4636 94.2212 18.6394 94.2948 17.8263 94.437C16.8812 89.0734 15.8279 82.9359 14.796 76.7757C21.2248 75.3327 26.0056 69.5425 26.0056 62.7814C26.0056 54.8722 19.571 48.4376 11.6618 48.4376C11.2317 48.4376 10.8013 48.4635 10.3717 48.5023C10.3577 48.3835 10.3442 48.269 10.3326 48.1636C9.6358 41.9214 11.8289 36.1432 16.2075 31.8194C16.2946 31.7491 22.1777 27.229 25.9571 25.9376C38.883 21.5211 50.5322 21.4876 52.4762 25.8619C52.8644 26.7349 53.1988 27.6615 53.481 28.6302C46.0063 29.1136 40.0719 35.3451 40.0719 42.9402C40.0719 49.6899 44.7991 55.4359 51.1868 56.9109C50.6807 58.7181 48.3906 66.5445 48.3611 66.6562C45.1853 67.0777 42.2551 68.5421 39.9906 70.8685C37.3709 73.5601 35.9279 77.1112 35.9279 80.8682C35.9279 88.5922 42.0654 94.9062 49.7191 95.198C50.7592 102.16 51.4674 108.34 50.6236 113.347C50.4489 114.385 51.1477 115.367 52.1849 115.542C52.2921 115.56 52.3985 115.568 52.5036 115.568C53.4165 115.568 54.2227 114.91 54.3793 113.98C55.3833 108.021 54.4547 100.939 53.2339 92.9698C53.2339 92.9698 49.5556 76.5104 51.7688 68.8145C51.7688 68.8143 54.7346 58.4436 55.429 55.8407C55.429 55.8404 59.9392 41.0109 57.7804 30.2377C57.7804 30.2372 57.7804 30.237 57.7801 30.2365C57.4828 28.6792 57.0706 27.1889 56.5524 25.7862C59.0913 22.8461 60.5946 18.2074 60.5946 13.2202C60.5946 5.1894 56.5422 0 50.2711 0ZM37.3747 8.6214C38.4666 8.6214 39.4358 9.07998 40.1963 9.94027C40.034 10.9709 39.9474 12.0648 39.9474 13.2202C39.9474 15.1698 40.1818 17.096 40.6262 18.8943C38.5158 19.0446 36.2983 19.3577 34.0389 19.8066C33.3467 18.451 32.9684 16.7746 32.9684 15.0162C32.9687 11.1913 34.7392 8.6214 37.3747 8.6214ZM15.7771 19.2191C16.8832 18.9271 18.2084 19.4938 19.2683 20.6997C19.4402 21.9591 19.779 23.1625 20.2683 24.2447C18.4037 25.2192 16.6824 26.3614 15.1332 27.6602C14.5736 26.8614 14.1267 25.8911 13.8491 24.8417C13.0935 21.9838 13.8682 19.7244 15.7771 19.2191ZM20.2926 98.03C26.1016 98.03 30.8276 102.756 30.8276 108.565C30.8276 113.128 27.8785 117.135 23.6477 118.553C21.8979 115.157 20.9254 111.047 20.2015 107.394C19.7838 105.287 19.197 102.127 18.4913 98.1851C19.0847 98.082 19.6868 98.03 20.2926 98.03ZM11.6611 52.2464C17.47 52.2464 22.196 56.9724 22.196 62.7814C22.196 67.6754 18.7854 71.8771 14.1675 73.0113C12.7131 64.2422 11.5504 56.9051 10.8808 52.2756C11.1408 52.2563 11.4013 52.2464 11.6611 52.2464ZM8.89867 35.4045C8.04244 34.608 7.33552 33.3186 7.00365 31.8788C6.69462 30.5379 6.75887 29.3117 7.18469 28.4258C7.51886 27.7305 8.06047 27.2788 8.75063 27.1196C9.27853 26.9982 10.0865 26.9792 10.5255 27.1579C10.5535 27.1694 10.5819 27.1775 10.6098 27.1874C11.0575 28.3569 11.6575 29.4234 12.3784 30.3375C11.8434 30.9398 9.46186 34.3035 8.89867 35.4045ZM23.7475 22.6866C23.2297 21.5541 22.9456 20.1982 22.9456 18.7757C22.9456 15.4704 24.4511 13.2499 26.6912 13.2499C27.6571 13.2499 28.5126 13.6755 29.1697 14.4778C29.1634 14.6556 29.1598 14.8349 29.1598 15.0159C29.1598 17.0188 29.54 18.9723 30.2476 20.6756C28.3986 21.1542 24.0705 22.565 23.7475 22.6866ZM43.8802 42.9404C43.8802 37.1777 48.5313 32.4806 54.2767 32.4065C55.2302 39.3477 53.7717 46.9636 52.1735 53.2329C47.4158 52.1999 43.8802 47.9445 43.8802 42.9404ZM39.7359 80.8684C39.7359 75.9335 43.0598 71.8217 47.639 70.6633C46.9689 76.9205 48.0333 84.2116 49.1295 91.3419C43.8555 90.7709 39.7359 86.2917 39.7359 80.8684ZM54.4997 22.175C52.3685 19.9943 48.8205 18.9692 44.5495 18.8141C44.03 17.0912 43.7563 15.1759 43.7563 13.2204C43.7563 7.32742 46.1916 3.80908 50.2709 3.80908C54.3501 3.80908 56.7855 7.32716 56.7855 13.2204C56.7857 16.6428 55.9338 19.9024 54.4997 22.175Z" fill="#00C2A9"/>
<path d="M96.9371 71.826C97.8428 71.2931 98.1449 70.1251 97.6122 69.2192C97.0767 68.314 95.9113 68.0113 95.0054 68.5443C94.0971 69.0775 93.7947 70.2457 94.3302 71.1511C94.7375 71.8453 95.5157 72.1858 96.2655 72.068C96.4963 72.0317 96.7228 71.9522 96.9371 71.826Z" fill="#00C2A9"/>
<path d="M102.172 69.9208C103.078 69.3878 103.38 68.2198 102.848 67.3139C102.312 66.4087 101.147 66.1061 100.241 66.639C99.3325 67.1722 99.0301 68.3404 99.5656 69.2459C99.9728 69.9401 100.751 70.2805 101.501 70.1627C101.732 70.1264 101.958 70.0469 102.172 69.9208Z" fill="#00C2A9"/>
<path d="M92.8463 95.2562C92.5345 94.2502 91.4664 93.6888 90.4627 94.0034C89.6936 94.2413 89.1845 94.9213 89.1279 95.6782C89.1104 95.911 89.1357 96.1499 89.2099 96.3874C89.5217 97.3908 90.5901 97.9519 91.5936 97.6401C92.5972 97.3253 93.1584 96.2599 92.8463 95.2562Z" fill="#00C2A9"/>
<path d="M95.2843 100.598C94.9725 99.592 93.9043 99.0306 92.9006 99.3452C92.1316 99.5831 91.6225 100.263 91.5659 101.02C91.5483 101.253 91.5737 101.492 91.6479 101.729C91.9597 102.733 93.0279 103.294 94.0315 102.982C95.0352 102.667 95.5964 101.602 95.2843 100.598Z" fill="#00C2A9"/>
<path d="M95.5632 51.3773C96.5062 51.8414 97.648 51.4517 98.1122 50.5089C98.5743 49.5641 98.1868 48.4241 97.2435 47.9599C96.299 47.4943 95.1567 47.8835 94.6946 48.8283C94.3384 49.5502 94.4816 50.3875 94.9922 50.9489C95.1493 51.1221 95.3403 51.2678 95.5632 51.3773Z" fill="#00C2A9"/>
<path d="M101.061 54.1776C102.004 54.6417 103.146 54.2522 103.61 53.3092C104.072 52.3644 103.684 51.2244 102.741 50.7602C101.797 50.2946 100.654 50.6838 100.192 51.6286C99.8359 52.3504 99.9791 53.1878 100.49 53.7492C100.647 53.9224 100.838 54.0681 101.061 54.1776Z" fill="#00C2A9"/>
<path d="M127.016 26.7753C126.175 25.026 124.703 23.8303 122.873 23.4083C122.347 23.2869 121.691 23.2079 121.003 23.2199C121.06 21.803 120.829 20.4795 120.313 19.3102C119.466 17.3949 117.922 16.0547 115.965 15.537C114.447 15.1355 112.833 15.348 111.346 16.0806C110.478 12.1116 107.686 9.44106 104.077 9.44106C102.891 9.44106 101.767 9.73409 100.764 10.2874C99.4599 6.95136 96.7528 4.81258 93.3935 4.81258C91.9552 4.81258 90.6001 5.20946 89.4183 5.95599C87.7226 2.20252 84.5809 0 80.4968 0C74.2257 0 70.1733 5.1894 70.1733 13.2202C70.1733 18.2075 71.6768 22.8461 74.2155 25.7862C73.697 27.1892 73.2816 28.6787 72.9878 30.2367C70.7535 42.0959 78.295 66.3619 78.9991 68.8128C78.9994 68.8133 78.9991 68.814 78.9994 68.8145C81.3865 77.6642 77.534 92.9698 77.534 92.9698C75.9798 103.118 74.2183 114.619 79.4608 121.711C83.3798 127.012 89.2931 130 95.257 130C97.1129 130 98.9739 129.711 100.781 129.112C104.463 127.891 107.804 125.605 109.688 121.759C116.537 107.78 124.154 49.1879 124.221 48.5866C124.589 45.2877 124.29 42.0751 123.357 39.0529C125.318 37.8089 126.841 35.4866 127.475 32.7351C127.985 30.5224 127.826 28.4618 127.016 26.7753ZM114.991 19.2191C116.9 19.7241 117.674 21.9838 116.919 24.8419C116.641 25.8911 116.194 26.8614 115.635 27.6602C114.085 26.3614 112.364 25.2192 110.5 24.2447C110.989 23.1625 111.328 21.9589 111.5 20.6997C112.56 19.4936 113.885 18.9273 114.991 19.2191ZM104.077 13.2499C106.317 13.2499 107.822 15.4707 107.822 18.7757C107.822 20.1979 107.538 21.5539 107.02 22.6864C106.697 22.5645 102.369 21.154 100.52 20.6756C101.228 18.9725 101.608 17.0191 101.608 15.0159C101.608 14.8351 101.604 14.6558 101.598 14.4781C102.255 13.6757 103.11 13.2499 104.077 13.2499ZM93.3932 8.6214C96.0286 8.6214 97.7993 11.1913 97.7993 15.0162C97.7993 16.7751 97.4209 18.4512 96.7287 19.8066C94.4693 19.3577 92.2518 19.0446 90.1415 18.8943C90.5858 17.0963 90.8205 15.17 90.8205 13.2202C90.8205 12.0651 90.7339 10.9709 90.5719 9.94027C91.3326 9.07998 92.3018 8.6214 93.3932 8.6214ZM80.4968 3.80882C84.5763 3.80882 87.0114 7.32691 87.0114 13.2202C87.0114 15.1761 86.7377 17.0915 86.2184 18.8138C81.9474 18.969 78.3991 19.994 76.268 22.1747C74.8341 19.9021 73.9819 16.6425 73.9819 13.2199C73.9822 7.32691 76.4173 3.80882 80.4968 3.80882ZM83.1289 70.6633C87.7079 71.8217 91.0317 75.9335 91.0317 80.8685C91.0317 86.2917 86.9121 90.7711 81.6382 91.342C82.7343 84.2116 83.7988 76.9205 83.1289 70.6633ZM99.5823 125.496C93.5354 127.501 86.6803 125.069 82.5238 119.447C78.7478 114.339 79.5217 105.485 81.0501 95.198C88.7035 94.9058 94.8406 88.5917 94.8406 80.8682C94.8406 77.1114 93.3978 73.5601 90.7781 70.8685C88.5136 68.5421 85.5833 67.0777 82.4075 66.6562C82.3781 66.545 82.3486 66.434 82.3179 66.3246C81.9497 65.0149 81.5399 63.6302 81.1064 62.1641C80.6034 60.4636 80.088 58.7189 79.5819 56.9109C85.9695 55.4362 90.6968 49.6902 90.6968 42.9402C90.6968 41.0022 90.3164 39.1214 89.5663 37.3503C89.1563 36.3816 88.0377 35.9292 87.07 36.3395C86.1016 36.7496 85.6488 37.8673 86.0589 38.8358C86.6089 40.1346 86.888 41.5157 86.888 42.9404C86.888 47.9445 83.3524 52.1997 78.5949 53.2329C76.9965 46.9638 75.5379 39.3479 76.4914 32.4065C78.5535 32.4329 80.5389 33.053 82.242 34.2038C83.1137 34.7928 84.2975 34.5633 84.8861 33.6918C85.4747 32.8204 85.2456 31.6366 84.3739 31.0478C82.2595 29.6189 79.8264 28.7924 77.2882 28.6289C77.5703 27.661 77.9047 26.7349 78.2925 25.8622C80.2365 21.4881 91.9199 21.4206 104.812 25.9378C109.726 27.6602 113.712 30.5011 114.56 31.8192C118.939 36.1427 121.133 41.9214 120.436 48.1636C120.424 48.2692 120.411 48.3838 120.397 48.5023C119.967 48.4635 119.537 48.4376 119.107 48.4376C111.198 48.4376 104.763 54.8722 104.763 62.7814C104.763 69.5423 109.544 75.3327 115.973 76.7757C114.939 82.9435 113.886 89.081 112.942 94.437C112.129 94.2948 111.305 94.2212 110.475 94.2212C102.566 94.2212 96.1315 100.656 96.1315 108.565C96.1315 114.436 99.7199 119.627 104.977 121.811C103.475 123.581 101.694 124.796 99.5823 125.496ZM116.6 73.0114C111.982 71.8771 108.572 67.6754 108.572 62.7814C108.572 56.9724 113.298 52.2464 119.107 52.2464C119.366 52.2464 119.627 52.2563 119.887 52.2756C119.218 56.9049 118.055 64.2406 116.6 73.0114ZM110.567 107.394C109.842 111.047 108.87 115.157 107.12 118.553C102.89 117.135 99.9403 113.128 99.9403 108.565C99.9403 102.756 104.666 98.03 110.475 98.03C111.081 98.03 111.683 98.0821 112.277 98.1851C111.573 102.117 110.986 105.277 110.567 107.394ZM123.764 31.8788C123.432 33.3183 122.725 34.6077 121.869 35.4045C121.306 34.3033 118.924 30.9398 118.389 30.3378C119.11 29.4234 119.71 28.357 120.158 27.1874C120.186 27.1775 120.214 27.1694 120.242 27.1579C120.681 26.9789 121.489 26.998 122.017 27.1196C122.707 27.2788 123.249 27.7303 123.583 28.4258C124.009 29.3117 124.073 30.5379 123.764 31.8788Z" fill="#00C2A9"/>
</svg>
