<svg width="138" height="138" viewBox="0 0 138 138" fill="none" xmlns="http://www.w3.org/2000/svg">
<path d="M118.57 17.2848H114.109V12.8246C114.109 10.5185 112.233 8.64252 109.927 8.64252H40.6489V6.34261C40.6489 2.84544 37.8034 0 34.306 0C30.8085 0 27.9634 2.84544 27.9634 6.34261V8.64252H19.182C16.8759 8.64252 15 10.5185 15 12.8246V125.176C15 127.482 16.8759 129.358 19.182 129.358H23.6423V133.818C23.6423 136.124 25.5182 138 27.8243 138H118.57C120.876 138 122.752 136.124 122.752 133.818V21.4671C122.752 19.161 120.876 17.2848 118.57 17.2848ZM32.0063 6.34261C32.0063 5.07446 33.0381 4.04297 34.3063 4.04297C35.5744 4.04297 36.6059 5.07446 36.6059 6.34261V8.64252H32.0063V6.34261ZM118.709 133.818C118.709 133.895 118.646 133.957 118.57 133.957H27.8243C27.7475 133.957 27.6852 133.895 27.6852 133.818V129.358H109.927C112.233 129.358 114.109 127.482 114.109 125.176V32.2691C114.109 31.1524 113.204 30.2476 112.088 30.2476C110.971 30.2476 110.066 31.1524 110.066 32.2691V125.176C110.066 125.253 110.004 125.315 109.927 125.315H19.182C19.1052 125.315 19.043 125.253 19.043 125.176V12.8246C19.043 12.7478 19.1052 12.6855 19.182 12.6855H27.9636V19.3065C27.9636 22.8037 30.8091 25.6489 34.3065 25.6489C37.804 25.6489 40.6491 22.8037 40.6491 19.3065C40.6491 18.1899 39.744 17.285 38.6276 17.285C37.5112 17.285 36.6062 18.1899 36.6062 19.3065C36.6062 20.5744 35.5744 21.6059 34.3063 21.6059C33.0381 21.6059 32.0066 20.5744 32.0066 19.3065V12.6852H109.927C110.004 12.6852 110.066 12.7475 110.066 12.8243V23.6274C110.066 24.7438 110.971 25.6489 112.088 25.6489C113.204 25.6489 114.109 24.7438 114.109 23.6274V21.3277H118.57C118.646 21.3277 118.709 21.39 118.709 21.4671V133.818Z" fill="#00C2A9"/>
<path d="M58.2122 60.3575C58.2122 62.6636 60.0881 64.5395 62.3942 64.5395H66.7153C69.0215 64.5395 70.8974 62.6636 70.8974 60.3575V51.5759H79.679C81.9851 51.5759 83.861 49.7 83.861 47.3938V43.0727C83.861 40.7666 81.9851 38.8904 79.679 38.8904H70.8974V30.1091C70.8974 27.803 69.0215 25.9268 66.7153 25.9268H62.3942C60.0881 25.9268 58.2122 27.803 58.2122 30.1091V38.8904H49.4306C47.1245 38.8904 45.2485 40.7666 45.2485 43.0727V47.3938C45.2485 49.7 47.1245 51.5759 49.4306 51.5759H58.2122V60.3575ZM49.4306 47.5327C49.3538 47.5327 49.2915 47.4704 49.2915 47.3936V43.0724C49.2915 42.9956 49.3538 42.9331 49.4306 42.9331H60.2337C61.3501 42.9331 62.2551 42.0283 62.2551 40.9116V30.1088C62.2551 30.032 62.3174 29.9695 62.3942 29.9695H66.7153C66.7922 29.9695 66.8544 30.0317 66.8544 30.1088V40.9116C66.8544 42.0283 67.7595 42.9331 68.8759 42.9331H79.679C79.7558 42.9331 79.8181 42.9954 79.8181 43.0724V47.3936C79.8181 47.4701 79.7558 47.5327 79.679 47.5327H68.8759C67.7595 47.5327 66.8544 48.4377 66.8544 49.5541V60.3572C66.8544 60.434 66.7922 60.4963 66.7153 60.4963H62.3942C62.3174 60.4963 62.2551 60.434 62.2551 60.3572V49.5541C62.2551 48.4377 61.3501 47.5327 60.2337 47.5327H49.4306Z" fill="#00C2A9"/>
<path d="M94.8031 77.7817H51.5913C50.4749 77.7817 49.5698 78.6868 49.5698 79.8032C49.5698 80.9196 50.4749 81.8247 51.5913 81.8247H94.8031C95.9195 81.8247 96.8246 80.9196 96.8246 79.8032C96.8246 78.6868 95.9195 77.7817 94.8031 77.7817Z" fill="#00C2A9"/>
<path d="M40.7886 77.7817H34.3066C33.1902 77.7817 32.2852 78.6868 32.2852 79.8032C32.2852 80.9196 33.1902 81.8247 34.3066 81.8247H40.7886C41.905 81.8247 42.8101 80.9196 42.8101 79.8032C42.8101 78.6868 41.905 77.7817 40.7886 77.7817Z" fill="#00C2A9"/>
<path d="M94.8031 90.7451H51.5913C50.4749 90.7451 49.5698 91.6499 49.5698 92.7666C49.5698 93.883 50.4749 94.7881 51.5913 94.7881H94.8031C95.9195 94.7881 96.8246 93.883 96.8246 92.7666C96.8246 91.6499 95.9195 90.7451 94.8031 90.7451Z" fill="#00C2A9"/>
<path d="M94.8031 103.708H51.5913C50.4749 103.708 49.5698 104.613 49.5698 105.73C49.5698 106.846 50.4749 107.751 51.5913 107.751H94.8031C95.9195 107.751 96.8246 106.846 96.8246 105.73C96.8246 104.614 95.9195 103.708 94.8031 103.708Z" fill="#00C2A9"/>
<path d="M40.7886 90.7451H34.3066C33.1902 90.7451 32.2852 91.6499 32.2852 92.7666C32.2852 93.883 33.1902 94.7881 34.3066 94.7881H40.7886C41.905 94.7881 42.8101 93.883 42.8101 92.7666C42.8101 91.6499 41.905 90.7451 40.7886 90.7451Z" fill="#00C2A9"/>
<path d="M40.7886 103.708H34.3066C33.1902 103.708 32.2852 104.613 32.2852 105.73C32.2852 106.846 33.1902 107.751 34.3066 107.751H40.7886C41.905 107.751 42.8101 106.846 42.8101 105.73C42.8101 104.614 41.905 103.708 40.7886 103.708Z" fill="#00C2A9"/>
</svg>
