<svg width="138" height="138" viewBox="0 0 138 138" fill="none" xmlns="http://www.w3.org/2000/svg">
<path d="M34.4829 99.0654C40.5746 99.0654 45.5305 104.021 45.5305 110.113C45.5305 111.229 46.4355 112.134 47.5519 112.134C48.6683 112.134 49.5734 111.229 49.5734 110.113C49.5734 101.792 42.8039 95.0225 34.4829 95.0225C33.3665 95.0225 32.4614 95.9275 32.4614 97.0439C32.4614 98.1603 33.3665 99.0654 34.4829 99.0654Z" fill="#00C2A9"/>
<path d="M34.6839 70.3127C32.4653 72.1436 29.6563 73.152 26.7739 73.152C25.6575 73.152 24.7524 74.057 24.7524 75.1734C24.7524 76.2898 25.6575 77.1949 26.7739 77.1949C29.5126 77.1949 32.2001 76.5041 34.5871 75.2203C37.0738 75.3565 39.3821 76.5179 40.9804 78.4547C42.2941 80.0463 43.0172 82.0616 43.0172 84.1297C43.0172 85.2461 43.9223 86.1512 45.0387 86.1512C46.1551 86.1512 47.0602 85.2461 47.0602 84.1297C47.0602 81.125 46.0085 78.1957 44.0986 75.8812C42.6542 74.1309 40.8084 72.8204 38.7508 72.0296C41.1898 69.4518 42.7253 66.173 43.138 62.6486C46.3629 62.3195 49.445 61.0454 51.9562 58.973C55.7669 55.8281 57.9525 51.1935 57.9525 46.2573C57.9525 45.1409 57.0474 44.2358 55.931 44.2358C54.8146 44.2358 53.9095 45.1409 53.9095 46.2573C53.9095 49.9825 52.2595 53.4805 49.383 55.8548C47.1648 57.6857 44.3555 58.694 41.4728 58.694C37.4972 58.694 33.7292 56.7688 31.3934 53.5444C30.7385 52.6404 29.4749 52.4382 28.5704 53.0932C27.6663 53.7481 27.4642 55.012 28.1192 55.9162C30.7377 59.5307 34.7167 61.9055 39.0708 62.5524C38.6228 65.5733 37.0816 68.3338 34.6839 70.3127Z" fill="#00C2A9"/>
<path d="M88.4268 110.113C88.4268 111.229 89.3318 112.134 90.4482 112.134C91.5646 112.134 92.4697 111.229 92.4697 110.113C92.4697 104.021 97.4256 99.0654 103.517 99.0654C104.634 99.0654 105.539 98.1603 105.539 97.0439C105.539 95.9275 104.634 95.0225 103.517 95.0225C95.1963 95.0225 88.4268 101.792 88.4268 110.113Z" fill="#00C2A9"/>
<path d="M109.881 55.916C110.536 55.012 110.334 53.7479 109.43 53.0929C108.526 52.4379 107.262 52.6401 106.607 53.5441C104.271 56.7685 100.503 58.6938 96.5275 58.6938C93.6452 58.6938 90.8358 57.6854 88.6173 55.8548C85.7406 53.4805 84.0908 49.9822 84.0908 46.2573C84.0908 45.1409 83.1857 44.2358 82.0693 44.2358C80.9529 44.2358 80.0479 45.1409 80.0479 46.2573C80.0479 51.1932 82.2332 55.8281 86.0441 58.973C88.5553 61.0454 91.6377 62.3195 94.8624 62.6486C95.2753 66.173 96.8108 69.4518 99.2495 72.0296C97.1922 72.8207 95.3464 74.1312 93.9018 75.8812C91.9921 78.1954 90.9401 81.125 90.9401 84.1297C90.9401 85.2461 91.8452 86.1512 92.9616 86.1512C94.078 86.1512 94.9831 85.2461 94.9831 84.1297C94.9831 82.0619 95.7065 80.0463 97.02 78.4547C98.6183 76.5179 100.927 75.3565 103.413 75.2203C105.8 76.5044 108.488 77.1949 111.226 77.1949C112.343 77.1949 113.248 76.2898 113.248 75.1734C113.248 74.057 112.343 73.152 111.226 73.152C108.344 73.152 105.535 72.1436 103.316 70.3127C100.919 68.3341 99.3773 65.5733 98.9293 62.5521C103.283 61.905 107.263 59.5304 109.881 55.916Z" fill="#00C2A9"/>
<path d="M121.923 108.627C120.247 110.339 118.173 111.653 115.925 112.426C115.11 112.707 114.562 113.475 114.562 114.338C114.562 114.381 114.562 114.425 114.564 114.468L114.564 114.5C114.564 120.59 109.608 125.545 103.516 125.545C102.898 125.545 102.256 125.489 101.609 125.379C100.819 125.245 100.022 125.592 99.5817 126.262C96.4147 131.08 91.0893 133.957 85.3364 133.957C79.4895 133.957 74.1786 131.053 71.0216 126.161V111.961C71.0216 104.067 77.4432 97.6458 85.3364 97.6458C86.4528 97.6458 87.3579 96.7407 87.3579 95.6243C87.3579 94.5079 86.4528 93.6028 85.3364 93.6028C79.5531 93.6028 74.3891 96.2938 71.0216 100.486V74.7863C71.0216 69.9353 73.4495 65.4524 77.5162 62.7943C78.4507 62.1836 78.7129 60.9308 78.1022 59.9963C77.4914 59.0619 76.2381 58.7993 75.3042 59.4104C73.6557 60.4879 72.218 61.8 71.0216 63.2865V31.4268C71.0216 26.5758 73.4495 22.0929 77.5162 19.4346C78.4507 18.8238 78.7129 17.571 78.1022 16.6365C77.4914 15.7018 76.2381 15.4398 75.3042 16.0506C73.6557 17.1282 72.218 18.4403 71.0216 19.9267V10.7098C73.9075 6.52481 78.6057 4.04297 83.703 4.04297C85.6738 4.04297 87.5899 4.40899 89.3982 5.1308C90.4354 5.54453 91.6111 5.03943 92.0251 4.00254C92.4388 2.96565 91.934 1.78969 90.8968 1.37569C88.6099 0.462785 86.1895 0 83.703 0C77.9874 0 72.6692 2.46945 69.0001 6.72103C65.331 2.46945 60.0129 0 54.2972 0C44.2267 0 35.9195 7.69377 34.9459 17.5125C24.2215 18.4882 15.792 27.5307 15.792 38.5052C15.792 40.1631 15.9844 41.8048 16.3655 43.4015C12.4584 47.0726 10.2423 52.1629 10.2423 57.5638C10.2423 59.4516 10.5116 61.3084 11.0442 63.1002C7.11547 67.0413 4.88672 72.3934 4.88672 77.9862C4.88672 82.5232 6.3589 86.9422 9.05529 90.5655C8.11651 92.8783 7.64133 95.3267 7.64133 97.8614C7.64133 100.311 8.09171 102.7 8.98036 104.964C9.29329 105.761 10.0555 106.247 10.8625 106.247C11.1083 106.247 11.3582 106.202 11.6007 106.107C12.6398 105.699 13.1516 104.526 12.7438 103.486C12.0409 101.695 11.6843 99.8028 11.6843 97.8614C11.6843 96.5189 11.8579 95.2092 12.1907 93.9411C15.9936 97.2278 20.8618 99.0654 25.9665 99.0654C27.0829 99.0654 27.988 98.1603 27.988 97.0439C27.988 95.9275 27.0829 95.0224 25.9665 95.0224C16.8113 95.2084 8.75773 87.1368 8.92969 77.9862C8.92969 73.099 11.0358 68.4391 14.7084 65.201C15.3378 64.646 15.5591 63.7598 15.2642 62.9744C14.6146 61.2442 14.2853 59.4238 14.2853 57.5638C14.1155 49.286 21.4103 42.0078 29.6895 42.1609C34.6136 42.1609 39.2805 44.5452 42.1737 48.5388C42.5691 49.0846 43.1863 49.3746 43.8124 49.3746C44.2235 49.3746 44.6383 49.2496 44.9967 48.99C45.9007 48.335 46.1029 47.0712 45.4479 46.1669C41.7966 41.1267 35.9057 38.1179 29.6898 38.1179C26.2697 38.1179 22.9162 39.0281 19.9807 40.7175C19.8859 39.9869 19.8352 39.2486 19.8352 38.5052C19.8352 29.1115 27.4772 21.469 36.8706 21.4682H36.8725C43.11 21.4682 48.8432 24.8715 51.8347 30.3506C52.2018 31.0231 52.8951 31.4036 53.6107 31.4036C53.9379 31.4036 54.27 31.3238 54.5775 31.1559C55.5572 30.6209 55.9181 29.3929 55.3829 28.4129C52.028 22.2687 45.8851 18.2343 39.0164 17.5341C39.9616 9.94031 46.4514 4.04297 54.2972 4.04297C59.3946 4.04297 64.0928 6.52481 66.9786 10.7098V19.9264C65.7822 18.44 64.3445 17.1279 62.696 16.0503C61.7616 15.4396 60.5091 15.7018 59.898 16.6363C59.2873 17.5707 59.5495 18.8235 60.484 19.4343C64.5507 22.0927 66.9786 26.5758 66.9786 31.4268V63.2862C65.7822 61.7997 64.3445 60.4877 62.696 59.4101C61.7616 58.7996 60.5088 59.0616 59.898 59.996C59.2873 60.9305 59.5495 62.1833 60.484 62.7941C64.5507 65.4522 66.9786 69.935 66.9786 74.786V100.486C63.6114 96.2933 58.4472 93.6026 52.6638 93.6026C51.5474 93.6026 50.6423 94.5076 50.6423 95.624C50.6423 96.7404 51.5474 97.6455 52.6638 97.6455C60.557 97.6455 66.9786 104.067 66.9786 111.96V126.16C63.8216 131.053 58.5108 133.957 52.6638 133.957C46.9109 133.957 41.5856 131.08 38.4183 126.262C37.9776 125.591 37.1811 125.245 36.3909 125.379C35.7435 125.489 35.1017 125.545 34.4839 125.545C28.392 125.545 23.4359 120.59 23.4359 114.501L23.4364 114.468C23.4375 114.425 23.4383 114.381 23.4383 114.338C23.4383 113.475 22.8909 112.707 22.075 112.427C20.5166 111.89 19.0557 111.106 17.7331 110.095C16.8458 109.418 15.5771 109.588 14.8995 110.475C14.2219 111.362 14.3917 112.631 15.279 113.309C16.5695 114.294 17.9655 115.11 19.4433 115.742C20.0775 123.483 26.5807 129.588 34.4837 129.588C34.9087 129.588 35.34 129.569 35.7747 129.532C39.7511 134.858 45.9732 138 52.6638 138C59.1072 138 65.024 135.151 69.0001 130.252C72.976 135.151 78.893 138 85.3364 138C92.0267 138 98.2491 134.857 102.225 129.531C102.66 129.569 103.091 129.588 103.517 129.588C111.42 129.588 117.924 123.483 118.557 115.741C120.888 114.741 123.029 113.277 124.812 111.456C125.593 110.658 125.58 109.378 124.782 108.597C123.984 107.816 122.704 107.83 121.923 108.627Z" fill="#00C2A9"/>
<path d="M133.113 77.9861C133.113 72.3934 130.885 67.0413 126.956 63.1002C127.489 61.3083 127.758 59.4515 127.758 57.5637C127.758 52.1629 125.542 47.0725 121.635 43.4015C122.016 41.8048 122.208 40.1633 122.208 38.5052C122.208 27.5315 113.779 18.4893 103.056 17.5125C102.707 13.9552 101.397 10.6017 99.2142 7.7196C98.5404 6.82961 97.2722 6.65442 96.3822 7.32878C95.4922 8.00261 95.3173 9.27076 95.9914 10.1607C97.6412 12.3391 98.6608 14.8581 98.9897 17.5338C92.1185 18.2321 85.9732 22.267 82.6173 28.4131C82.0822 29.3931 82.4429 30.6211 83.4226 31.1562C83.7302 31.3241 84.0622 31.4039 84.3894 31.4039C85.105 31.4039 85.7985 31.023 86.1654 30.3508C89.1569 24.8718 94.8901 21.4684 101.128 21.4684H101.129C110.523 21.4692 118.165 29.1118 118.165 38.5055C118.165 39.2488 118.114 39.9873 118.019 40.7178C115.084 39.0281 111.73 38.1181 108.31 38.1181C102.094 38.1181 96.2035 41.1272 92.5522 46.1672C91.8972 47.0712 92.0991 48.335 93.0034 48.9902C93.3618 49.2498 93.7767 49.3748 94.1877 49.3748C94.8138 49.3748 95.431 49.0848 95.8264 48.539C98.7196 44.5454 103.387 42.1611 108.311 42.1611C116.59 42.008 123.884 49.2862 123.715 57.564C123.715 59.424 123.385 61.2445 122.736 62.9746C122.441 63.7603 122.662 64.6465 123.292 65.2012C126.964 68.4393 129.071 73.0993 129.071 77.9864C129.243 87.1375 121.189 95.2084 112.034 95.0227C110.917 95.0227 110.012 95.9277 110.012 97.0441C110.012 98.1605 110.917 99.0656 112.034 99.0656C117.139 99.0656 122.007 97.228 125.81 93.9413C126.143 95.2097 126.316 96.5194 126.316 97.8616C126.316 99.0521 126.181 100.234 125.914 101.374C125.659 102.461 126.334 103.548 127.421 103.803C127.576 103.839 127.731 103.857 127.884 103.857C128.801 103.857 129.632 103.228 129.85 102.295C130.188 100.854 130.359 99.3621 130.359 97.8616C130.359 95.3267 129.884 92.8783 128.945 90.5657C131.641 86.9418 133.113 82.5229 133.113 77.9861Z" fill="#00C2A9"/>
</svg>
