<svg width="130" height="130" viewBox="0 0 130 130" fill="none" xmlns="http://www.w3.org/2000/svg">
<path d="M72.6771 42.4638C72.6825 41.4119 71.834 40.5553 70.7824 40.5503C70.7791 40.5503 70.776 40.5503 70.7727 40.5503C69.7254 40.5503 68.8742 41.3967 68.8688 42.445L68.864 43.4042C67.5166 42.3671 65.876 41.7798 64.05 41.7798C59.559 41.7798 54.9134 45.6653 54.9134 52.1671C54.9134 58.0972 58.9296 62.9218 63.8662 62.9218C66.0123 62.9218 67.9553 62.0172 69.4639 60.4941C69.7635 61.1007 70.1565 61.6592 70.6349 62.1401C71.6966 63.2072 73.0646 63.7949 74.4871 63.7949C78.6036 63.7949 81.2103 60.929 82.2776 58.247C83.934 54.0822 84.2318 50.573 83.2432 46.8693C83.2378 46.8497 83.2322 46.8299 83.2264 46.8104C81.7297 41.8514 78.3812 37.791 73.7978 35.377C69.2149 32.9633 63.9711 32.5002 59.0317 34.0728C54.3513 35.5626 50.4574 38.7748 48.0673 43.1173C45.6765 47.4611 45.0478 52.469 46.297 57.2185C47.379 61.3325 49.715 64.8818 53.0529 67.4821C56.2666 69.986 60.2697 71.4268 64.3245 71.539C64.3425 71.5395 64.3603 71.5397 64.3781 71.5397C65.405 71.5397 66.2517 70.7215 66.2807 69.6881C66.3096 68.6368 65.4812 67.7611 64.4299 67.7322C57.6506 67.5448 51.7088 62.823 49.9801 56.2501C48.9806 52.4494 49.4863 48.4378 51.4037 44.9537C53.3213 41.4696 56.4403 38.8944 60.1869 37.7019C64.1468 36.4413 68.3501 36.8125 72.0231 38.7466C75.6862 40.6759 78.3652 43.9173 79.5699 47.8764C80.3773 50.9254 79.8903 53.9446 78.7392 56.8397C78.3627 57.7859 77.1948 59.9869 74.4873 59.9869C73.9456 59.9869 73.5325 59.6532 73.3347 59.4542C72.8729 58.9898 72.5989 58.3064 72.6022 57.626L72.6771 42.4638ZM63.8662 59.1135C61.3921 59.1135 58.7217 56.4576 58.7217 52.1671C58.7217 48.0488 61.4307 45.5881 64.05 45.5881C66.7882 45.5881 68.7218 48.1318 68.8224 51.8114L68.8191 52.5076C68.6738 56.1846 66.5082 59.1135 63.8662 59.1135Z" fill="white"/>
<path d="M122.476 121.836C122.476 121.836 122.476 121.835 122.476 121.834V56.8721C122.476 54.6805 121.582 52.5435 120.024 51.0035C120.022 51.0014 120.02 50.9989 120.018 50.9969C120.017 50.9958 120.016 50.9948 120.015 50.9936C120.011 50.9903 120.008 50.9864 120.004 50.9831L112.52 43.6379V39.3432C112.52 38.2913 111.668 37.439 110.616 37.439C109.564 37.439 108.712 38.2913 108.712 39.3432V59.5927L74.1126 94.1308L68.6708 91.1408C66.2088 89.7873 63.268 89.787 60.8053 91.1405L55.3635 94.1308L20.764 59.5927V26.7214C20.764 24.2717 22.7573 22.2784 25.207 22.2784H104.269C106.719 22.2784 108.712 24.2717 108.712 26.7214V31.2378C108.712 32.2897 109.564 33.142 110.616 33.142C111.668 33.142 112.52 32.2897 112.52 31.2378V26.7214C112.52 22.1715 108.819 18.4701 104.269 18.4701H86.8775L70.2766 2.17661C70.2586 2.15884 70.24 2.14132 70.2212 2.12456C67.0954 -0.70806 62.3807 -0.708314 59.2546 2.12456C59.2358 2.14132 59.2175 2.15884 59.1995 2.17661L42.5983 18.4701H25.2068C20.6571 18.4701 16.9554 22.1715 16.9554 26.7214V43.6382L9.47134 50.9834C9.46829 50.9864 9.46525 50.9897 9.4622 50.993C9.46068 50.9946 9.45915 50.9956 9.45763 50.9971C9.45484 50.9999 9.45255 51.0029 9.45001 51.0055C7.89318 52.5456 7 54.6818 7 56.8721V78.6013C7 79.6531 7.85255 80.5054 8.90415 80.5054C9.95576 80.5054 10.8083 79.6531 10.8083 78.6013V56.8721C10.8083 56.3399 10.9109 55.8156 11.0952 55.3223L17.5142 61.7299L51.8865 96.0413L10.8086 118.615V86.8998C10.8086 85.848 9.95601 84.9957 8.90441 84.9957C7.85281 84.9957 7.00025 85.848 7.00025 86.8998V121.834V121.836C7.00025 121.846 7.00076 121.856 7.00102 121.866C7.01853 126.354 10.674 130 15.166 130H85.4664C86.5183 130 87.3706 129.148 87.3706 128.096C87.3706 127.044 86.5183 126.192 85.4664 126.192H15.166C13.1268 126.192 11.4154 124.782 10.9426 122.887L55.9459 98.1562L62.6394 94.4779C63.9535 93.7558 65.5223 93.7555 66.8364 94.4781L73.5297 98.1562L118.533 122.887C118.06 124.782 116.349 126.192 114.31 126.192H93.7652C92.7134 126.192 91.8611 127.044 91.8611 128.096C91.8611 129.148 92.7134 130 93.7652 130H114.31C118.802 130 122.458 126.354 122.475 121.866C122.475 121.856 122.476 121.846 122.476 121.836ZM61.8376 4.92367C63.4975 3.443 65.979 3.44274 67.6384 4.92367L81.4408 18.4701H48.0353L61.8376 4.92367ZM16.9557 55.791L13.5122 52.3536L16.9557 48.9741V55.791ZM111.962 61.7299L118.381 55.3221C118.565 55.8154 118.668 56.3399 118.668 56.8721V118.615L77.5891 96.0413L111.962 61.7299ZM115.964 52.3536L112.52 55.791V48.9741L115.964 52.3536Z" fill="white"/>
</svg>
