<svg width="138" height="138" viewBox="0 0 138 138" fill="none" xmlns="http://www.w3.org/2000/svg">
<path d="M11.1771 66.4915C9.12143 54.1574 8.9445 42.5848 29.0927 36.5409C35.7357 34.5474 41.4583 32.1463 46.1005 29.4029C52.5139 25.6149 56.4989 18.5474 56.4989 10.9587V2.13993C56.4989 0.958333 55.5406 0 54.359 0C53.1774 0 52.219 0.958333 52.219 2.13993V10.9587C52.219 17.0404 49.0407 22.6967 43.9226 25.7191C39.5796 28.2866 34.175 30.5487 27.8626 32.4422C4.39926 39.4812 4.76996 54.0711 6.95622 67.195C7.22371 68.7936 7.55439 70.7218 7.93351 72.9123C10.5958 88.3678 15.5538 117.135 15.5538 135.86C15.5538 137.042 16.5122 138 17.6938 138C18.8754 138 19.8337 137.042 19.8337 135.86C19.8337 116.769 14.8356 87.7665 12.1502 72.1857C11.7732 70.0036 11.4425 68.0838 11.1771 66.4915Z" fill="#00C2A9"/>
<path d="M111.05 32.4422C104.738 30.5487 99.3334 28.2866 94.9903 25.7191C89.8722 22.6967 86.6939 17.0404 86.6939 10.9587V2.13993C86.6939 0.958333 85.7356 0 84.554 0C83.3724 0 82.4141 0.958333 82.4141 2.13993V10.9587C82.4141 18.5474 86.399 25.6149 92.8125 29.4029C97.4546 32.1463 103.177 34.5474 109.82 36.5409C129.968 42.5848 129.792 54.1574 127.736 66.4915C127.47 68.0838 127.14 70.0036 126.763 72.1857C124.077 87.7665 119.079 116.769 119.079 135.86C119.079 137.042 120.038 138 121.219 138C122.401 138 123.359 137.042 123.359 135.86C123.359 117.135 128.317 88.3678 130.979 72.9123C131.359 70.7218 131.689 68.7936 131.957 67.195C134.143 54.0711 134.514 39.4812 111.05 32.4422Z" fill="#00C2A9"/>
<path d="M29.1218 18.7509C29.5389 19.1679 30.0865 19.3775 30.6341 19.3775C31.1817 19.3775 31.7293 19.1679 32.1464 18.7509C32.9825 17.9147 32.9825 16.5604 32.1464 15.7243L27.8328 11.4107C26.9988 10.5766 25.6423 10.5766 24.8083 11.4107C23.9721 12.2469 23.9721 13.6012 24.8083 14.4374L29.1218 18.7509Z" fill="#00C2A9"/>
<path d="M22.0071 25.8477H26.3207C27.5023 25.8477 28.4606 24.8894 28.4606 23.7078C28.4606 22.5262 27.5023 21.5679 26.3207 21.5679H22.0071C20.8255 21.5679 19.8672 22.5262 19.8672 23.7078C19.8672 24.8894 20.8255 25.8477 22.0071 25.8477Z" fill="#00C2A9"/>
<path d="M37.1053 15.0636C38.2869 15.0636 39.2452 14.1053 39.2452 12.9237V8.61014C39.2452 7.42855 38.2869 6.47021 37.1053 6.47021C35.9237 6.47021 34.9653 7.42855 34.9653 8.61014V12.9237C34.9653 14.1053 35.9237 15.0636 37.1053 15.0636Z" fill="#00C2A9"/>
<path d="M108.278 19.3775C108.826 19.3775 109.373 19.1679 109.79 18.7509L114.104 14.4374C114.94 13.6012 114.94 12.2469 114.104 11.4107C113.27 10.5766 111.913 10.5766 111.079 11.4107L106.766 15.7243C105.93 16.5604 105.93 17.9147 106.766 18.7509C107.183 19.1679 107.73 19.3775 108.278 19.3775Z" fill="#00C2A9"/>
<path d="M110.452 23.7078C110.452 24.8894 111.41 25.8477 112.592 25.8477H116.906C118.087 25.8477 119.046 24.8894 119.046 23.7078C119.046 22.5262 118.087 21.5679 116.906 21.5679H112.592C111.41 21.5679 110.452 22.5262 110.452 23.7078Z" fill="#00C2A9"/>
<path d="M101.808 15.0636C102.99 15.0636 103.948 14.1053 103.948 12.9237V8.61014C103.948 7.42855 102.99 6.47021 101.808 6.47021C100.627 6.47021 99.6685 7.42855 99.6685 8.61014V12.9237C99.6685 14.1053 100.627 15.0636 101.808 15.0636Z" fill="#00C2A9"/>
<path d="M34.5964 72.6438C33.3874 67.2087 32.7745 61.6293 32.7745 56.0594C32.7745 54.8778 31.8161 53.9194 30.6346 53.9194C29.453 53.9194 28.4946 54.8778 28.4946 56.0594C28.4946 61.941 29.1412 67.8332 30.4176 73.5726L35.2998 95.5511C36.5088 100.986 37.1217 106.566 37.1217 112.136V135.86C37.1217 137.042 38.0801 138 39.2617 138C40.4433 138 41.4016 137.042 41.4016 135.86V112.136C41.4016 106.254 40.755 100.362 39.4786 94.6223L34.5964 72.6438Z" fill="#00C2A9"/>
<path d="M108.279 53.9194C107.097 53.9194 106.139 54.8778 106.139 56.0594C106.139 61.6293 105.526 67.2087 104.317 72.6438L99.4346 94.6223C98.7823 97.5573 98.3226 100.546 98.0026 103.525H95.3211V99.1949C95.3211 98.365 94.8409 97.6089 94.089 97.2572C93.3349 96.9044 92.4482 97.0213 91.8121 97.551L78.8715 108.335C78.3828 108.741 78.1006 109.344 78.1006 109.979C78.1006 110.614 78.3828 111.216 78.8715 111.623L91.8121 122.407C92.2039 122.733 92.6904 122.903 93.1812 122.903C93.4887 122.903 93.7983 122.836 94.089 122.7C94.8409 122.349 95.3211 121.593 95.3211 120.763V116.432H97.5116V135.86C97.5116 137.042 98.4699 138 99.6515 138C100.833 138 101.791 137.042 101.791 135.86V116.432H106.122C107.303 116.432 108.262 115.474 108.262 114.292V105.665C108.262 104.484 107.303 103.525 106.122 103.525H102.313C102.616 100.856 103.028 98.1809 103.613 95.5511L108.496 73.5726C109.772 67.8332 110.419 61.941 110.419 56.0594C110.419 54.8778 109.46 53.9194 108.279 53.9194ZM103.982 112.152H93.1812C91.9996 112.152 91.0412 113.111 91.0412 114.292V116.194L83.5831 109.979L91.0412 103.763V105.665C91.0412 106.847 91.9996 107.805 93.1812 107.805H103.982V112.152Z" fill="#00C2A9"/>
<path d="M80.1035 78.3346C90.1018 49.7636 73.8838 31.6448 73.1888 30.8876C72.3905 30.0156 71.0425 29.9609 70.1705 30.757C69.3007 31.5532 69.2396 32.9054 70.0336 33.7784C70.3376 34.1122 73.9455 38.1886 76.508 45.2921H68.0855C65.2001 36.4176 60.6109 31.2829 60.2481 30.8876C59.4498 30.0156 58.104 29.9609 57.2299 30.757C56.36 31.5532 56.2989 32.9054 57.093 33.7784C57.7164 34.4629 72.2473 50.8494 63.1231 76.9213C47.7582 120.821 62.9757 136.717 63.6307 137.373C64.0456 137.789 64.589 137.997 65.1345 137.997C65.6758 137.997 66.2192 137.79 66.6384 137.378C67.4746 136.555 67.4851 135.203 66.6679 134.359C66.6071 134.296 64.0244 131.498 62.2522 125.059H71.6133C71.6941 125.059 71.7626 125.022 71.841 125.013C74.4183 133.455 78.4787 137.161 78.8313 137.47C79.2357 137.824 79.7349 137.998 80.232 137.998C80.8238 137.998 81.4115 137.752 81.8348 137.275C82.6162 136.395 82.5341 135.046 81.66 134.259C81.4999 134.115 65.7559 119.328 80.1035 78.3346ZM69.8504 105.761C69.7181 105.736 69.5962 105.682 69.4565 105.682H60.8933C61.1758 102.375 61.698 98.7461 62.5266 94.7714C62.6792 94.8059 62.8232 94.8642 62.9862 94.8642H71.1924C70.4593 98.8089 70.0347 102.433 69.8504 105.761ZM63.4872 90.5844C64.3351 87.1727 65.4018 83.5315 66.7213 79.65C66.9092 79.704 67.0946 79.7668 67.2997 79.7668H75.1142C73.8635 83.5929 72.8672 87.1943 72.0889 90.5844H63.4872ZM76.5312 75.4869H68.0801C69.2136 71.6728 69.8736 68.0651 70.1842 64.6694H78.8226C78.4871 68.0446 77.7616 71.6569 76.5312 75.4869ZM77.7998 49.5719C78.5833 52.7548 79.0824 56.3737 79.0531 60.3895H70.3977C70.4241 56.4278 69.9799 52.8101 69.2559 49.5719H77.7998ZM61.3224 120.779C60.8184 117.749 60.5311 114.164 60.6447 109.962H69.4565C69.5555 109.962 69.6404 109.918 69.7359 109.905C69.7515 114.05 70.1551 117.656 70.7842 120.779H61.3224Z" fill="#00C2A9"/>
<path d="M62.9692 56.0586C62.9692 55.4235 62.687 54.8211 62.1983 54.4146L49.2577 43.6308C48.6195 43.1 47.7349 42.9852 46.9808 43.3369C46.2289 43.6887 45.7487 44.4448 45.7487 45.2747V49.6051H39.2615C38.0799 49.6051 37.1216 50.5634 37.1216 51.745V60.3721C37.1216 61.5537 38.0799 62.512 39.2615 62.512H45.7487V66.8424C45.7487 67.6723 46.2289 68.4284 46.9808 68.7802C47.2715 68.916 47.5811 68.9824 47.8886 68.9824C48.3794 68.9824 48.8659 68.8128 49.2577 68.4863L62.1983 57.7025C62.687 57.296 62.9692 56.6936 62.9692 56.0586ZM50.0285 62.274V60.3721C50.0285 59.1905 49.0702 58.2322 47.8886 58.2322H41.4014V53.8849H47.8886C49.0702 53.8849 50.0285 52.9266 50.0285 51.745V49.8431L57.4867 56.0586L50.0285 62.274Z" fill="#00C2A9"/>
</svg>
