<svg width="138" height="138" viewBox="0 0 138 138" fill="none" xmlns="http://www.w3.org/2000/svg">
<path d="M39.743 54.2667C39.743 53.1427 38.8319 52.2319 37.7082 52.2319H23.0739C21.9501 52.2319 21.0391 53.1427 21.0391 54.2667V68.9008C21.0391 70.0248 21.9501 70.9356 23.0739 70.9356H37.7082C38.8319 70.9356 39.743 70.0248 39.743 68.9008V54.2667ZM35.6734 66.866H25.1087V56.3015H35.6734V66.866Z" fill="#1E4793"/>
<path d="M65.8304 54.2667C65.8304 53.1427 64.9194 52.2319 63.7956 52.2319H49.1613C48.0375 52.2319 47.1265 53.1427 47.1265 54.2667V68.9008C47.1265 70.0248 48.0375 70.9356 49.1613 70.9356H63.7956C64.9194 70.9356 65.8304 70.0248 65.8304 68.9008V54.2667ZM61.7608 66.866H51.1961V56.3015H61.7608V66.866Z" fill="#1E4793"/>
<path d="M91.9178 54.2667C91.9178 53.1427 91.0068 52.2319 89.883 52.2319H75.2487C74.1246 52.2319 73.2139 53.1427 73.2139 54.2667V68.9008C73.2139 70.0248 74.1246 70.9356 75.2487 70.9356H89.883C91.0068 70.9356 91.9178 70.0248 91.9178 68.9008V54.2667ZM87.8482 66.866H77.2835V56.3015H87.8482V66.866Z" fill="#1E4793"/>
<path d="M101.337 70.9356H115.971C117.095 70.9356 118.006 70.0248 118.006 68.9008V54.2667C118.006 53.1427 117.095 52.2319 115.971 52.2319H101.337C100.213 52.2319 99.3018 53.1427 99.3018 54.2667V68.9008C99.3018 70.0248 100.213 70.9356 101.337 70.9356ZM103.371 56.3015H113.936V66.866H103.371V56.3015Z" fill="#1E4793"/>
<path d="M39.743 80.7506C39.743 79.6266 38.8319 78.7158 37.7082 78.7158H23.0739C21.9501 78.7158 21.0391 79.6266 21.0391 80.7506V95.3847C21.0391 96.5087 21.9501 97.4195 23.0739 97.4195H37.7082C38.8319 97.4195 39.743 96.5087 39.743 95.3847V80.7506ZM35.6734 93.3499H25.1087V82.7854H35.6734V93.3499Z" fill="#1E4793"/>
<path d="M65.8304 80.7506C65.8304 79.6266 64.9194 78.7158 63.7956 78.7158H49.1613C48.0375 78.7158 47.1265 79.6266 47.1265 80.7506V95.3847C47.1265 96.5087 48.0375 97.4195 49.1613 97.4195H63.7956C64.9194 97.4195 65.8304 96.5087 65.8304 95.3847V80.7506ZM61.7608 93.3499H51.1961V82.7854H61.7608V93.3499Z" fill="#1E4793"/>
<path d="M91.9178 80.7506C91.9178 79.6266 91.0068 78.7158 89.883 78.7158H75.2487C74.1246 78.7158 73.2139 79.6266 73.2139 80.7506V95.3847C73.2139 96.5087 74.1246 97.4195 75.2487 97.4195H89.883C91.0068 97.4195 91.9178 96.5087 91.9178 95.3847V80.7506ZM87.8482 93.3499H77.2835V82.7854H87.8482V93.3499Z" fill="#1E4793"/>
<path d="M99.3018 95.3847C99.3018 96.5087 100.213 97.4195 101.337 97.4195H115.971C117.095 97.4195 118.006 96.5087 118.006 95.3847V80.7506C118.006 79.6266 117.095 78.7158 115.971 78.7158H101.337C100.213 78.7158 99.3018 79.6266 99.3018 80.7506V95.3847ZM103.371 82.7854H113.936V93.3499H103.371V82.7854Z" fill="#1E4793"/>
<path d="M37.7082 105.2H23.0739C21.9501 105.2 21.0391 106.111 21.0391 107.235V121.869C21.0391 122.993 21.9501 123.904 23.0739 123.904H37.7082C38.8319 123.904 39.743 122.993 39.743 121.869V107.235C39.743 106.111 38.8319 105.2 37.7082 105.2ZM35.6734 119.834H25.1087V109.27H35.6734V119.834Z" fill="#1E4793"/>
<path d="M63.7956 105.2H49.1613C48.0375 105.2 47.1265 106.111 47.1265 107.235V121.869C47.1265 122.993 48.0375 123.904 49.1613 123.904H63.7956C64.9194 123.904 65.8304 122.993 65.8304 121.869V107.235C65.8304 106.111 64.9194 105.2 63.7956 105.2ZM61.7608 119.834H51.1961V109.27H61.7608V119.834Z" fill="#1E4793"/>
<path d="M89.883 105.2H75.2487C74.1246 105.2 73.2139 106.111 73.2139 107.235V121.869C73.2139 122.993 74.1246 123.904 75.2487 123.904H89.883C91.0068 123.904 91.9178 122.993 91.9178 121.869V107.235C91.9178 106.111 91.007 105.2 89.883 105.2ZM87.8482 119.834H77.2835V109.27H87.8482V119.834Z" fill="#1E4793"/>
<path d="M99.3018 121.869C99.3018 122.993 100.213 123.904 101.337 123.904H115.971C117.095 123.904 118.006 122.993 118.006 121.869V107.235C118.006 106.111 117.095 105.2 115.971 105.2H101.337C100.213 105.2 99.3018 106.111 99.3018 107.235V121.869ZM103.371 109.27H113.936V119.834H103.371V109.27Z" fill="#1E4793"/>
<path d="M126.669 15.1037H124.159V7.31906C124.159 3.28336 120.876 0 116.84 0C112.804 0 109.521 3.28336 109.521 7.31906V15.1037H100.5V7.31906C100.5 3.28336 97.2166 0 93.1809 0C89.1452 0 85.8619 3.28336 85.8619 7.31906V15.1037H76.8409V7.31906C76.8412 3.28336 73.5578 0 69.5221 0C65.4864 0 62.203 3.28336 62.203 7.31906V15.1037H53.1818V7.31906C53.1821 3.28336 49.8987 0 45.863 0C41.8273 0 38.544 3.28336 38.544 7.31906V15.1037H29.5227V7.31906C29.523 3.28336 26.2399 0 22.2042 0C18.1685 0 14.8851 3.28336 14.8851 7.31906V15.1037H12.3753C7.75734 15.1037 4 18.861 4 23.4789V129.625C4 134.243 7.75707 138 12.3753 138H90.326C91.45 138 92.3608 137.089 92.3608 135.965C92.3608 134.841 91.45 133.93 90.326 133.93H12.3753C10.0013 133.93 8.06961 131.999 8.06961 129.625V42.5825H34.0451C35.1689 42.5825 36.0799 41.6717 36.0799 40.5477C36.0799 39.4237 35.1689 38.5129 34.0451 38.5129H8.06961V23.4789C8.06961 21.1047 10.001 19.1733 12.3753 19.1733H14.8851V22.174C14.8851 26.2097 18.1685 29.493 22.2042 29.493C26.2399 29.493 29.5232 26.2097 29.5232 22.174V19.1733H38.5445V22.174C38.5445 26.2097 41.8279 29.493 45.8636 29.493C49.8993 29.493 53.1826 26.2097 53.1826 22.174V19.1733H62.2039V22.174C62.2039 26.2097 65.4872 29.493 69.5229 29.493C73.5586 29.493 76.842 26.2097 76.842 22.174V19.1733H85.863V22.174C85.863 26.2097 89.1463 29.493 93.182 29.493C97.2177 29.493 100.501 26.2097 100.501 22.174V19.1733H109.522V22.174C109.522 26.2097 112.806 29.493 116.841 29.493C120.877 29.493 124.16 26.2097 124.16 22.174V19.1733H126.67C129.045 19.1733 130.976 21.1047 130.976 23.4789V38.5129H42.1846C41.0609 38.5129 40.1498 39.4237 40.1498 40.5477C40.1498 41.6717 41.0609 42.5825 42.1846 42.5825H130.975V129.625C130.975 131.999 129.043 133.93 126.669 133.93H98.4652C97.3412 133.93 96.4304 134.841 96.4304 135.965C96.4304 137.089 97.3412 138 98.4652 138H126.669C131.287 138 135.044 134.243 135.044 129.625V23.4789C135.044 18.861 131.287 15.1037 126.669 15.1037ZM25.4534 22.174C25.4534 23.9657 23.9959 25.4234 22.2039 25.4234C20.4122 25.4234 18.9545 23.9657 18.9545 22.174V7.31906C18.9547 5.52735 20.4125 4.06961 22.2042 4.06961C23.9959 4.06961 25.4536 5.52735 25.4536 7.31906L25.4534 22.174ZM49.1125 22.174C49.1125 23.9657 47.6547 25.4234 45.863 25.4234C44.0713 25.4234 42.6136 23.9657 42.6136 22.174V7.31906C42.6136 5.52735 44.0713 4.06961 45.863 4.06961C47.6547 4.06961 49.1125 5.52735 49.1125 7.31906V22.174ZM72.7716 22.174C72.7716 23.9657 71.3138 25.4234 69.5221 25.4234C67.7304 25.4234 66.2727 23.9657 66.2727 22.174V7.31906C66.2727 5.52735 67.7304 4.06961 69.5221 4.06961C71.3138 4.06961 72.7716 5.52735 72.7716 7.31906V22.174ZM96.4304 22.174C96.4304 23.9657 94.9727 25.4234 93.1809 25.4234C91.3895 25.4234 89.9315 23.9657 89.9315 22.174V7.31906C89.9315 5.52735 91.3892 4.06961 93.1809 4.06961C94.9727 4.06961 96.4304 5.52735 96.4304 7.31906V22.174ZM120.089 22.174C120.089 23.9657 118.632 25.4234 116.84 25.4234C115.049 25.4234 113.591 23.9657 113.591 22.174V7.31906C113.591 5.52735 115.048 4.06961 116.84 4.06961C118.632 4.06961 120.089 5.52735 120.089 7.31906V22.174Z" fill="#1E4793"/>
</svg>
