<svg width="130" height="130" viewBox="0 0 130 130" fill="none" xmlns="http://www.w3.org/2000/svg">
<path d="M129.652 58.2088C128.117 43.4418 121.48 29.5171 110.965 18.9995C98.7172 6.74754 82.3937 0 65.0021 0C47.6095 0 31.2861 6.74754 19.038 18.9995C6.76126 31.2812 0 47.6098 0 64.9772C0 82.3456 6.76126 98.6742 19.038 110.955C31.3158 123.237 47.6393 130 65.0021 130C66.0683 130 66.9322 129.135 66.9322 128.068C66.9322 127.002 66.0683 126.138 65.0021 126.138C48.6708 126.138 33.3173 119.776 21.7695 108.224C10.2207 96.6721 3.86117 81.3137 3.86117 64.9772C3.86117 48.6416 10.2207 33.2823 21.7695 21.7308C33.2876 10.2081 48.641 3.8624 65.0021 3.8624C81.3622 3.8624 96.7157 10.2081 108.235 21.7308C118.124 31.6244 124.367 44.7207 125.812 58.6086C127.236 72.3002 123.98 86.199 116.642 97.7456C115.099 100.174 112.58 101.747 109.731 102.06C107.562 102.298 105.425 101.776 103.64 100.61L108.048 96.1988C109.321 94.9269 110.021 93.2353 110.021 91.4365C110.021 89.6378 109.321 87.9462 108.049 86.6743L94.972 73.5909C93.7005 72.319 92.0095 71.6186 90.2113 71.6186C88.4131 71.6186 86.7221 72.319 85.4505 73.5909L78.9293 80.1142C77.6617 81.3822 75.9766 82.0807 74.1824 82.0807C72.3902 82.0807 70.7041 81.3822 69.4366 80.1142L49.8689 60.5403C47.2524 57.9231 47.2524 53.6628 49.8679 51.0466L56.3901 44.5222C57.6616 43.2503 58.3619 41.5587 58.3619 39.76C58.3619 37.9602 57.6616 36.2696 56.3901 34.9967L43.3119 21.9164C42.0404 20.6444 40.3494 19.944 38.5512 19.944C36.753 19.944 35.0619 20.6444 33.7894 21.9164L28.7906 26.9177C28.7877 26.9207 28.7837 26.9237 28.7807 26.9267C28.7768 26.9306 28.7728 26.9356 28.7688 26.9396C23.1025 32.6136 19.9823 40.1539 19.9823 48.1743C19.9823 56.2007 23.1075 63.7469 28.7817 69.422L49.2103 89.8571C49.9651 90.6111 51.187 90.6111 51.9408 89.8571C52.6956 89.103 52.6956 87.8807 51.9408 87.1257L31.5122 66.6906C26.567 61.7448 23.8434 55.1689 23.8434 48.1743C23.8434 41.8276 26.0859 35.8261 30.1961 31.0738L35.0133 35.8926C35.3902 36.2696 35.8852 36.4581 36.3791 36.4581C36.873 36.4581 37.3669 36.2696 37.7438 35.8926C38.4986 35.1386 38.4986 33.9153 37.7438 33.1613L32.877 28.2928L36.5209 24.6477C37.0625 24.105 37.7835 23.8064 38.5512 23.8064C39.3179 23.8064 40.0389 24.105 40.5814 24.6477L53.6596 37.7291C54.2021 38.2718 54.5017 38.9931 54.5017 39.76C54.5017 40.5269 54.2031 41.2482 53.6596 41.7909L50.0157 45.436L44.1421 39.5616C43.3883 38.8065 42.1654 38.8065 41.4116 39.5616C40.6578 40.3156 40.6578 41.5379 41.4116 42.2929L47.2852 48.1674L47.1384 48.3142C43.0164 52.4375 43.0164 59.1484 47.1384 63.2717L66.7061 82.8456C68.7036 84.8428 71.3587 85.9431 74.1834 85.9431C77.0081 85.9431 79.6632 84.8428 81.6588 82.8466L81.8056 82.6998L98.8917 99.7913C96.0333 102.257 92.667 104.09 89.0518 105.129C79.8904 107.76 70.0188 105.21 63.2892 98.4768L58.5057 93.6917C57.7519 92.9376 56.529 92.9376 55.7752 93.6917C55.0214 94.4457 55.0214 95.669 55.7752 96.423L60.5587 101.208C66.2707 106.923 73.9513 110.01 81.8185 110.01C84.5876 110.01 87.3816 109.627 90.1181 108.842C93.9872 107.728 97.6073 105.827 100.738 103.283C103.41 105.325 106.754 106.274 110.154 105.899C114.173 105.457 117.725 103.24 119.901 99.8171C127.703 87.5394 131.167 72.7625 129.652 58.2088ZM88.181 76.3223C88.7236 75.7796 89.4446 75.481 90.2113 75.481C90.979 75.481 91.699 75.7796 92.2415 76.3223L105.319 89.4056C105.861 89.9483 106.16 90.6696 106.16 91.4365C106.16 92.2035 105.861 92.9248 105.319 93.4675L101.675 97.1116L84.5371 79.9684L88.181 76.3223Z" fill="white"/>
</svg>
