<svg width="138" height="138" viewBox="0 0 138 138" fill="none" xmlns="http://www.w3.org/2000/svg">
<path d="M37.0522 56.1658V94.4625C37.0522 96.9845 39.1039 99.0364 41.6259 99.0364H48.889C51.2916 99.0364 53.2629 97.1734 53.4449 94.8169H85.5342C90.2655 94.8169 94.4699 91.6378 95.7591 87.0857L100.541 70.2014C101.457 66.9681 100.82 63.5763 98.7935 60.8959C96.7669 58.2154 93.677 56.678 90.3165 56.678H79.9514C79.5818 56.678 79.2811 56.3772 79.2811 56.0076V50.6073C79.2811 46.9894 77.6571 43.6224 74.8257 41.3699L73.4613 40.2848C72.0953 39.1983 70.3272 38.7514 68.6103 39.0598C66.8947 39.3673 65.3929 40.3994 64.4908 41.8909C63.0882 44.2105 61.4332 46.9242 59.5727 49.9561C57.1463 53.9101 54.9658 55.8392 53.4629 56.779V56.1658C53.4629 53.6438 51.4113 51.5919 48.889 51.5919H41.6259C39.1039 51.5922 37.0522 53.6438 37.0522 56.1658ZM63.0183 52.0706C64.8835 49.0311 66.5427 46.3102 67.95 43.9833C68.2553 43.4785 68.7432 43.1432 69.3238 43.0391C69.9059 42.9354 70.4814 43.0804 70.9445 43.4488L72.3088 44.534C74.1705 46.015 75.2381 48.2287 75.2381 50.6073V56.0079C75.2381 58.607 77.3526 60.7212 79.9514 60.7212H90.3162C92.3983 60.7212 94.3125 61.6737 95.5683 63.3346C96.8238 64.9954 97.2186 67.0967 96.6515 69.1001L91.8692 85.9844C91.0703 88.8045 88.4653 90.7742 85.5342 90.7742H53.4627V61.2754C55.6203 60.4889 59.2101 58.2763 63.0183 52.0706ZM41.0952 56.1658C41.0952 55.8731 41.3332 55.6349 41.6259 55.6349H48.889C49.1817 55.6349 49.42 55.8731 49.42 56.1658V94.4625C49.42 94.7552 49.1817 94.9934 48.889 94.9934H41.6259C41.3332 94.9934 41.0952 94.7552 41.0952 94.4625V56.1658Z" fill="#1E4793"/>
<path d="M134.793 76.928C136.296 74.6124 138 71.9883 138 69C138 66.0117 136.296 63.3876 134.793 61.0723C133.713 59.4079 132.692 57.836 132.406 56.3867C132.102 54.851 132.451 52.9575 132.82 50.953C133.336 48.1518 133.87 45.2554 132.763 42.5873C131.635 39.8658 129.181 38.1821 126.809 36.5536C125.154 35.4175 123.59 34.3445 122.749 33.0879C121.894 31.8114 121.495 29.943 121.071 27.9649C120.472 25.1661 119.853 22.2719 117.791 20.2097C115.729 18.1475 112.834 17.5282 110.036 16.9293C108.058 16.5058 106.189 16.1061 104.913 15.2512C103.656 14.4097 102.583 12.8467 101.447 11.1915C99.8185 8.81879 98.1344 6.36552 95.4133 5.23699C92.7454 4.13084 89.8485 4.66424 87.0475 5.18039C85.0428 5.54965 83.1496 5.89842 81.6135 5.59466C80.1645 5.30815 78.5926 4.28743 76.9283 3.20688C74.6125 1.70371 71.9883 0 69 0C66.0114 0 63.3876 1.70371 61.0723 3.20688C59.4079 4.28743 57.836 5.30815 56.387 5.59466C54.8518 5.89815 52.9578 5.54965 50.953 5.18012C48.1518 4.66397 45.2556 4.13057 42.5876 5.23672C39.8661 6.36525 38.1821 8.81879 36.5536 11.1915C35.4175 12.8464 34.3448 14.4097 33.0885 15.2509C31.8117 16.1056 29.943 16.5056 27.9649 16.9287C25.1661 17.5276 22.2719 18.147 20.21 20.2092C18.1478 22.2714 17.5284 25.1653 16.9295 27.9641C16.5064 29.9422 16.1064 31.8106 15.2517 33.0874C14.4105 34.3442 12.8472 35.4172 11.192 36.553C8.81933 38.1815 6.36579 39.8656 5.23753 42.5867C4.13111 45.2546 4.66478 48.1512 5.18066 50.9522C5.54992 52.957 5.89869 54.8504 5.59493 56.3862C5.30842 57.8352 4.2877 59.4071 3.20715 61.0715C1.70371 63.3876 0 66.0117 0 69C0 71.9883 1.70371 74.6124 3.20688 76.9277C4.28743 78.5921 5.30788 80.164 5.59466 81.6133C5.89842 83.149 5.54965 85.0425 5.18039 87.047C4.66424 89.8482 4.13057 92.7446 5.23699 95.4127C6.36552 98.1339 8.81906 99.8179 11.1915 101.446C12.8467 102.583 14.4097 103.656 15.2512 104.912C16.1058 106.189 16.5058 108.057 16.9293 110.035C17.5282 112.834 18.1475 115.728 20.2095 117.79C22.2716 119.852 25.1659 120.472 27.9644 121.071C29.9425 121.494 31.8109 121.894 33.0879 122.749C34.3445 123.59 35.4175 125.153 36.5533 126.809C38.1818 129.181 39.8656 131.635 42.587 132.763C45.2551 133.869 48.1518 133.336 50.9527 132.82C52.9575 132.451 54.851 132.102 56.3867 132.406C57.8357 132.692 59.4077 133.713 61.072 134.793C63.3876 136.296 66.0114 138 69 138C71.9883 138 74.6124 136.296 76.928 134.793C78.5923 133.713 80.1643 132.692 81.6133 132.405C83.149 132.102 85.0428 132.45 87.047 132.82C89.8482 133.336 92.7446 133.869 95.4127 132.763C98.1342 131.635 99.8179 129.181 101.446 126.809C102.583 125.154 103.655 123.59 104.912 122.749C106.189 121.894 108.057 121.494 110.035 121.071C112.834 120.472 115.728 119.852 117.79 117.79C119.852 115.728 120.472 112.834 121.071 110.036C121.494 108.058 121.894 106.189 122.749 104.912C123.59 103.655 125.153 102.583 126.809 101.446C129.181 99.8179 131.634 98.1339 132.763 95.4127C133.869 92.7449 133.336 89.8482 132.82 87.0473C132.451 85.0425 132.102 83.149 132.406 81.6133C132.692 80.1643 133.713 78.5921 134.793 76.928ZM131.402 74.7262C130.161 76.6385 128.877 78.6158 128.439 80.8286C127.985 83.1221 128.422 85.4896 128.843 87.7796C129.272 90.1046 129.676 92.3007 129.028 93.864C128.359 95.4787 126.495 96.7582 124.52 98.1132C122.624 99.415 120.662 100.761 119.389 102.663C118.103 104.584 117.602 106.925 117.117 109.189C116.619 111.516 116.149 113.714 114.931 114.931C113.714 116.149 111.516 116.619 109.189 117.117C106.925 117.602 104.584 118.103 102.663 119.389C100.761 120.662 99.4147 122.624 98.1129 124.52C96.7582 126.494 95.4787 128.359 93.8637 129.028C92.3015 129.676 90.1048 129.272 87.7793 128.843C85.4897 128.421 83.1221 127.985 80.8286 128.439C78.6155 128.877 76.6382 130.16 74.7262 131.402C72.7025 132.716 70.791 133.957 69 133.957C67.209 133.957 65.2977 132.716 63.2738 131.402C61.3618 130.161 59.3845 128.877 57.1714 128.439C56.4811 128.303 55.7843 128.247 55.0852 128.247C53.4604 128.247 51.8214 128.549 50.2204 128.843C47.8952 129.272 45.6985 129.676 44.136 129.028C42.5213 128.359 41.2418 126.494 39.8868 124.52C38.585 122.624 37.2387 120.662 35.3372 119.389C33.4157 118.103 31.0748 117.602 28.8105 117.117C26.4836 116.619 24.2856 116.149 23.0681 114.931C21.8506 113.714 21.3803 111.516 20.8825 109.189C20.3981 106.925 19.8971 104.584 18.6109 102.663C17.3376 100.761 15.3762 99.415 13.4793 98.1129C11.5055 96.7582 9.64113 95.4785 8.97162 93.864C8.32339 92.3007 8.72796 90.1046 9.15625 87.7796C9.57806 85.4896 10.0144 83.1221 9.56054 80.8286C9.12282 78.6158 7.83905 76.6382 6.59759 74.7262C5.28416 72.7025 4.04297 70.791 4.04297 69C4.04297 67.209 5.28389 65.2975 6.59786 63.2738C7.83932 61.3615 9.12309 59.3842 9.56081 57.1714C10.0144 54.8779 9.57833 52.5103 9.15652 50.2204C8.72823 47.8954 8.32366 45.6993 8.97189 44.136C9.6414 42.5213 11.5058 41.2418 13.4798 39.8868C15.3768 38.585 17.3379 37.2387 18.6111 35.3372C19.8973 33.4159 20.3984 31.0748 20.8827 28.8107C21.3808 26.4839 21.8512 24.2858 23.0686 23.0684C24.2864 21.8509 26.4841 21.3806 28.811 20.8825C31.0748 20.3981 33.4162 19.8971 35.3377 18.6106C37.2392 17.3376 38.5853 15.3762 39.8871 13.4795C41.2418 11.5055 42.5215 9.64113 44.1366 8.97162C45.6988 8.32366 47.8954 8.72796 50.2207 9.15652C52.5103 9.57833 54.8782 10.0144 57.1716 9.56081C59.3847 9.12309 61.362 7.83932 63.2741 6.59786C65.2974 5.28389 67.2087 4.04297 69 4.04297C70.7913 4.04297 72.7026 5.28389 74.7265 6.59786C76.6385 7.83932 78.6158 9.12309 80.8289 9.56081C83.1226 10.0144 85.4899 9.57806 87.7799 9.15652C90.1046 8.72823 92.301 8.32366 93.8643 8.97162C95.4787 9.64113 96.7585 11.5055 98.1134 13.4795C99.4153 15.3765 100.761 17.3379 102.663 18.6111C104.585 19.8973 106.925 20.3984 109.19 20.883C111.517 21.3808 113.714 21.8512 114.932 23.0686C116.15 24.2864 116.62 26.4841 117.118 28.811C117.602 31.0748 118.103 33.4159 119.389 35.3372C120.663 37.239 122.624 38.585 124.521 39.8871C126.495 41.2418 128.359 42.5215 129.029 44.136C129.677 45.6993 129.272 47.8954 128.844 50.2204C128.422 52.5101 127.986 54.8779 128.439 57.1714C128.877 59.3842 130.161 61.3618 131.402 63.2738C132.716 65.2975 133.957 67.209 133.957 69C133.957 70.791 132.716 72.7025 131.402 74.7262Z" fill="#1E4793"/>
<path d="M104.286 105.389C94.7796 114.61 82.2477 119.688 69.0003 119.688C41.051 119.688 18.3125 96.9496 18.3125 69.0003C18.3125 60.8359 20.1936 53.0422 23.9031 45.8354C27.4431 38.9581 32.6068 32.881 38.836 28.2607C39.7327 27.5955 39.9203 26.3295 39.2556 25.4327C38.5904 24.5357 37.3244 24.3481 36.4277 25.0133C29.7042 30.0002 24.1301 36.5603 20.3084 43.9851C16.3013 51.7697 14.2695 60.1861 14.2695 69.0003C14.2695 99.1789 38.8217 123.731 69.0003 123.731C83.3046 123.731 96.8356 118.248 107.101 108.291C107.903 107.514 107.922 106.234 107.145 105.433C106.368 104.631 105.088 104.612 104.286 105.389Z" fill="#1E4793"/>
<path d="M68.9996 14.2695C60.543 14.2695 52.4336 16.1468 44.8973 19.8494C43.8951 20.3415 43.482 21.5531 43.9741 22.5552C44.4663 23.557 45.6773 23.9702 46.6797 23.4781C53.6568 20.0504 61.1662 18.3125 68.9996 18.3125C96.9489 18.3125 119.688 41.051 119.688 69.0003C119.688 79.367 116.58 89.3337 110.701 97.8231C110.065 98.7409 110.294 100 111.212 100.636C111.563 100.879 111.964 100.996 112.361 100.996C113.002 100.996 113.632 100.691 114.025 100.125C120.374 90.9563 123.731 80.1936 123.731 69.0003C123.73 38.8217 99.1784 14.2695 68.9996 14.2695Z" fill="#1E4793"/>
</svg>
