<svg width="138" height="138" viewBox="0 0 138 138" fill="none" xmlns="http://www.w3.org/2000/svg">
<path d="M25.437 44.2053C25.9499 45.0791 27.0304 45.4382 27.9644 45.0449C32.852 42.9881 38.047 41.9623 43.3913 42.0043C48.6916 42.0431 53.8361 43.1407 58.682 45.2673C58.9456 45.3826 59.2211 45.4379 59.4933 45.4379C60.1911 45.4379 60.8642 45.0754 61.2377 44.4395L68.3428 32.3389C70.9112 27.965 69.2361 24.0813 68.3965 22.6143C67.5566 21.1477 65.0556 17.7368 59.9839 17.7368H26.8283C21.7563 17.7368 19.2553 21.1477 18.4151 22.6151C17.5761 24.0816 15.9015 27.9655 18.4688 32.3387L25.437 44.2053ZM21.9242 24.6233C22.5322 23.5614 23.978 21.7798 26.8283 21.7798H59.9841C62.8342 21.7798 64.2799 23.5614 64.888 24.6231C65.4958 25.685 66.2998 27.8337 64.8565 30.2919L58.6421 40.8753C53.7822 38.9791 48.6706 37.9999 43.4206 37.9614C43.312 37.9606 43.2037 37.9603 43.095 37.9603C37.9063 37.9603 32.8537 38.8686 28.0458 40.664L21.9554 30.2916C20.5124 27.8337 21.3166 25.6848 21.9242 24.6233Z" fill="#00C2A9"/>
<path d="M127.814 86.831C125.256 86.831 122.917 87.7808 121.126 89.3435C119.757 85.3326 115.953 82.4387 111.484 82.4387C108.762 82.4387 106.204 83.4982 104.281 85.4213C102.357 87.3447 101.298 89.9028 101.298 92.6243V99.6491H81.9857C84.7951 93.7771 86.2476 87.3059 86.1988 80.7366C86.1177 69.7168 81.8925 59.3461 74.2661 51.3604L81.0532 39.8007C85.543 32.1522 85.5937 22.9909 81.1882 15.2941C76.7808 7.59578 68.8542 3 59.9844 3H26.8291C17.9594 3 10.0328 7.59605 5.62512 15.2947C1.29591 22.8601 1.27515 31.8967 5.5704 39.4676C6.12105 40.4387 7.35443 40.7791 8.32636 40.2285C9.29748 39.6775 9.6379 38.4436 9.08698 37.4728C5.50356 31.1563 5.52135 23.6162 9.13414 17.3029C12.8122 10.8784 19.427 7.0427 26.8291 7.0427H59.9842C67.3863 7.0427 74.0011 10.8781 77.6792 17.3024C81.3556 23.7256 81.313 31.3709 77.5662 37.7536L69.9924 50.6534C69.5215 51.4553 69.6587 52.4749 70.3242 53.1242C77.8767 60.4894 82.0787 70.306 82.1555 80.7662C82.2046 87.3792 80.5804 93.8819 77.4525 99.6491H71.519V92.6243C71.519 87.0078 66.9497 82.4381 61.3329 82.4381C56.8638 82.4381 53.0605 85.3324 51.6918 89.3441C49.9007 87.7811 47.5618 86.831 45.0036 86.831C39.3869 86.831 34.8175 91.4006 34.8175 97.0171V113.087H24.4195C21.8105 113.087 19.2868 112.131 17.3133 110.394C8.87971 102.976 4.04297 92.283 4.04297 81.0587C4.04297 70.2383 8.36895 60.1754 16.2236 52.7231C16.9058 52.076 17.0516 51.0437 16.5754 50.2329L13.1415 44.3868C12.5755 43.4238 11.3373 43.1019 10.3745 43.6677C9.41203 44.2332 9.08994 45.4719 9.65542 46.4344L12.2909 50.9213C4.35239 59.0178 0 69.6575 0 81.0587C0 93.445 5.33699 105.244 14.6426 113.43C17.3546 115.816 20.8267 117.13 24.4193 117.13H34.8172V120.956C34.8172 126.572 39.3866 131.142 45.0034 131.142C47.5615 131.142 49.9005 130.192 51.6915 128.629C53.0602 132.64 56.8635 135.534 61.3326 135.534C66.9494 135.534 71.5188 130.965 71.5188 125.348V118.324H101.298V125.348C101.298 125.522 101.302 125.695 101.313 125.869C101.381 126.983 102.341 127.833 103.455 127.762C104.569 127.693 105.417 126.734 105.348 125.62C105.342 125.529 105.341 125.439 105.341 125.348V92.6243C105.341 90.9828 105.98 89.4403 107.14 88.2802C108.3 87.1204 109.842 86.4817 111.484 86.4817C114.872 86.4817 117.629 89.2373 117.629 92.6243V125.348C117.629 128.735 114.872 131.491 111.484 131.491C110.438 131.491 109.406 131.223 108.497 130.717C107.522 130.173 106.291 130.523 105.748 131.498C105.204 132.474 105.554 133.705 106.529 134.249C108.038 135.089 109.751 135.534 111.484 135.534C115.953 135.534 119.757 132.64 121.126 128.629C122.917 130.192 125.256 131.142 127.814 131.142C133.431 131.142 138 126.572 138 120.956V97.0174C138 91.4006 133.431 86.831 127.814 86.831ZM45.0036 127.099C41.6164 127.099 38.8605 124.343 38.8605 120.956V115.119C38.8605 115.116 38.861 115.112 38.861 115.109C38.861 115.105 38.8605 115.102 38.8605 115.098V97.0171C38.8605 93.6299 41.6164 90.8739 45.0036 90.8739C48.3908 90.8739 51.1468 93.6299 51.1468 97.0171V120.956C51.1468 124.343 48.3908 127.099 45.0036 127.099ZM67.4761 125.349C67.4761 128.736 64.7201 131.492 61.3329 131.492C57.9457 131.492 55.1898 128.736 55.1898 125.349V92.6243C55.1898 89.2371 57.9457 86.4811 61.3329 86.4811C64.7201 86.4811 67.4761 89.2371 67.4761 92.6243V125.349ZM71.519 114.281V103.692H101.298V114.281H71.519ZM133.957 120.956C133.957 124.343 131.201 127.099 127.814 127.099C124.44 127.099 121.694 124.365 121.672 120.997V96.9759C121.694 93.6075 124.44 90.8742 127.814 90.8742C131.201 90.8742 133.957 93.6302 133.957 97.0174V120.956Z" fill="#00C2A9"/>
</svg>
