<svg width="138" height="138" viewBox="0 0 138 138" fill="none" xmlns="http://www.w3.org/2000/svg">
<path d="M111.277 28.36C111.405 28.384 111.531 28.3956 111.656 28.3956C112.608 28.3956 113.456 27.7198 113.64 26.7501C115.237 18.3186 117.185 12.3253 118.539 8.78202C120.005 4.94604 121.107 3.07792 121.116 3.0631C121.692 2.10626 121.382 0.864527 120.425 0.289347C119.469 -0.286103 118.226 0.0235889 117.651 0.980426C117.458 1.30225 112.876 9.05882 109.668 25.9975C109.46 27.0943 110.18 28.1522 111.277 28.36Z" fill="#00C2A9"/>
<path d="M120.766 102.291C115.799 90.0343 110.664 77.3602 110.664 61.5473C110.664 52.5037 111.179 43.8881 112.195 35.9396C112.337 34.8321 111.554 33.8198 110.446 33.678C109.338 33.5373 108.326 34.3195 108.185 35.4267C107.147 43.5447 106.621 52.3328 106.621 61.5473C106.621 78.1485 111.907 91.1936 117.019 103.809C118.838 108.298 120.614 112.682 122.069 117.076H105.19C104.073 117.076 103.168 117.981 103.168 119.097C103.168 120.214 104.073 121.119 105.19 121.119H123.308C123.69 122.489 124.033 123.862 124.33 125.244H109.202C103.964 125.244 99.1807 127.895 96.4051 132.336L94.7987 134.907C94.207 135.854 94.4949 137.101 95.4418 137.692C95.7746 137.9 96.145 138 96.5113 138C97.1851 138 97.8438 137.663 98.2274 137.05L99.8338 134.479C101.866 131.228 105.368 129.287 109.202 129.287H125.048C125.356 131.486 125.529 133.712 125.529 135.978C125.529 137.095 126.434 138 127.55 138C128.667 138 129.572 137.095 129.572 135.978C129.572 124.021 125.295 113.466 120.766 102.291Z" fill="#00C2A9"/>
<path d="M27.9078 61.5475C27.9078 69.3736 26.6809 76.9852 24.0468 85.5021C23.7169 86.5687 24.3142 87.7007 25.3807 88.0306C25.5793 88.0923 25.7807 88.1214 25.9785 88.1214C26.8416 88.1214 27.6407 87.5646 27.9092 86.6967C30.6665 77.7819 31.9508 69.7909 31.9508 61.5478C31.9508 19.8167 21.3714 1.73038 20.921 0.980814C20.3456 0.0237072 19.1033 -0.285176 18.147 0.289465C17.1902 0.864646 16.8805 2.10638 17.4557 3.06348C17.5602 3.23679 27.9078 20.9275 27.9078 61.5475Z" fill="#00C2A9"/>
<path d="M42.1667 132.337C39.3908 127.896 34.6071 125.244 29.3701 125.244H14.2421C14.5381 123.863 14.8812 122.489 15.2639 121.119H95.7565C96.8732 121.119 97.778 120.214 97.778 119.098C97.778 117.981 96.8732 117.076 95.7565 117.076H16.5024C17.9579 112.683 19.733 108.298 21.5515 103.81C22.6138 101.188 23.7126 98.4763 24.7617 95.7247C25.1595 94.6816 24.6361 93.5135 23.593 93.1156C22.5499 92.7178 21.3817 93.2412 20.9839 94.2843C19.9497 96.9966 18.8589 99.6887 17.8042 102.292C13.2767 113.467 9 124.022 9 135.978C9 137.095 9.90482 138 11.0215 138C12.1382 138 13.043 137.095 13.043 135.978C13.043 133.712 13.2155 131.487 13.5233 129.287H29.3701C33.2042 129.287 36.7062 131.228 38.7382 134.48L40.3446 137.05C40.7282 137.664 41.3869 138 42.0607 138C42.4265 138 42.7971 137.901 43.1302 137.693C44.0771 137.101 44.365 135.854 43.7733 134.907L42.1667 132.337Z" fill="#00C2A9"/>
<path d="M69.2861 79.6244C70.4028 79.6244 71.3076 78.7196 71.3076 77.6029V19.6475C71.3076 18.5308 70.4028 17.626 69.2861 17.626C68.1695 17.626 67.2646 18.5308 67.2646 19.6475V77.6029C67.2646 78.7193 68.1695 79.6244 69.2861 79.6244Z" fill="#00C2A9"/>
<path d="M75.1303 92.5684C75.3642 92.5684 75.6014 92.5277 75.8311 92.4426L98.2989 84.1343C98.9652 83.8879 99.4534 83.3095 99.5846 82.6114C99.7156 81.9131 99.4706 81.1974 98.9391 80.726L94.2034 76.5265L101.988 67.7478C102.603 67.0543 102.667 66.0312 102.144 65.2657C101.621 64.5005 100.644 64.1884 99.7741 64.5108L77.3062 72.8191C76.6399 73.0654 76.1518 73.6438 76.0205 74.3419C75.8896 75.0403 76.1346 75.7559 76.6661 76.2273L81.4017 80.4269L73.6174 89.2055C73.0023 89.899 72.9379 90.9221 73.4611 91.6876C73.8462 92.2509 74.4772 92.5684 75.1303 92.5684ZM93.6113 71.1L89.8367 75.3567C89.481 75.7578 89.2993 76.2836 89.3314 76.8189C89.3634 77.3539 89.6068 77.8547 90.0082 78.2102L93.732 81.5125L81.9931 85.8533L85.7676 81.5966C86.1234 81.1956 86.3051 80.6697 86.273 80.1344C86.2409 79.5991 85.9975 79.0986 85.5962 78.7431L81.8724 75.4408L93.6113 71.1Z" fill="#00C2A9"/>
<path d="M44.3693 76.5265L39.6336 80.7261C39.1018 81.1975 38.8568 81.9131 38.9878 82.6115C39.1188 83.3098 39.6072 83.8879 40.2735 84.1343L62.7414 92.4426C62.971 92.5275 63.2077 92.5685 63.4422 92.5685C64.0952 92.5685 64.7262 92.251 65.1114 91.6876C65.6345 90.9222 65.5701 89.899 64.955 89.2055L57.1707 80.4269L61.9064 76.2273C62.4382 75.7559 62.6832 75.0403 62.5519 74.342C62.4206 73.6436 61.9325 73.0655 61.2662 72.8191L38.7984 64.5108C37.9286 64.1884 36.9515 64.5003 36.4284 65.2657C35.9052 66.0312 35.9696 67.0544 36.5847 67.7479L44.3693 76.5265ZM48.7354 75.3567L44.9609 71.1L56.6998 75.4408L52.976 78.7431C52.5749 79.0986 52.3313 79.5994 52.2992 80.1345C52.2671 80.6695 52.4488 81.1953 52.8046 81.5967L56.5791 85.8534L44.8402 81.5126L48.564 78.2103C48.9651 77.8548 49.2087 77.354 49.2408 76.8189C49.2729 76.2837 49.0915 75.7578 48.7354 75.3567Z" fill="#00C2A9"/>
<path d="M93.1497 98.9885C93.1521 98.9891 93.1548 98.9896 93.1575 98.9902C94.2464 99.2381 95.3294 98.5559 95.5766 97.4668C95.824 96.3781 95.1418 95.2949 94.0532 95.0477C92.2284 94.6337 91.0323 95.5038 90.3169 96.0237C90.1735 96.128 89.963 96.2811 89.8617 96.3291C89.8593 96.3285 89.8566 96.328 89.8539 96.3275C89.8512 96.3266 89.8488 96.3261 89.8466 96.3256C89.776 96.2385 89.6525 96.0097 89.5684 95.8539C89.148 95.0757 88.4445 93.7734 86.6206 93.3594C84.7975 92.9451 83.5999 93.8154 82.8849 94.3356C82.7415 94.4399 82.531 94.593 82.4294 94.641C82.4269 94.6404 82.4242 94.6399 82.4215 94.6394C81.3332 94.3914 80.2499 95.0744 80.0028 96.163C79.7556 97.2517 80.4375 98.3346 81.5264 98.5818C83.3487 98.9955 84.5471 98.1255 85.2624 97.6056C85.4058 97.5013 85.6163 97.3482 85.7176 97.3002C85.7201 97.3007 85.7228 97.3013 85.7252 97.3018C85.7279 97.3026 85.7306 97.3031 85.7325 97.3037C85.8034 97.3907 85.9268 97.6196 86.0109 97.7756C86.4314 98.5535 87.1348 99.8559 88.9585 100.27C89.2911 100.345 89.6032 100.378 89.8948 100.378C91.2031 100.378 92.1101 99.719 92.695 99.2939C92.8379 99.1893 93.0484 99.0365 93.1497 98.9885Z" fill="#00C2A9"/>
<path d="M82.4398 111.62C83.7624 112.943 85.2389 112.844 86.1216 112.786C86.2984 112.774 86.5585 112.757 86.6695 112.77C86.6714 112.772 86.6733 112.774 86.6752 112.776C87.0701 113.171 87.5873 113.368 88.1048 113.368C88.622 113.368 89.1395 113.171 89.5341 112.776C90.3238 111.987 90.3238 110.707 89.5344 109.918C88.2121 108.595 86.7358 108.693 85.8526 108.752C85.6758 108.764 85.4157 108.782 85.3046 108.768C85.3027 108.766 85.3008 108.764 85.299 108.762C85.2968 108.76 85.2949 108.758 85.2933 108.756C85.2798 108.645 85.2973 108.386 85.3092 108.209C85.3682 107.327 85.4669 105.85 84.1443 104.527C82.822 103.205 81.3449 103.304 80.463 103.363C80.2862 103.375 80.0275 103.392 79.9156 103.379C79.914 103.377 79.9124 103.376 79.9105 103.374C79.1208 102.584 77.841 102.584 77.0516 103.374C76.2621 104.163 76.2621 105.443 77.0516 106.233C78.3739 107.555 79.8515 107.456 80.7328 107.397C80.9099 107.385 81.1689 107.368 81.2805 107.381C81.2821 107.382 81.2838 107.384 81.2856 107.386C81.2878 107.388 81.2897 107.39 81.2913 107.392C81.3048 107.503 81.2873 107.763 81.2754 107.939C81.2161 108.822 81.1172 110.298 82.4398 111.62Z" fill="#00C2A9"/>
<path d="M52.5617 97.7758C52.6458 97.6198 52.7695 97.3909 52.8401 97.3039C52.8423 97.3033 52.845 97.3028 52.8471 97.302C52.8501 97.3015 52.8528 97.3009 52.8549 97.3004C52.9563 97.3484 53.1668 97.5015 53.3102 97.6058C54.0255 98.1262 55.2244 98.996 57.0461 98.582C58.1351 98.3348 58.817 97.2519 58.5698 96.1632C58.3227 95.0746 57.2391 94.3913 56.151 94.6396C56.1481 94.6401 56.1454 94.6406 56.1432 94.6412C56.0416 94.5932 55.8311 94.4401 55.6877 94.3358C54.9726 93.8156 53.7757 92.9448 51.9517 93.3596C50.1278 93.7736 49.4243 95.0759 49.0041 95.8541C48.92 96.0099 48.7963 96.2387 48.726 96.3258C48.7236 96.3263 48.7211 96.3271 48.7187 96.3276C48.7157 96.3282 48.713 96.3287 48.7109 96.3293C48.6095 96.2813 48.399 96.1282 48.2556 96.0239C47.5406 95.504 46.3436 94.6331 44.5194 95.0479C43.4308 95.2951 42.7486 96.3783 42.996 97.467C43.2432 98.5559 44.3267 99.2375 45.4151 98.9903C45.418 98.9898 45.4207 98.9893 45.4229 98.9887C45.5242 99.0367 45.7347 99.1895 45.8781 99.2941C46.463 99.7192 47.3697 100.378 48.678 100.378C48.9699 100.378 49.2818 100.346 49.6146 100.27C51.438 99.8561 52.1415 98.5537 52.5617 97.7758Z" fill="#00C2A9"/>
<path d="M57.2873 107.386C57.2892 107.384 57.2911 107.382 57.2927 107.381C57.4046 107.367 57.6633 107.385 57.8404 107.397C58.7218 107.456 60.1991 107.555 61.5216 106.233C62.3111 105.443 62.3111 104.163 61.5216 103.374C60.7319 102.584 59.4522 102.584 58.6627 103.374C58.6608 103.376 58.6592 103.377 58.6576 103.379C58.5455 103.392 58.287 103.375 58.1102 103.363C57.2286 103.304 55.7515 103.205 54.4287 104.527C53.1063 105.85 53.205 107.327 53.264 108.209C53.2759 108.386 53.2931 108.645 53.2799 108.756C53.2783 108.758 53.2761 108.76 53.2743 108.762C53.2721 108.764 53.2702 108.766 53.2686 108.768C53.1573 108.782 52.8974 108.764 52.7206 108.752C51.8385 108.693 50.3609 108.595 49.0388 109.918C48.2494 110.707 48.2494 111.987 49.0391 112.776C49.434 113.171 49.9512 113.368 50.4684 113.368C50.9859 113.368 51.5032 113.171 51.898 112.776L51.9037 112.77C52.015 112.756 52.2748 112.774 52.4516 112.786C53.3346 112.844 54.8111 112.943 56.1334 111.621C57.4558 110.298 57.3571 108.821 57.2981 107.939C57.2862 107.762 57.269 107.503 57.2822 107.391C57.2835 107.39 57.2854 107.388 57.2873 107.386Z" fill="#00C2A9"/>
</svg>
