<svg width="138" height="138" viewBox="0 0 138 138" fill="none" xmlns="http://www.w3.org/2000/svg">
<path d="M56.3664 72.548C54.0259 72.548 51.8265 71.3425 50.5725 69.3062L48.43 70.4981C46.7349 71.4404 44.7745 71.6667 42.9098 71.134C41.0452 70.6023 39.4986 69.3757 38.5563 67.6806C36.6106 64.182 37.8751 59.7526 41.3737 57.8069L43.511 56.6182L42.1992 54.2588C41.2821 52.6111 41.2126 50.6854 42.0075 48.9745C42.8025 47.2646 44.3196 46.077 46.1705 45.7138L59.9641 43.0153L69.5366 32.7226C70.8201 31.3423 72.631 30.6811 74.503 30.9074C76.375 31.1348 77.9743 32.2109 78.8902 33.8586L80.2021 36.218L82.3394 35.0294C85.8381 33.0847 90.2674 34.3482 92.2121 37.8468C93.1554 39.5419 93.3807 41.5023 92.849 43.367C92.3163 45.2326 91.0897 46.7782 89.3957 47.7205L87.252 48.9124C88.5207 51.4508 88.0912 54.503 86.1434 56.5972L74.9399 68.644C74.6451 68.9619 74.2566 69.1778 73.8313 69.261L57.6857 72.4195C57.2445 72.5059 56.8023 72.548 56.3664 72.548ZM51.3611 64.4652C52.0823 64.4652 52.7814 64.8463 53.1573 65.5212L54.0059 67.0468C54.5787 68.0775 55.7421 68.6177 56.8981 68.3913L72.3878 65.3601L83.1364 53.8018C83.9398 52.9385 84.0945 51.6666 83.5218 50.6359L82.6732 49.1103C82.4078 48.6344 82.3436 48.0732 82.4931 47.55C82.6426 47.0256 82.9932 46.5834 83.4691 46.3192L87.3994 44.1334C88.1364 43.7239 88.6702 43.0521 88.9008 42.2414C89.1325 41.4307 89.0335 40.5779 88.6239 39.842C87.7785 38.3217 85.8539 37.7721 84.3325 38.6175L80.4021 40.8032C79.4114 41.3539 78.1617 40.997 77.611 40.0062L75.3021 35.8538C75.0315 35.3673 74.5598 35.0494 74.0071 34.983C73.4554 34.9146 72.9205 35.1104 72.5415 35.5189L62.5162 46.2992C62.2203 46.6171 61.8329 46.833 61.4065 46.9161L46.9581 49.7431C46.4117 49.8505 45.9642 50.2 45.7294 50.7054C45.4957 51.2097 45.5157 51.7782 45.7863 52.2647L48.0952 56.4182C48.3594 56.893 48.4247 57.4553 48.2752 57.9785C48.1257 58.5018 47.7741 58.944 47.2992 59.2093L43.3678 61.394C41.8475 62.2405 41.2979 64.1651 42.1434 65.6865C42.5529 66.4225 43.2246 66.9563 44.0353 67.1868C44.8461 67.4185 45.6978 67.3205 46.4348 66.911L50.3662 64.7252C50.682 64.5494 51.0242 64.4652 51.3611 64.4652Z" fill="#00C2A9"/>
<path d="M32.2618 46.7983C30.2646 46.7983 28.3368 45.9665 26.9733 44.5157C25.6457 43.1038 24.9445 41.2581 25.0034 39.3198C25.0624 37.3815 25.872 35.5822 27.2839 34.2535L29.0654 32.5773L27.2134 30.6127C25.9205 29.2376 25.3814 27.3867 25.7331 25.5347C26.0837 23.6828 27.2618 22.1593 28.9653 21.3538L41.6776 15.3525L48.4338 3.02567C49.3371 1.37269 50.929 0.28719 52.801 0.0481909C54.673 -0.189755 56.4881 0.460912 57.7789 1.83489L59.6288 3.79847L61.4081 2.12232C62.7579 0.849416 64.5257 0.148212 66.3839 0.148212C68.3823 0.148212 70.3101 0.981024 71.6735 2.43186C74.4162 5.34723 74.2783 9.95243 71.3619 12.6962L69.5773 14.3765C70.4364 15.3736 70.9828 16.5823 71.1629 17.8899C71.3166 19.0133 70.5312 20.0483 69.4088 20.202C68.2865 20.3589 67.2505 19.5713 67.0957 18.4479C67.0188 17.8899 66.7735 17.3751 66.3839 16.9613L65.1868 15.6884C64.4109 14.863 64.4509 13.5648 65.2763 12.7888L68.5486 9.70712C69.1635 9.1291 69.5151 8.34577 69.5415 7.50348C69.5667 6.6612 69.2614 5.85892 68.6834 5.24405C68.0822 4.60496 67.2662 4.25331 66.3839 4.25331C65.5764 4.25331 64.8089 4.55653 64.2235 5.10928L60.9501 8.19311C60.5543 8.56687 60.0268 8.76797 59.4825 8.75112C58.9381 8.73533 58.4222 8.5037 58.0495 8.10677L54.7899 4.64813C54.4077 4.24067 53.8718 4.04905 53.3211 4.1196C52.7694 4.19014 52.3009 4.51021 52.0345 4.99663L44.9562 17.9099C44.7477 18.29 44.4245 18.5943 44.0328 18.7796L30.7194 25.0652C30.2172 25.3031 29.8698 25.7527 29.7666 26.2991C29.6623 26.8466 29.8213 27.3941 30.2035 27.7994L33.4611 31.257C33.8338 31.6529 34.0349 32.1814 34.0191 32.7258C34.0022 33.2701 33.7706 33.7849 33.3737 34.1587L30.0982 37.2425C29.4844 37.8195 29.1328 38.6018 29.1075 39.4441C29.0812 40.2863 29.3865 41.0886 29.9645 41.7024C30.5646 42.3415 31.3806 42.6932 32.2629 42.6932C33.0704 42.6932 33.838 42.39 34.4234 41.8383L37.6999 38.7534C38.0968 38.3796 38.6169 38.1785 39.1697 38.1954C39.714 38.2122 40.2299 38.4449 40.6026 38.8418L41.7986 40.1137C42.6051 40.9707 43.8643 41.2097 44.9298 40.7064L59.2056 33.966L64.2372 24.7788C64.7825 23.7849 66.0291 23.4206 67.0241 23.9649C68.018 24.5093 68.3823 25.7569 67.8379 26.7508L62.4852 36.5234C62.2767 36.9035 61.9535 37.2078 61.5608 37.3931L46.6818 44.4178C44.097 45.6391 41.0585 45.1232 39.0233 43.1449L37.2387 44.8252C35.8889 46.0981 34.1212 46.7983 32.2618 46.7983Z" fill="#00C2A9"/>
<path d="M77.4186 104.379C77.3555 104.379 77.2923 104.376 77.2291 104.37L60.8477 102.854C57.9997 102.588 55.6455 100.598 54.9001 97.8616L52.508 98.4007C51.9858 98.5197 51.4457 98.5797 50.9066 98.5797C47.4932 98.5797 44.5831 96.2507 43.8282 92.9174C43.4018 91.0244 43.7377 89.0787 44.7737 87.4394C45.8108 85.8001 47.4227 84.6619 49.3147 84.2355L51.6983 83.6975L51.1045 81.0664C50.6897 79.226 51.1656 77.3583 52.409 75.9411C53.6535 74.524 55.4476 73.8112 57.3238 73.9838L61.6447 74.3839C62.7744 74.4882 63.6041 75.4873 63.4998 76.616C63.3956 77.7457 62.3943 78.5743 61.2678 78.4711L56.9458 78.0721C56.3888 78.0205 55.8614 78.2311 55.4939 78.6501C55.1265 79.0681 54.9864 79.6198 55.1096 80.1631L56.154 84.7956C56.4036 85.9011 55.7097 87.0003 54.6042 87.2499L50.218 88.2406C49.3947 88.4259 48.6945 88.9197 48.2439 89.6325C47.7933 90.3453 47.6469 91.1907 47.8323 92.0119C48.1555 93.4386 49.4484 94.4746 50.9066 94.4746C51.1435 94.4746 51.372 94.4493 51.6015 94.3967L55.994 93.4059C56.5257 93.2859 57.0827 93.3817 57.5428 93.6734C58.0029 93.965 58.3293 94.4272 58.4482 94.9578L58.8304 96.6635C59.0894 97.8111 60.0538 98.6565 61.2278 98.766L76.9438 100.221L90.513 92.1604C91.5269 91.5571 92.0355 90.38 91.7765 89.2313L91.3901 87.5278C91.27 86.9961 91.3659 86.4392 91.6575 85.9791C91.9481 85.5179 92.4103 85.1915 92.942 85.0725L97.3313 84.0839C99.0265 83.7007 100.096 82.0077 99.7119 80.3105C99.3907 78.8838 98.0989 77.8499 96.6407 77.8499C96.4048 77.8499 96.17 77.8763 95.9426 77.9268L91.5522 78.9165C90.4478 79.165 89.3486 78.4711 89.099 77.3656L88.0536 72.7299C87.9314 72.1877 87.5682 71.7507 87.0576 71.5307C86.5469 71.3106 85.9784 71.3475 85.4993 71.6318L72.8429 79.1513C72.4702 79.3734 72.0375 79.4713 71.6069 79.4313L69.439 79.2313C68.3104 79.1271 67.4796 78.1279 67.5839 76.9992C67.6881 75.8706 68.6873 75.042 69.8159 75.1441L71.3194 75.282L83.4031 68.1026C85.0255 67.1392 86.9491 67.0139 88.6811 67.7604C90.412 68.5058 91.6428 69.9872 92.0576 71.8265L92.6524 74.4608L95.0372 73.9238C95.5583 73.8049 96.0995 73.7448 96.6396 73.7448C100.055 73.7448 102.965 76.0738 103.716 79.4071C104.598 83.3101 102.139 87.2046 98.2337 88.089L95.8405 88.627C96.3417 91.4192 95.0688 94.2261 92.6103 95.6885L78.4662 104.09C78.1483 104.28 77.7861 104.379 77.4186 104.379Z" fill="#00C2A9"/>
<path d="M73.9852 138C73.7714 138 73.5566 137.966 73.3513 137.9L57.7048 132.814C54.9853 131.931 53.127 129.472 53.0017 126.637H50.5496C46.5466 126.637 43.2891 123.38 43.2891 119.377C43.2891 115.374 46.5466 112.116 50.5496 112.116H52.9954V109.417C52.9954 107.531 53.8703 105.814 55.3959 104.705C56.9215 103.597 58.824 103.295 60.6181 103.879L73.9852 108.223L87.3533 103.879C89.1463 103.295 91.0499 103.597 92.5755 104.705C94.1011 105.814 94.976 107.531 94.976 109.417V112.116H97.4207C101.425 112.116 104.681 115.374 104.681 119.377C104.681 123.38 101.425 126.637 97.4207 126.637H94.9697C94.8433 129.472 92.985 131.931 90.2655 132.814L74.62 137.9C74.4137 137.966 74.1989 138 73.9852 138ZM50.5496 116.221C48.8092 116.221 47.3942 117.636 47.3942 119.377C47.3942 121.116 48.8092 122.532 50.5496 122.532H55.0474C56.1813 122.532 57.0994 123.451 57.0994 124.584V126.331C57.0994 127.509 57.8533 128.546 58.9746 128.91L73.9852 133.789L88.9968 128.91C90.1181 128.546 90.8709 127.509 90.8709 126.331V124.584C90.8709 123.451 91.7901 122.532 92.924 122.532H97.4218C99.1611 122.532 100.577 121.116 100.577 119.377C100.577 117.636 99.1611 116.221 97.4218 116.221H92.924C91.7901 116.221 90.8709 115.302 90.8709 114.168V109.417C90.8709 108.86 90.613 108.353 90.1623 108.026C89.7128 107.7 89.1505 107.61 88.622 107.783L74.62 112.333C74.2073 112.467 73.7641 112.467 73.3513 112.333L59.3494 107.783C58.8198 107.61 58.2586 107.7 57.808 108.026C57.3584 108.353 57.0994 108.86 57.0994 109.417V114.168C57.0994 115.302 56.1813 116.221 55.0474 116.221H50.5496Z" fill="#00C2A9"/>
<path d="M99.4853 59.0715C98.6315 59.0715 97.8344 58.5346 97.5428 57.6807C97.1775 56.6078 97.7502 55.4413 98.8231 55.0749L109.286 51.5057C110.358 51.1404 111.525 51.7131 111.891 52.786C112.258 53.8588 111.684 55.0254 110.612 55.3907L100.149 58.961C99.9286 59.0357 99.7054 59.0715 99.4853 59.0715Z" fill="#00C2A9"/>
<path d="M96.8384 51.3079C96.2899 51.3079 95.7435 51.0899 95.3402 50.6582C94.5643 49.8317 94.6064 48.5325 95.4339 47.7576L101.248 42.3091C102.075 41.5331 103.375 41.5763 104.149 42.4028C104.924 43.2303 104.882 44.5285 104.055 45.3045L98.2408 50.7519C97.845 51.1236 97.3406 51.3079 96.8384 51.3079Z" fill="#00C2A9"/>
<path d="M110.068 67.5921C110.003 67.5921 109.937 67.59 109.87 67.5827L101.939 66.8236C100.81 66.7151 99.9826 65.7138 100.091 64.5852C100.2 63.4565 101.201 62.63 102.329 62.7374L110.262 63.4965C111.39 63.605 112.217 64.6073 112.109 65.736C112.007 66.7972 111.115 67.5921 110.068 67.5921Z" fill="#00C2A9"/>
</svg>
