<svg width="138" height="138" viewBox="0 0 138 138" fill="none" xmlns="http://www.w3.org/2000/svg">
<path d="M135.059 30.6003C123.023 1.85181 83.6164 0.531152 69.0003 27.1243C57.727 6.61318 30.4441 1.99034 13.2408 16.5017C12.3872 17.2213 12.2791 18.4967 12.999 19.35C13.7187 20.2033 14.994 20.3114 15.8473 19.5917C32.1192 5.86688 57.8076 11.6152 66.6773 31.5318L49.3441 54.0266C46.2489 58.0131 48.3034 64.8811 57.4499 64.8806C60.682 64.8803 64.4222 64.0111 69.566 60.131L84.639 48.5149L96.3915 60.2181C97.1823 61.0059 98.4625 61.0032 99.25 60.2122C100.038 59.4211 100.035 58.1412 99.2441 57.3536L90.3725 48.5192C93.7669 48.623 98.2817 48.3036 103.125 46.6957C104.184 46.3439 104.758 45.1998 104.407 44.1403C104.055 43.0808 102.911 42.507 101.851 42.8587C96.1438 44.7535 89.6074 44.8704 85.2662 43.8649C84.653 43.7231 84.0393 43.8743 83.5755 44.2309C70.4487 54.115 64.9337 59.4847 60.1907 60.5359C56.8713 61.2714 53.889 60.5728 52.7683 59.5416C51.922 58.7627 51.8204 57.4294 52.5419 56.5003C71.83 31.4585 70.712 32.987 70.8743 32.5865C81.757 5.67012 119.981 5.05696 131.33 32.1614C136.539 44.6052 133.938 58.2635 124.551 67.7935L117.149 75.183L105.487 63.5699C104.696 62.7823 103.416 62.7845 102.629 63.5758C101.841 64.3668 101.843 65.6468 102.634 66.4343L118.03 81.7653C120.137 83.8719 120.137 87.2994 118.03 89.4062C115.924 91.5123 112.498 91.5125 110.391 89.4073L83.5089 62.4829C82.72 61.6929 81.4403 61.6921 80.6501 62.4807C79.8601 63.2696 79.859 64.5493 80.6479 65.3396L107.531 92.265C109.638 94.3716 109.638 97.7991 107.531 99.9057C105.42 102.016 102.004 102.018 99.8915 99.9071C99.8915 99.9071 99.8915 99.9071 99.8912 99.9068L73.0094 72.9827C72.2208 72.1924 70.9408 72.1919 70.1506 72.9805C69.3606 73.7694 69.3595 75.0491 70.1484 75.8393L97.0316 102.765C99.1379 104.871 99.1382 108.299 97.0316 110.405C94.9248 112.512 91.4973 112.512 89.3998 110.414L86.2467 107.222C85.9052 101.516 80.5568 97.3892 74.9492 98.5347C75.2327 92.5709 70.0598 87.9977 64.3896 88.6869C65.107 82.4733 59.7484 77.364 53.7038 78.2154C54.5558 69.6058 44.2498 64.342 37.8306 70.3987L26.6382 80.9591L13.4623 67.8062C1.61821 55.7812 1.39451 38.1968 10.2661 25.6762C10.9116 24.7652 10.6962 23.5036 9.78526 22.8581C8.87455 22.2128 7.61265 22.4276 6.96714 23.3389C-3.0119 37.423 -2.67176 57.1873 10.593 70.6548L23.7295 83.7689C18.0717 90.307 23.5109 100.491 32.1774 99.2942C31.5659 105.357 36.7062 110.349 42.7063 109.631C41.9497 116.046 47.6496 121.277 53.9585 120.008C53.5335 128.585 63.926 133.26 70.0444 127.181C83.1421 114.58 83.9954 114.6 85.2864 112.003L86.5313 113.264C92.8551 119.588 103.637 114.35 102.583 105.462C108.738 106.19 113.8 100.985 113.082 94.9573C121.944 96.0146 127.231 85.2491 120.885 78.9038L120.014 78.0356C123.81 73.4589 134.944 66.5449 137.51 51.0705C138.646 44.222 137.798 37.1435 135.059 30.6003ZM27.0535 93.7639C24.9534 91.6637 24.9469 88.2502 27.0347 86.142L40.6043 73.339C42.7437 71.3205 46.0483 71.3685 48.1282 73.4484C50.2828 75.6029 50.2313 79.1035 48.0158 81.1942L34.7368 93.7229C32.2707 96.0518 28.9954 95.7058 27.0535 93.7639ZM37.7538 104.08C35.7793 102.105 35.4974 98.7902 37.7816 96.4081C48.6805 86.1202 50.9084 84.0287 51.3043 83.6549C53.4437 81.6364 56.7484 81.6844 58.8283 83.7641C60.9782 85.9143 60.9356 89.4151 58.7159 91.5098C42.806 106.522 45.7812 103.693 45.3947 104.08C43.2879 106.186 39.8607 106.186 37.7538 104.08ZM67.2503 124.259C67.236 124.273 67.222 124.287 67.2082 124.3C65.0971 126.412 61.679 126.412 59.5673 124.3C57.4672 122.2 57.4607 118.787 59.5484 116.679L62.4035 113.985C63.2155 113.218 63.2527 111.939 62.4865 111.127C61.7205 110.315 60.4411 110.278 59.629 111.044L55.9037 114.575C53.7922 116.687 50.3747 116.687 48.263 114.575C46.2747 112.587 46.0198 109.26 48.2883 106.907C56.3974 99.2521 55.794 99.8313 61.8137 94.1503C63.9532 92.1316 67.2581 92.1799 69.3377 94.2595C71.4281 96.3502 71.4551 99.7235 69.3781 101.846L66.0649 104.972C65.2528 105.738 65.2157 107.017 65.9819 107.829C66.7482 108.642 68.0276 108.679 68.8394 107.912C68.8669 107.887 73.0884 103.904 73.118 103.875C75.2575 101.857 78.5621 101.905 80.642 103.985C82.8006 106.143 82.7408 109.644 80.5296 111.73L67.2503 124.259Z" fill="#00C2A9"/>
</svg>
