<svg width="130" height="130" viewBox="0 0 130 130" fill="none" xmlns="http://www.w3.org/2000/svg">
<path d="M120.558 33.8434C115.201 24.5466 107.515 16.6954 98.3322 11.1386C97.4536 10.6066 96.3097 10.8881 95.7773 11.7672C95.2453 12.6463 95.5268 13.79 96.4059 14.3218C98.4143 15.537 100.332 16.8539 102.156 18.2628C91.0791 23.7059 78.4691 26.5729 65.5 26.5729C52.546 26.5729 39.9504 23.7124 28.8826 18.2819C35.6056 13.0563 43.468 9.23016 52.0301 7.251C51.9219 7.60546 51.8629 7.97802 51.8629 8.37043C51.8629 12.7475 58.932 14.741 65.5 14.741C72.068 14.741 79.1371 12.7475 79.1371 8.37043C79.1371 7.97405 79.0773 7.59802 78.9672 7.24033C82.3625 8.02267 85.687 9.1054 88.9231 10.4853C89.8679 10.8881 90.9608 10.4486 91.3641 9.50376C91.7669 8.5587 91.3276 7.46581 90.3823 7.06273C82.7254 3.79769 74.6018 2.10179 66.2268 2.00877C65.7438 1.99712 65.2646 1.99712 64.7819 2.00853C48.0891 2.19258 32.4229 8.77475 20.5988 20.5986C8.60524 32.5925 2 48.5386 2 65.4998C2 66.8457 2.04291 68.2127 2.12774 69.5629C2.18976 70.5486 3.00831 71.3069 3.98264 71.3069C4.02183 71.3069 4.06127 71.3056 4.10096 71.3032C5.12638 71.2389 5.9055 70.3554 5.84125 69.3299C5.78147 68.3769 5.74377 67.4153 5.72864 66.46C20.0486 81.8504 42.0092 90.9135 65.5 90.9135C88.9871 90.9135 110.944 81.8536 125.264 66.4675C125.163 72.6892 124.094 78.7793 122.152 84.5451C108.378 99.0727 87.7615 107.399 65.5 107.399C43.2189 107.399 22.5849 99.0581 8.81037 84.5067C8.06499 82.2849 7.44264 80.0029 6.9597 77.6648C6.75183 76.6585 5.76709 76.0111 4.76151 76.2194C3.75518 76.4273 3.10803 77.4116 3.31614 78.4176C6.22771 92.5087 13.9831 105.336 25.1534 114.537C36.476 123.864 50.8047 129 65.5 129C75.5876 129 85.2344 126.702 94.1722 122.171C95.0885 121.706 95.4549 120.587 94.9903 119.67C94.5255 118.754 93.4058 118.388 92.4897 118.852C84.078 123.117 74.9975 125.279 65.5 125.279C42.7968 125.279 22.4262 112.316 12.3599 92.8817C18.0729 97.5837 24.6678 101.544 31.8066 104.516C42.3282 108.898 53.6644 111.119 65.4998 111.119C77.3351 111.119 88.6713 108.898 99.1932 104.516C106.321 101.548 112.907 97.5959 118.614 92.9036C114.219 101.418 107.787 108.882 99.7089 114.527C98.8665 115.115 98.6609 116.275 99.2495 117.117C99.6114 117.635 100.189 117.912 100.776 117.912C101.144 117.912 101.515 117.803 101.84 117.577C118.847 105.691 129 86.2232 129 65.4998C129 54.3744 126.081 43.4279 120.558 33.8434ZM121.602 44.7063C107.829 58.8767 87.4544 66.9869 65.5 66.9869C43.5672 66.9869 23.2107 58.8926 9.43744 44.7475C10.8272 41.0047 12.5829 37.4388 14.6588 34.0909C28.6134 44.6847 46.577 50.4992 65.5 50.4992C84.452 50.4992 102.442 44.6676 116.405 34.0428C118.488 37.4085 120.23 40.9779 121.602 44.7063ZM75.4137 8.37043C75.1815 9.17634 71.5878 11.0203 65.5 11.0203C59.4122 11.0203 55.8182 9.17659 55.5866 8.37043C55.8096 7.59504 59.1455 5.8597 64.8196 5.72923C65.2678 5.71931 65.7173 5.71906 66.1655 5.72873C71.8488 5.85648 75.1904 7.59429 75.4137 8.37043ZM25.7649 20.8797C37.693 27.0422 51.4005 30.2936 65.5 30.2936C79.6191 30.2936 93.3452 27.033 105.285 20.8536C108.709 23.887 111.742 27.2714 114.345 30.938C101 41.1647 83.7272 46.7788 65.5 46.7788C47.3008 46.7788 30.0534 41.1813 16.7176 30.9849C19.3447 27.2825 22.384 23.8937 25.7649 20.8797ZM65.5 87.1928C41.5739 87.1928 19.3529 77.4116 5.88987 60.9941C6.20712 56.7569 6.97086 52.6428 8.12899 48.6954C14.7305 55.0898 22.8813 60.3995 31.8899 64.1391C42.3895 68.4977 53.6974 70.7076 65.5002 70.7076C77.3031 70.7076 88.611 68.4975 99.1106 64.1391C108.133 60.3936 116.295 55.0732 122.902 48.6654C124.055 52.6394 124.801 56.7654 125.112 60.9916C111.649 77.4103 89.4268 87.1928 65.5 87.1928Z" fill="#00C2A9"/>
</svg>
