<svg width="138" height="138" viewBox="0 0 138 138" fill="none" xmlns="http://www.w3.org/2000/svg">
<path d="M132.282 71.7189H126.913H123.779C124.082 71.3246 124.363 70.9065 124.615 70.4629C126.496 67.1447 126.449 63.2098 124.502 59.9565L115.791 45.028C115.754 44.9638 115.713 44.9029 115.67 44.8444V10.6762C115.67 4.78931 110.88 0 104.994 0C102.466 0 100.41 2.05599 100.41 4.58339V26.3446C100.41 27.461 101.315 28.3661 102.432 28.3661C103.548 28.3661 104.453 27.461 104.453 26.3446V4.58339C104.453 4.28556 104.695 4.04298 104.994 4.04298C108.651 4.04298 111.627 7.01861 111.627 10.6762V48.7667C111.627 52.4242 108.651 55.3998 104.994 55.3998C104.696 55.3998 104.453 55.1575 104.453 54.8594V35.7793C104.453 34.6629 103.548 33.7578 102.432 33.7578C101.315 33.7578 100.41 34.6629 100.41 35.7793V54.8594C100.41 57.3866 102.466 59.4428 104.994 59.4428C106.51 59.4428 107.952 59.1231 109.259 58.5509L112.478 63.6332H106.475C103.131 63.6332 100.41 66.3539 100.41 69.6977C100.41 70.4063 100.534 71.0866 100.758 71.7192H95.2387V66.5021C95.2387 65.1647 94.6665 63.8869 93.6689 62.9963C92.6714 62.1055 91.3367 61.6807 90.0084 61.8319C90.0084 61.8319 72.571 63.8435 72.2829 63.9346L60.1941 62.6702C60.1526 62.6659 60.1181 62.6578 60.0769 62.6559C60.047 62.6149 60.0154 62.575 59.9828 62.5362C58.5279 60.8252 56.4945 58.4504 54.4121 56.0211C54.4259 55.9198 54.4345 55.8171 54.4326 55.7117L54.2617 46.2215C54.7644 46.2845 55.2706 46.3177 55.7787 46.3177C56.8819 46.3177 57.9923 46.1684 59.0847 45.867C62.2663 44.9892 64.9153 42.9248 66.544 40.0543L69.6574 34.5677C73.0198 28.6423 70.9344 21.086 65.0088 17.7239C62.1385 16.0951 58.8058 15.6814 55.6242 16.5595C52.4427 17.4374 49.7937 19.5017 48.1649 22.3722L45.0516 27.8588C44.2004 29.3588 43.6999 30.963 43.5206 32.5775C41.6611 33.3211 38.9356 34.5723 36.263 36.3919C30.1478 40.6219 25.4229 45.7414 22.2203 51.6078C21.7268 52.5118 21.27 53.4403 20.8436 54.3886V43.8083C20.8436 38.2662 16.3346 33.7572 10.7925 33.7572C7.26214 33.7572 4.39001 36.6294 4.39001 40.1597V57.5976C4.39001 58.714 5.2951 59.6191 6.4115 59.6191C7.5279 59.6191 8.43299 58.714 8.43299 57.5976V40.1597C8.43299 38.8587 9.49144 37.8002 10.7925 37.8002C14.1053 37.8002 16.8006 40.4955 16.8006 43.8083V71.6178C16.8006 74.9306 14.1053 77.626 10.7925 77.626H8.43299V67.0323C8.43299 65.9159 7.5279 65.0108 6.4115 65.0108C5.2951 65.0108 4.39001 65.9159 4.39001 67.0323V95.3644C4.39001 99.444 7.70903 102.763 11.7887 102.763H20.4522V123.058C20.4522 123.058 11.8539 123.062 11.7994 123.067C11.6903 123.062 11.5811 123.058 11.4709 123.058C7.35136 123.058 4 126.41 4 130.529C4 134.649 7.35163 138 11.4709 138C13.7398 138 15.7745 136.982 17.1459 135.38H36.0562C36.0643 135.38 36.0721 135.379 36.0799 135.379C37.4513 136.981 39.4863 138 41.756 138C43.9821 138 45.9828 137.02 47.3526 135.47C47.9534 136.961 49.4042 138 51.1071 138H53.9472C55.0954 138 56.1266 137.527 56.863 136.765C58.0621 137.558 59.482 138 60.9534 138H74.9491C78.0981 138 80.6597 135.438 80.6597 132.289C80.6597 130.07 79.3576 128.035 77.3423 127.105L68.1305 122.853L70.6404 90.467C70.9689 86.2264 68.4186 82.2174 64.4385 80.7178L59.8958 79.0062L60.0084 75.7392C61.2219 75.743 113.728 75.7619 113.728 75.7619L115.917 134.099C115.999 136.286 117.778 138 119.967 138H122.807C125.003 138 126.782 136.281 126.858 134.086L128.867 75.7616H132.283C133.399 75.7616 134.304 74.8565 134.304 73.7401C134.304 72.6237 133.398 71.7189 132.282 71.7189ZM90.4642 65.849C90.7181 65.8202 90.8941 65.9388 90.976 66.0118C91.058 66.0849 91.1954 66.2461 91.1954 66.5021V71.7192H83.1504C83.2421 71.4027 83.3092 71.0753 83.3448 70.737C83.4989 69.2699 83.0658 67.877 82.2416 66.7822L90.4642 65.849ZM48.5676 29.8541L51.681 24.3676C52.7766 22.4364 54.559 21.0475 56.6994 20.4569C57.4347 20.254 58.1813 20.1537 58.9238 20.1537C60.3432 20.1537 61.7453 20.5208 63.0134 21.2402C67.0001 23.5024 68.403 28.586 66.1408 32.5726L63.0275 38.0592C61.9318 39.9904 60.1494 41.3793 58.009 41.9699C55.869 42.5607 53.6267 42.2825 51.695 41.1866C47.7083 38.9244 46.3054 33.8405 48.5676 29.8541ZM38.5505 39.7255C40.3825 38.4781 42.2627 37.5248 43.7939 36.848C44.5678 40.0557 46.6103 42.9496 49.6999 44.7027C49.8703 44.7994 50.0441 44.8867 50.2174 44.9749C50.2061 45.0676 50.1988 45.1614 50.2004 45.2574L50.3083 51.2361C49.5342 50.3334 48.8191 49.4995 48.2064 48.7839C46.8138 47.1446 44.7683 46.1684 42.5943 46.1053C40.4267 46.0428 38.3268 46.8972 36.8516 48.4427C35.4277 49.9178 34.6633 51.859 34.6997 53.9088C34.7358 55.9586 35.5681 57.8717 37.043 59.2956L45.0869 67.056L41.5283 72.6429H20.88C21.3902 58.3698 27.1873 47.5856 38.5505 39.7255ZM41.7555 123.059C41.6452 123.059 41.5358 123.062 41.4269 123.067C41.3722 123.063 41.3175 123.059 41.2617 123.059H32.7741V102.763H41.4377C43.0797 102.763 44.5977 102.225 45.8265 101.316L46.713 124.947C45.3928 123.773 43.6565 123.059 41.7555 123.059ZM23.5243 87.9657C21.7896 85.8753 20.8401 83.2576 20.8406 80.5226L20.8417 76.7505L42.2722 76.6872L44.9403 77.6925L45.3683 89.101C44.2284 88.3832 42.8813 87.966 41.4377 87.966H23.5243V87.9657ZM48.9134 75.7619H55.9611L54.6105 114.967H50.3843L48.9134 75.7619ZM46.91 71.7189L48.056 69.9195C48.7601 70.5977 49.422 71.2351 49.9247 71.7189H46.91ZM10.7922 81.6692C13.0417 81.6692 15.1212 80.9261 16.7979 79.6728L16.7976 80.5218C16.7974 83.1506 17.4513 85.6982 18.6733 87.9657H11.7887C10.5809 87.9657 9.44104 88.2585 8.43299 88.7738V81.6689H10.7922V81.6692ZM8.43272 95.3644C8.43272 93.5141 9.93805 92.0087 11.7884 92.0087H41.4374C43.2878 92.0087 44.7931 93.5141 44.7931 95.3644C44.7931 97.2147 43.2878 98.7201 41.4374 98.7201H11.7887C9.93805 98.7203 8.43272 97.2147 8.43272 95.3644ZM24.4952 102.763H28.7312V123.059H24.4952V102.763ZM11.4706 133.957C9.58039 133.957 8.04271 132.42 8.04271 130.529C8.04271 128.639 9.58066 127.101 11.4706 127.101C13.3606 127.101 14.8985 128.639 14.8985 130.529C14.8985 132.42 13.3608 133.957 11.4706 133.957ZM18.897 131.337C18.9256 131.072 18.9415 130.802 18.9415 130.529C18.9415 129.294 18.6383 128.129 18.1051 127.101H22.4734H30.7524H35.1207C34.5875 128.129 34.2843 129.294 34.2843 130.529C34.2843 130.802 34.3 131.072 34.3288 131.337H18.897ZM41.7555 133.957C39.8652 133.957 38.3276 132.42 38.3276 130.529C38.3276 128.639 39.8655 127.101 41.7555 127.101C43.6454 127.101 45.1834 128.639 45.1834 130.529C45.1834 132.42 43.6457 133.957 41.7555 133.957ZM53.9566 133.948L53.9464 133.957L51.0961 133.948L50.5357 119.01H54.4712L53.9566 133.948ZM76.6159 132.29C76.6159 133.209 75.868 133.957 74.9483 133.957H60.9526C59.8664 133.957 58.84 133.428 58.2074 132.542C58.1605 132.476 58.1096 132.416 58.0568 132.357L58.2716 126.12H65.5613L75.6469 130.775C76.2356 131.047 76.6159 131.642 76.6159 132.29ZM63.0121 84.5012C65.3201 85.371 66.7993 87.6957 66.6087 90.1546L64.1347 122.077H58.4112L59.7481 83.271L63.0121 84.5012ZM64.3994 71.7054C62.5013 71.7022 60.3788 71.6987 59.1915 71.693C56.9498 71.6305 54.7221 70.7014 53.0877 69.1513C52.4076 68.4972 51.1505 67.2867 49.939 66.1194L39.8507 56.3869C39.1526 55.713 38.7588 54.8077 38.7416 53.8376C38.7243 52.8676 39.0863 51.9487 39.7679 51.2426C40.4612 50.5165 41.4466 50.1175 42.4767 50.1469C43.5077 50.1768 44.4729 50.6342 45.13 51.4078C46.0885 52.5269 47.2865 53.9236 48.5744 55.4252C51.4721 58.8032 54.7536 62.6287 56.8538 65.0981C57.5457 66.0223 58.6697 66.6274 59.8284 66.697L72.246 67.9956C72.2565 67.9972 72.2673 67.9975 72.2778 67.9988L77.928 68.5896C78.7883 68.6799 79.4147 69.4535 79.3242 70.3138C79.2417 71.0992 78.5525 71.7165 77.7628 71.7186C77.7628 71.7189 65.5441 71.7073 64.3994 71.7054ZM104.453 69.6974C104.453 68.5829 105.36 67.6759 106.475 67.6759H115.519C116.396 67.6759 117.148 67.2382 117.58 66.4749C118.013 65.7124 118.003 64.8434 117.553 64.0912C117.544 64.0761 117.535 64.061 117.525 64.0461L112.592 56.2569C113.761 55.0707 114.656 53.6134 115.171 51.9884L121.021 62.0133C122.223 64.0205 122.251 66.4339 121.097 68.4689C119.944 70.5039 117.858 71.7189 115.519 71.7189H106.474C105.36 71.7189 104.453 70.8122 104.453 69.6974ZM122.816 133.948L122.806 133.957L119.956 133.948L119.395 119.01H123.331L122.816 133.948ZM123.47 114.967H119.244L117.773 75.7619H124.821L123.47 114.967Z" fill="#00C2A9"/>
</svg>
