<svg width="394" height="71" viewBox="0 0 394 71" fill="none" xmlns="http://www.w3.org/2000/svg">
<path d="M376.228 28.6679L382.221 13.3673C382.527 12.6023 382.901 12.0243 383.343 11.6332C383.802 11.2252 384.363 11.0212 385.026 11.0212C385.672 11.0212 386.216 11.2252 386.658 11.6332C387.117 12.0243 387.499 12.6023 387.806 13.3673L393.773 28.6679H389.948L384.541 14.0048H385.434L380.028 28.6679H376.228ZM380.359 25.0213V21.9611H389.769V25.0213H380.359ZM386.25 10.1287H383.802L384.949 7.83359C385.17 7.37457 385.425 7.02605 385.714 6.78804C386.003 6.55004 386.386 6.43103 386.862 6.43103C387.355 6.43103 387.729 6.54153 387.984 6.76254C388.256 6.98355 388.375 7.26406 388.341 7.60408C388.307 7.92709 388.103 8.2586 387.729 8.59862L386.25 10.1287Z" fill="#00C2A9"/>
<path d="M368.804 28.668L374.95 11.3273H378.75L372.043 28.668H368.804ZM368.192 28.668L361.485 11.3273H365.362L371.584 28.668H368.192Z" fill="#00C2A9"/>
<path d="M343.372 20.2014C343.372 18.4334 343.72 16.8608 344.417 15.4837C345.131 14.0897 346.16 13.0016 347.503 12.2196C348.846 11.4206 350.452 11.0211 352.322 11.0211C354.193 11.0211 355.774 11.3951 357.066 12.1431C358.375 12.8911 359.378 13.9282 360.075 15.2542C360.772 16.5633 361.12 18.0763 361.12 19.7934C361.12 21.5615 360.763 23.1425 360.049 24.5366C359.335 25.9137 358.307 27.0017 356.964 27.8007C355.638 28.5828 354.031 28.9738 352.144 28.9738C350.308 28.9738 348.727 28.6083 347.401 27.8772C346.092 27.1292 345.089 26.0922 344.392 24.7661C343.712 23.4401 343.372 21.9185 343.372 20.2014ZM347.095 20.1249C347.095 21.281 347.299 22.2925 347.707 23.1595C348.132 24.0096 348.727 24.6641 349.492 25.1231C350.257 25.5821 351.158 25.8116 352.195 25.8116C353.266 25.8116 354.193 25.5651 354.975 25.0721C355.757 24.5791 356.352 23.8821 356.76 22.981C357.168 22.08 357.372 21.043 357.372 19.8699C357.372 18.7139 357.159 17.7108 356.734 16.8608C356.326 16.0108 355.74 15.3562 354.975 14.8972C354.227 14.4212 353.325 14.1832 352.271 14.1832C351.2 14.1832 350.274 14.4297 349.492 14.9227C348.727 15.4157 348.132 16.1128 347.707 17.0138C347.299 17.8978 347.095 18.9349 347.095 20.1249Z" fill="#00C2A9"/>
<path d="M332.295 11.3272V28.6679H328.725V11.3272H332.295ZM331.147 19.819L338.721 12.1687C339.044 11.8287 339.359 11.5652 339.665 11.3782C339.971 11.1912 340.302 11.0977 340.659 11.0977C341.135 11.0977 341.526 11.2507 341.832 11.5567C342.155 11.8457 342.317 12.2197 342.317 12.6787C342.317 12.9847 342.24 13.2822 342.087 13.5713C341.951 13.8433 341.73 14.1323 341.424 14.4383L334.284 21.1961L334.896 18.85L343.362 28.6679H338.772L331.147 19.819Z" fill="#00C2A9"/>
<path d="M309.088 28.6679L315.081 13.3673C315.387 12.6023 315.761 12.0243 316.203 11.6332C316.662 11.2252 317.223 11.0212 317.886 11.0212C318.532 11.0212 319.076 11.2252 319.518 11.6332C319.977 12.0243 320.36 12.6023 320.666 13.3673L326.633 28.6679H322.808L317.402 14.0048H318.294L312.888 28.6679H309.088ZM313.22 25.0213V21.9611H322.629V25.0213H313.22ZM319.11 10.1287H316.662L317.81 7.83359C318.031 7.37457 318.286 7.02605 318.575 6.78804C318.864 6.55004 319.246 6.43103 319.722 6.43103C320.215 6.43103 320.589 6.54153 320.844 6.76254C321.116 6.98355 321.235 7.26406 321.201 7.60408C321.167 7.92709 320.963 8.2586 320.589 8.59862L319.11 10.1287Z" fill="#00C2A9"/>
<path d="M301.909 28.668V11.3273H305.48V28.668H301.909ZM295.866 14.4894V11.3273H311.498V14.4894H295.866Z" fill="#00C2A9"/>
<path d="M287.866 28.9738C286.54 28.9738 285.324 28.8208 284.219 28.5148C283.131 28.2087 282.196 27.8177 281.414 27.3417V24.0011C282.553 24.7491 283.684 25.3101 284.806 25.6841C285.945 26.0582 287.024 26.2452 288.044 26.2452C289.166 26.2452 289.991 26.0497 290.518 25.6586C291.045 25.2506 291.308 24.7491 291.308 24.1541C291.308 23.6441 291.121 23.236 290.747 22.93C290.39 22.624 289.914 22.369 289.319 22.165C288.741 21.961 288.095 21.774 287.381 21.604C286.667 21.434 285.953 21.23 285.239 20.992C284.525 20.7539 283.871 20.4479 283.276 20.0739C282.681 19.6999 282.205 19.2239 281.848 18.6459C281.491 18.0508 281.312 17.3028 281.312 16.4018C281.312 15.3307 281.576 14.3957 282.103 13.5967C282.647 12.7806 283.437 12.1516 284.474 11.7096C285.511 11.2506 286.769 11.0211 288.248 11.0211C289.438 11.0211 290.467 11.1656 291.334 11.4546C292.201 11.7436 292.923 12.1346 293.502 12.6276C293.808 12.8656 294.046 13.1291 294.216 13.4182C294.386 13.6902 294.471 14.0047 294.471 14.3617C294.471 14.8037 294.335 15.1607 294.063 15.4327C293.808 15.7047 293.45 15.8407 292.991 15.8407C292.583 15.8407 292.218 15.7387 291.895 15.5347C291.589 15.3137 291.266 15.0672 290.926 14.7952C290.586 14.5062 290.178 14.2597 289.702 14.0557C289.243 13.8347 288.656 13.7242 287.942 13.7242C286.973 13.7242 286.234 13.9282 285.724 14.3362C285.231 14.7442 284.984 15.2542 284.984 15.8662C284.984 16.3593 285.163 16.7673 285.52 17.0903C285.877 17.3963 286.353 17.6513 286.948 17.8553C287.543 18.0593 288.197 18.2463 288.911 18.4164C289.625 18.5864 290.331 18.7904 291.028 19.0284C291.742 19.2664 292.396 19.5724 292.991 19.9464C293.587 20.3204 294.063 20.8049 294.42 21.4C294.794 21.995 294.981 22.743 294.981 23.6441C294.981 24.7151 294.709 25.6586 294.165 26.4747C293.638 27.2737 292.847 27.8942 291.793 28.3362C290.739 28.7613 289.43 28.9738 287.866 28.9738Z" fill="#00C2A9"/>
<path d="M266.466 28.668V11.3273H270.036V28.668H266.466ZM269.169 28.668V25.6333H279.395V28.668H269.169ZM268.047 21.0432V17.983H276.692C277.202 17.983 277.61 18.1105 277.916 18.3655C278.222 18.6206 278.375 19.0031 278.375 19.5131C278.375 19.9891 278.222 20.3631 277.916 20.6351C277.61 20.9072 277.202 21.0432 276.692 21.0432H268.047ZM269.169 14.3619V11.3273H279.395V14.3619H269.169Z" fill="#00C2A9"/>
<path d="M256.662 28.9738C255.336 28.9738 254.121 28.8208 253.016 28.5147C251.927 28.2087 250.992 27.8177 250.21 27.3417V24.0011C251.349 24.7491 252.48 25.3101 253.602 25.6841C254.741 26.0581 255.821 26.2452 256.841 26.2452C257.963 26.2452 258.787 26.0496 259.314 25.6586C259.841 25.2506 260.105 24.7491 260.105 24.1541C260.105 23.644 259.918 23.236 259.544 22.93C259.187 22.624 258.711 22.369 258.116 22.165C257.538 21.961 256.892 21.774 256.178 21.604C255.464 21.434 254.75 21.23 254.036 20.9919C253.322 20.7539 252.667 20.4479 252.072 20.0739C251.477 19.6999 251.001 19.2239 250.644 18.6459C250.287 18.0508 250.108 17.3028 250.108 16.4018C250.108 15.3307 250.372 14.3957 250.899 13.5966C251.443 12.7806 252.233 12.1516 253.271 11.7096C254.308 11.2506 255.566 11.021 257.045 11.021C258.235 11.021 259.263 11.1656 260.13 11.4546C260.997 11.7436 261.72 12.1346 262.298 12.6276C262.604 12.8656 262.842 13.1291 263.012 13.4181C263.182 13.6902 263.267 14.0047 263.267 14.3617C263.267 14.8037 263.131 15.1607 262.859 15.4327C262.604 15.7047 262.247 15.8407 261.788 15.8407C261.38 15.8407 261.014 15.7387 260.691 15.5347C260.385 15.3137 260.062 15.0672 259.722 14.7952C259.382 14.5062 258.974 14.2597 258.498 14.0557C258.039 13.8347 257.453 13.7242 256.739 13.7242C255.77 13.7242 255.03 13.9282 254.52 14.3362C254.027 14.7442 253.781 15.2542 253.781 15.8662C253.781 16.3593 253.959 16.7673 254.316 17.0903C254.673 17.3963 255.149 17.6513 255.744 17.8553C256.339 18.0593 256.994 18.2463 257.708 18.4163C258.422 18.5863 259.127 18.7904 259.824 19.0284C260.538 19.2664 261.193 19.5724 261.788 19.9464C262.383 20.3204 262.859 20.8049 263.216 21.4C263.59 21.995 263.777 22.743 263.777 23.644C263.777 24.7151 263.505 25.6586 262.961 26.4747C262.434 27.2737 261.643 27.8942 260.589 28.3362C259.535 28.7613 258.226 28.9738 256.662 28.9738ZM260.742 6.73688L259.059 9.21048C258.804 9.63549 258.515 9.95 258.192 10.154C257.886 10.341 257.504 10.4345 257.045 10.4345C256.569 10.4345 256.178 10.341 255.872 10.154C255.583 9.95 255.294 9.63549 255.005 9.21048L253.322 6.73688H255.489L257.045 8.34344L258.575 6.73688H260.742Z" fill="#00C2A9"/>
<path d="M241.77 28.6679H238.455C238.336 28.4129 238.242 28.0559 238.174 27.5969C238.123 27.1208 238.089 26.5853 238.072 25.9903L237.919 25.3273V19.9721C237.919 19.343 237.724 18.9095 237.333 18.6715C236.959 18.4335 236.449 18.3145 235.803 18.3145C235.174 18.3145 234.655 18.391 234.247 18.544C233.839 18.697 233.499 18.8755 233.227 19.0795C232.955 19.2835 232.691 19.462 232.436 19.615C232.198 19.7681 231.918 19.8446 231.595 19.8446C231.187 19.8446 230.855 19.7341 230.6 19.513C230.345 19.275 230.218 18.9605 230.218 18.5695C230.218 18.2805 230.286 18 230.422 17.728C230.558 17.456 230.796 17.1925 231.136 16.9374C232.173 16.0534 233.72 15.6114 235.777 15.6114C236.95 15.6114 237.936 15.7644 238.735 16.0704C239.534 16.3764 240.146 16.8779 240.571 17.575C240.996 18.272 241.209 19.207 241.209 20.3801V24.6642C241.209 25.5483 241.26 26.3303 241.362 27.0103C241.464 27.6734 241.6 28.2259 241.77 28.6679ZM233.89 28.9739C232.666 28.9739 231.688 28.6424 230.957 27.9794C230.226 27.3164 229.861 26.4153 229.861 25.2763C229.861 24.2562 230.184 23.4487 230.83 22.8537C231.493 22.2417 232.479 21.8251 233.788 21.6041L236.287 21.1961C236.95 21.0601 237.384 20.9156 237.588 20.7626C237.809 20.6096 237.919 20.3631 237.919 20.0231V22.4202C237.834 22.5222 237.69 22.6242 237.486 22.7262C237.282 22.8112 236.976 22.8962 236.568 22.9812L235.089 23.2872C234.562 23.3892 234.137 23.5677 233.814 23.8227C233.49 24.0777 233.329 24.4602 233.329 24.9703C233.329 25.4803 233.49 25.8798 233.814 26.1688C234.154 26.4578 234.596 26.6023 235.14 26.6023C235.65 26.6023 236.109 26.4833 236.517 26.2453C236.942 25.9903 237.282 25.6418 237.537 25.1998C237.792 24.7408 237.919 24.2052 237.919 23.5932L238.404 25.8883C238.013 26.9423 237.418 27.7244 236.619 28.2344C235.82 28.7274 234.91 28.9739 233.89 28.9739Z" fill="#00C2A9"/>
<path d="M220.489 28.6679V15.9174H223.753V28.6679H220.489ZM223.753 22.4967L223.32 18.901C223.66 17.83 224.136 17.0139 224.748 16.4529C225.36 15.8919 226.048 15.6114 226.814 15.6114C227.205 15.6114 227.553 15.6879 227.859 15.8409C228.182 15.9939 228.437 16.2234 228.624 16.5294C228.828 16.8184 228.93 17.1925 228.93 17.6515C228.93 18.2465 228.777 18.697 228.471 19.003C228.182 19.292 227.808 19.4365 227.349 19.4365C227.043 19.4365 226.771 19.394 226.533 19.309C226.312 19.207 226.074 19.156 225.819 19.156C225.207 19.156 224.705 19.4535 224.314 20.0486C223.94 20.6436 223.753 21.4596 223.753 22.4967Z" fill="#00C2A9"/>
<path d="M204.931 22.3947C204.931 21.0346 205.203 19.8531 205.747 18.85C206.291 17.83 207.064 17.0394 208.067 16.4784C209.07 15.9004 210.26 15.6114 211.637 15.6114C212.946 15.6114 214.094 15.8834 215.08 16.4274C216.066 16.9544 216.831 17.711 217.375 18.697C217.936 19.6661 218.217 20.8391 218.217 22.2162C218.217 23.5592 217.945 24.7408 217.401 25.7608C216.874 26.7638 216.109 27.5544 215.106 28.1324C214.103 28.6934 212.921 28.9739 211.561 28.9739C210.252 28.9739 209.096 28.7104 208.093 28.1834C207.107 27.6394 206.333 26.8743 205.772 25.8883C205.211 24.9023 204.931 23.7377 204.931 22.3947ZM208.373 22.3437C208.373 23.1427 208.509 23.8312 208.781 24.4092C209.053 24.9703 209.427 25.4038 209.903 25.7098C210.396 25.9988 210.94 26.1433 211.535 26.1433C212.147 26.1433 212.7 25.9903 213.193 25.6843C213.686 25.3613 214.069 24.9108 214.341 24.3327C214.63 23.7377 214.774 23.0407 214.774 22.2417C214.774 21.4426 214.638 20.7626 214.366 20.2016C214.094 19.6235 213.72 19.19 213.244 18.901C212.785 18.595 212.249 18.442 211.637 18.442C211.008 18.442 210.447 18.6035 209.954 18.9265C209.478 19.2325 209.096 19.6745 208.807 20.2526C208.518 20.8306 208.373 21.5276 208.373 22.3437Z" fill="#00C2A9"/>
<path d="M196.455 28.9737C194.5 28.9737 192.97 28.4212 191.865 27.3162C190.76 26.1941 190.207 24.6641 190.207 22.726L193.471 22.9045C193.471 23.8735 193.743 24.6641 194.287 25.2761C194.848 25.8711 195.571 26.1686 196.455 26.1686C197.424 26.1686 198.189 25.8201 198.75 25.1231C199.328 24.4261 199.617 23.491 199.617 22.318C199.617 21.536 199.481 20.8644 199.209 20.3034C198.937 19.7424 198.563 19.3089 198.087 19.0029C197.611 18.6968 197.05 18.5438 196.404 18.5438C195.537 18.5438 194.831 18.8243 194.287 19.3854C193.743 19.9464 193.471 20.6859 193.471 21.604L192.91 18.9008C193.318 17.8468 193.913 17.0393 194.695 16.4783C195.494 15.9002 196.438 15.6112 197.526 15.6112C198.58 15.6112 199.523 15.8832 200.356 16.4273C201.206 16.9543 201.869 17.7023 202.346 18.6713C202.839 19.6404 203.085 20.7964 203.085 22.1395C203.085 23.4825 202.822 24.6726 202.295 25.7096C201.784 26.7297 201.036 27.5287 200.05 28.1067C199.064 28.6847 197.866 28.9737 196.455 28.9737ZM193.471 23.9756L190.207 22.726V10.307H193.471V23.9756Z" fill="#00C2A9"/>
<path d="M180.121 28.6679V15.9174H183.385V28.6679H180.121ZM183.385 22.4967L182.952 18.901C183.292 17.83 183.768 17.0139 184.38 16.4529C184.992 15.8919 185.68 15.6114 186.445 15.6114C186.836 15.6114 187.185 15.6879 187.491 15.8409C187.814 15.9939 188.069 16.2234 188.256 16.5294C188.46 16.8184 188.562 17.1925 188.562 17.6515C188.562 18.2465 188.409 18.697 188.103 19.003C187.814 19.292 187.44 19.4365 186.981 19.4365C186.675 19.4365 186.403 19.394 186.165 19.309C185.944 19.207 185.706 19.156 185.451 19.156C184.839 19.156 184.337 19.4535 183.946 20.0486C183.572 20.6436 183.385 21.4596 183.385 22.4967Z" fill="#00C2A9"/>
<path d="M177.644 28.6679H174.329C174.21 28.4129 174.116 28.0559 174.048 27.5969C173.997 27.1208 173.963 26.5853 173.946 25.9903L173.793 25.3273V19.9721C173.793 19.343 173.598 18.9095 173.207 18.6715C172.833 18.4335 172.323 18.3145 171.677 18.3145C171.048 18.3145 170.529 18.391 170.121 18.544C169.713 18.697 169.373 18.8755 169.101 19.0795C168.829 19.2835 168.565 19.462 168.31 19.615C168.072 19.7681 167.792 19.8446 167.469 19.8446C167.061 19.8446 166.729 19.7341 166.474 19.513C166.219 19.275 166.092 18.9605 166.092 18.5695C166.092 18.2805 166.16 18 166.296 17.728C166.432 17.456 166.67 17.1925 167.01 16.9374C168.047 16.0534 169.594 15.6114 171.651 15.6114C172.824 15.6114 173.81 15.7644 174.609 16.0704C175.408 16.3764 176.02 16.8779 176.445 17.575C176.87 18.272 177.083 19.207 177.083 20.3801V24.6642C177.083 25.5483 177.134 26.3303 177.236 27.0103C177.338 27.6734 177.474 28.2259 177.644 28.6679ZM169.764 28.9739C168.54 28.9739 167.562 28.6424 166.831 27.9794C166.1 27.3164 165.735 26.4153 165.735 25.2763C165.735 24.2562 166.058 23.4487 166.704 22.8537C167.367 22.2417 168.353 21.8251 169.662 21.6041L172.161 21.1961C172.824 21.0601 173.258 20.9156 173.462 20.7626C173.683 20.6096 173.793 20.3631 173.793 20.0231V22.4202C173.708 22.5222 173.564 22.6242 173.36 22.7262C173.156 22.8112 172.85 22.8962 172.442 22.9812L170.963 23.2872C170.436 23.3892 170.011 23.5677 169.688 23.8227C169.365 24.0777 169.203 24.4602 169.203 24.9703C169.203 25.4803 169.365 25.8798 169.688 26.1688C170.028 26.4578 170.47 26.6023 171.014 26.6023C171.524 26.6023 171.983 26.4833 172.391 26.2453C172.816 25.9903 173.156 25.6418 173.411 25.1998C173.666 24.7408 173.793 24.2052 173.793 23.5932L174.278 25.8883C173.887 26.9423 173.292 27.7244 172.493 28.2344C171.694 28.7274 170.784 28.9739 169.764 28.9739Z" fill="#00C2A9"/>
<path d="M151.858 28.668V25.7353H156.805C157.961 25.7353 158.803 25.5483 159.33 25.1743C159.857 24.8003 160.12 24.2393 160.12 23.4913C160.12 22.7432 159.857 22.2077 159.33 21.8847C158.803 21.5447 157.961 21.3747 156.805 21.3747H151.858V19.4621H157.213C158.114 19.4621 158.964 19.5216 159.763 19.6406C160.579 19.7596 161.293 19.9806 161.905 20.3036C162.517 20.6096 162.993 21.0432 163.333 21.6042C163.69 22.1652 163.869 22.8877 163.869 23.7718C163.869 24.8768 163.588 25.7948 163.027 26.5259C162.466 27.2399 161.65 27.7754 160.579 28.1324C159.508 28.4895 158.208 28.668 156.678 28.668H151.858ZM148.798 28.668V11.3273H152.342V28.668H148.798ZM150.787 20.4056V18.5186H156.193C157.332 18.5186 158.174 18.34 158.718 17.983C159.262 17.609 159.534 17.048 159.534 16.3C159.534 15.5689 159.262 15.0504 158.718 14.7444C158.174 14.4214 157.332 14.2599 156.193 14.2599H150.787V11.3273H155.989C158.318 11.3273 160.095 11.7013 161.319 12.4493C162.543 13.1803 163.155 14.3619 163.155 15.994C163.155 16.742 163.036 17.371 162.798 17.881C162.56 18.3911 162.228 18.8161 161.803 19.1561C161.378 19.4791 160.885 19.7341 160.324 19.9211C159.78 20.0911 159.185 20.2186 158.539 20.3036C157.893 20.3716 157.23 20.4056 156.55 20.4056H150.787Z" fill="#00C2A9"/>
<path d="M137.127 28.9484C136.498 28.9484 136.005 28.7784 135.648 28.4384C135.291 28.0814 135.113 27.6309 135.113 27.0869C135.113 26.5258 135.291 26.0753 135.648 25.7353C136.005 25.3953 136.498 25.2253 137.127 25.2253C137.739 25.2253 138.224 25.3953 138.581 25.7353C138.938 26.0753 139.116 26.5258 139.116 27.0869C139.116 27.6309 138.938 28.0814 138.581 28.4384C138.224 28.7784 137.739 28.9484 137.127 28.9484Z" fill="#00C2A9"/>
<path d="M132.96 18.7225C132.96 19.1815 132.824 19.5385 132.552 19.7936C132.28 20.0316 131.923 20.1506 131.481 20.1506C131.107 20.1506 130.801 20.0656 130.563 19.8956C130.325 19.7086 130.095 19.496 129.874 19.258C129.653 19.02 129.39 18.8075 129.084 18.6205C128.795 18.4335 128.395 18.34 127.885 18.34C126.933 18.34 126.185 18.6885 125.641 19.3855C125.097 20.0826 124.825 21.0091 124.825 22.1652C124.825 22.9472 124.961 23.6357 125.233 24.2307C125.505 24.8088 125.921 25.2593 126.482 25.5823C127.061 25.9053 127.792 26.0668 128.676 26.0668C129.271 26.0668 129.883 25.9903 130.512 25.8373C131.158 25.6673 131.829 25.4208 132.526 25.0978V27.7754C132.016 28.0814 131.404 28.3619 130.69 28.6169C129.976 28.8549 129.118 28.9739 128.115 28.9739C125.989 28.9739 124.315 28.3874 123.091 27.2144C121.884 26.0413 121.28 24.4347 121.28 22.3947C121.28 21.0346 121.552 19.8446 122.096 18.8245C122.64 17.8045 123.405 17.0139 124.391 16.4529C125.394 15.8919 126.593 15.6114 127.987 15.6114C128.922 15.6114 129.755 15.7474 130.486 16.0194C131.217 16.2744 131.804 16.6314 132.246 17.0904C132.722 17.5835 132.96 18.1275 132.96 18.7225Z" fill="#00C2A9"/>
<path d="M107.331 28.668V25.7353H112.278C113.434 25.7353 114.275 25.5483 114.802 25.1743C115.329 24.8003 115.593 24.2393 115.593 23.4913C115.593 22.7432 115.329 22.2077 114.802 21.8847C114.275 21.5447 113.434 21.3747 112.278 21.3747H107.331V19.4621H112.686C113.587 19.4621 114.437 19.5216 115.236 19.6406C116.052 19.7596 116.766 19.9806 117.378 20.3036C117.99 20.6096 118.466 21.0432 118.806 21.6042C119.163 22.1652 119.342 22.8877 119.342 23.7718C119.342 24.8768 119.061 25.7948 118.5 26.5259C117.939 27.2399 117.123 27.7754 116.052 28.1324C114.981 28.4895 113.68 28.668 112.15 28.668H107.331ZM104.271 28.668V11.3273H107.815V28.668H104.271ZM106.26 20.4056V18.5186H111.666C112.805 18.5186 113.646 18.34 114.19 17.983C114.734 17.609 115.006 17.048 115.006 16.3C115.006 15.5689 114.734 15.0504 114.19 14.7444C113.646 14.4214 112.805 14.2599 111.666 14.2599H106.26V11.3273H111.462C113.791 11.3273 115.567 11.7013 116.792 12.4493C118.016 13.1803 118.628 14.3619 118.628 15.994C118.628 16.742 118.509 17.371 118.271 17.881C118.033 18.3911 117.701 18.8161 117.276 19.1561C116.851 19.4791 116.358 19.7341 115.797 19.9211C115.253 20.0911 114.658 20.2186 114.012 20.3036C113.366 20.3716 112.703 20.4056 112.023 20.4056H106.26Z" fill="#00C2A9"/>
<path d="M386.051 61.3582V50.3942H387.695V61.3582H386.051ZM387.147 61.3582V59.9394H394V61.3582H387.147ZM386.792 56.1826V54.7637H392.532C392.78 54.7637 392.979 54.8228 393.129 54.941C393.28 55.0593 393.355 55.2366 393.355 55.4731C393.355 55.6988 393.28 55.8762 393.129 56.0052C392.979 56.1234 392.78 56.1826 392.532 56.1826H386.792ZM387.147 51.813V50.3942H394V51.813H387.147Z" fill="#16102A"/>
<path d="M378.599 61.5522C377.406 61.5522 376.39 61.3264 375.552 60.875C374.714 60.4128 374.074 59.7678 373.633 58.9401C373.203 58.1017 372.988 57.1235 372.988 56.0056C372.988 54.8985 373.203 53.9096 373.633 53.0389C374.063 52.1574 374.692 51.4641 375.52 50.9589C376.347 50.4537 377.347 50.2011 378.519 50.2011C379.346 50.2011 380.045 50.3194 380.615 50.5558C381.195 50.7923 381.641 51.0718 381.953 51.3943C382.114 51.5447 382.233 51.7006 382.308 51.8618C382.394 52.0123 382.437 52.1736 382.437 52.3456C382.437 52.5713 382.367 52.7486 382.227 52.8776C382.098 53.0066 381.932 53.0711 381.727 53.0711C381.523 53.0711 381.335 53.0013 381.163 52.8615C380.991 52.711 380.798 52.5444 380.583 52.3617C380.378 52.1682 380.115 52.0016 379.792 51.8618C379.47 51.7114 379.035 51.6361 378.486 51.6361C377.67 51.6361 376.982 51.8189 376.423 52.1843C375.864 52.5498 375.439 53.055 375.149 53.6999C374.859 54.3449 374.714 55.0812 374.714 55.9089C374.714 56.7366 374.864 57.4675 375.165 58.1017C375.477 58.7359 375.934 59.2304 376.535 59.5851C377.148 59.9398 377.906 60.1172 378.809 60.1172C379.411 60.1172 379.991 60.0419 380.55 59.8914C381.12 59.7302 381.668 59.5098 382.195 59.2304V60.6492C381.776 60.8965 381.265 61.1114 380.663 61.2942C380.072 61.4662 379.384 61.5522 378.599 61.5522Z" fill="#16102A"/>
<path d="M360.18 61.3587L364.178 51.2975C364.318 50.932 364.49 50.6579 364.694 50.4752C364.909 50.2925 365.162 50.2011 365.452 50.2011C365.753 50.2011 366.006 50.2925 366.21 50.4752C366.425 50.6579 366.602 50.932 366.742 51.2975L370.708 61.3587H368.967L365.178 51.3943H365.726L361.921 61.3587H360.18ZM362.598 58.5532V57.1504H368.338V58.5532H362.598Z" fill="#16102A"/>
<path d="M354.092 61.3582V50.3942H355.737V61.3582H354.092ZM350.077 51.8453V50.3942H359.767V51.8453H350.077Z" fill="#16102A"/>
<path d="M345.15 61.3582V50.3942H346.779V61.3582H345.15Z" fill="#16102A"/>
<path d="M334.056 61.3582V50.3942H335.7V61.3582H334.056ZM334.717 61.3582V59.9071H342.005V61.3582H334.717Z" fill="#16102A"/>
<path d="M327.715 61.3582V50.3942H329.344V61.3582H327.715Z" fill="#16102A"/>
<path d="M315.883 61.3582V59.9877H319.285C320.199 59.9877 320.86 59.8372 321.268 59.5363C321.687 59.2246 321.897 58.7731 321.897 58.1819C321.897 57.5907 321.687 57.1661 321.268 56.9081C320.86 56.6501 320.199 56.5212 319.285 56.5212H315.883V55.5699H319.64C320.231 55.5699 320.768 55.6129 321.252 55.6988C321.736 55.7848 322.155 55.9353 322.51 56.1503C322.864 56.3545 323.138 56.6286 323.332 56.9726C323.536 57.3166 323.638 57.7465 323.638 58.2625C323.638 58.9397 323.472 59.5094 323.138 59.9716C322.805 60.4231 322.311 60.767 321.655 61.0035C320.999 61.24 320.199 61.3582 319.253 61.3582H315.883ZM314.432 61.3582V50.3942H316.06V61.3582H314.432ZM315.302 56.0858V55.1668H318.866C319.769 55.1668 320.43 55.0217 320.849 54.7314C321.268 54.4305 321.478 53.9844 321.478 53.3932C321.478 52.802 321.268 52.3827 320.849 52.1355C320.43 51.8883 319.769 51.7647 318.866 51.7647H315.302V50.3942H318.801C320.231 50.3942 321.316 50.6306 322.058 51.1036C322.8 51.5658 323.171 52.2968 323.171 53.2964C323.171 53.7156 323.101 54.0811 322.961 54.3928C322.832 54.7046 322.644 54.9679 322.397 55.1829C322.16 55.3979 321.875 55.5752 321.542 55.715C321.22 55.844 320.86 55.9407 320.462 56.0052C320.064 56.0589 319.645 56.0858 319.204 56.0858H315.302Z" fill="#16102A"/>
<path d="M300.521 61.3587L304.52 51.2975C304.66 50.932 304.832 50.6579 305.036 50.4752C305.251 50.2925 305.504 50.2011 305.794 50.2011C306.095 50.2011 306.347 50.2925 306.552 50.4752C306.767 50.6579 306.944 50.932 307.084 51.2975L311.05 61.3587H309.309L305.52 51.3943H306.068L302.263 61.3587H300.521ZM302.94 58.5532V57.1504H308.68V58.5532H302.94Z" fill="#16102A"/>
<path d="M295.487 61.3582V50.3942H297.131V61.3582H295.487ZM288.038 61.3582V50.3942H289.682V61.3582H288.038ZM288.666 56.1664V54.7153H296.261V56.1664H288.666Z" fill="#16102A"/>
<path d="M276.565 61.3582V50.3942H278.21V61.3582H276.565ZM277.661 61.3582V59.9394H284.514V61.3582H277.661ZM277.307 56.1826V54.7637H283.047C283.294 54.7637 283.493 54.8228 283.643 54.941C283.794 55.0593 283.869 55.2366 283.869 55.4731C283.869 55.6988 283.794 55.8762 283.643 56.0052C283.493 56.1234 283.294 56.1826 283.047 56.1826H277.307ZM277.661 51.813V50.3942H284.514V51.813H277.661Z" fill="#16102A"/>
<path d="M270.704 61.3582C270.575 61.0358 270.489 60.6703 270.446 60.2618C270.413 59.8534 270.381 59.4395 270.349 59.0203C270.317 58.6011 270.247 58.2195 270.139 57.8755C270.032 57.5208 269.838 57.236 269.559 57.021C269.29 56.806 268.887 56.6985 268.35 56.6985H264.883V55.8278L268.978 55.8117C269.677 55.8117 270.225 55.8923 270.623 56.0536C271.032 56.2148 271.333 56.4405 271.526 56.7308C271.72 57.021 271.849 57.3488 271.913 57.7143C271.988 58.0798 272.037 58.4721 272.058 58.8913C272.09 59.2998 272.139 59.719 272.203 60.149C272.278 60.5682 272.407 60.9713 272.59 61.3582H270.704ZM263.69 61.3582V50.3942H265.335V61.3582H263.69ZM264.625 56.2632V55.328H268.092C269.038 55.328 269.726 55.1829 270.156 54.8927C270.585 54.5917 270.8 54.1402 270.8 53.5383C270.8 52.9471 270.585 52.5117 270.156 52.2323C269.736 51.9528 269.048 51.813 268.092 51.813H264.625V50.3942H268.156C269.618 50.3942 270.709 50.6521 271.429 51.1681C272.16 51.6841 272.526 52.4365 272.526 53.4254C272.526 54.0919 272.359 54.6347 272.026 55.0539C271.693 55.4731 271.198 55.7795 270.542 55.9729C269.898 56.1664 269.102 56.2632 268.156 56.2632H264.625Z" fill="#16102A"/>
<path d="M243.959 61.3587L247.958 51.2975C248.098 50.932 248.27 50.6579 248.474 50.4752C248.689 50.2925 248.942 50.2011 249.232 50.2011C249.533 50.2011 249.785 50.2925 249.99 50.4752C250.205 50.6579 250.382 50.932 250.522 51.2975L254.488 61.3587H252.747L248.958 51.3943H249.506L245.701 61.3587H243.959ZM246.378 58.5532V57.1504H252.118V58.5532H246.378Z" fill="#16102A"/>
<path d="M227.703 61.3582V50.3942H229.347V61.3582H227.703ZM228.799 61.3582V59.9394H235.652V61.3582H228.799ZM228.444 56.1826V54.7637H234.184C234.432 54.7637 234.63 54.8228 234.781 54.941C234.931 55.0593 235.007 55.2366 235.007 55.4731C235.007 55.6988 234.931 55.8762 234.781 56.0052C234.63 56.1234 234.432 56.1826 234.184 56.1826H228.444ZM228.799 51.813V50.3942H235.652V51.813H228.799Z" fill="#16102A"/>
<path d="M221.362 61.3582V50.3942H222.991V61.3582H221.362Z" fill="#16102A"/>
<path d="M209.832 56.9726V55.5537H213.283C214.239 55.5537 214.938 55.3871 215.379 55.0539C215.819 54.7099 216.04 54.2316 216.04 53.6189C216.04 53.0169 215.819 52.5655 215.379 52.2645C214.949 51.9635 214.25 51.813 213.283 51.813H209.832V50.3942H213.363C214.857 50.3942 215.964 50.6736 216.685 51.2326C217.405 51.7808 217.765 52.5655 217.765 53.5866C217.765 54.2638 217.604 54.8604 217.281 55.3764C216.959 55.8816 216.47 56.2739 215.814 56.5534C215.169 56.8329 214.368 56.9726 213.412 56.9726H209.832ZM208.929 61.3582V50.3942H210.574V61.3582H208.929Z" fill="#16102A"/>
<path d="M195.019 61.3587L199.017 51.2975C199.157 50.932 199.329 50.6579 199.533 50.4752C199.748 50.2925 200.001 50.2011 200.291 50.2011C200.592 50.2011 200.845 50.2925 201.049 50.4752C201.264 50.6579 201.441 50.932 201.581 51.2975L205.547 61.3587H203.806L200.017 51.3943H200.565L196.76 61.3587H195.019ZM197.437 58.5532V57.1504H203.177V58.5532H197.437Z" fill="#16102A"/>
<path d="M190.257 61.3582C190.128 61.0358 190.042 60.6703 189.999 60.2618C189.967 59.8534 189.934 59.4395 189.902 59.0203C189.87 58.6011 189.8 58.2195 189.693 57.8755C189.585 57.5208 189.392 57.236 189.112 57.021C188.843 56.806 188.44 56.6985 187.903 56.6985H184.436V55.8278L188.532 55.8117C189.23 55.8117 189.779 55.8923 190.176 56.0536C190.585 56.2148 190.886 56.4405 191.079 56.7308C191.273 57.021 191.402 57.3488 191.466 57.7143C191.541 58.0798 191.59 58.4721 191.611 58.8913C191.644 59.2998 191.692 59.719 191.756 60.149C191.832 60.5682 191.961 60.9713 192.143 61.3582H190.257ZM183.243 61.3582V50.3942H184.888V61.3582H183.243ZM184.178 56.2632V55.328H187.645C188.591 55.328 189.279 55.1829 189.709 54.8927C190.139 54.5917 190.354 54.1402 190.354 53.5383C190.354 52.9471 190.139 52.5117 189.709 52.2323C189.29 51.9528 188.602 51.813 187.645 51.813H184.178V50.3942H187.709C189.171 50.3942 190.262 50.6521 190.983 51.1681C191.713 51.6841 192.079 52.4365 192.079 53.4254C192.079 54.0919 191.912 54.6347 191.579 55.0539C191.246 55.4731 190.751 55.7795 190.096 55.9729C189.451 56.1664 188.655 56.2632 187.709 56.2632H184.178Z" fill="#16102A"/>
<path d="M171.771 61.3582V50.3942H173.415V61.3582H171.771ZM172.867 61.3582V59.9394H179.719V61.3582H172.867ZM172.512 56.1826V54.7637H178.252C178.499 54.7637 178.698 54.8228 178.849 54.941C178.999 55.0593 179.075 55.2366 179.075 55.4731C179.075 55.6988 178.999 55.8762 178.849 56.0052C178.698 56.1234 178.499 56.1826 178.252 56.1826H172.512ZM172.867 51.813V50.3942H179.719V51.813H172.867Z" fill="#16102A"/>
<path d="M162.804 61.3582V50.3942H164.449V61.3582H162.804ZM158.79 51.8453V50.3942H168.48V51.8453H158.79Z" fill="#16102A"/>
<path d="M145.565 56.0217C145.565 54.8931 145.785 53.8934 146.226 53.0227C146.677 52.1413 147.317 51.4534 148.145 50.9589C148.972 50.4537 149.961 50.2011 151.111 50.2011C152.251 50.2011 153.224 50.4376 154.03 50.9106C154.847 51.3728 155.47 52.0177 155.9 52.8454C156.33 53.6731 156.545 54.6351 156.545 55.7315C156.545 56.8602 156.325 57.8652 155.884 58.7466C155.443 59.6173 154.809 60.3053 153.981 60.8105C153.154 61.3049 152.16 61.5522 150.999 61.5522C149.881 61.5522 148.913 61.3211 148.096 60.8588C147.279 60.3966 146.651 59.7517 146.21 58.924C145.78 58.0856 145.565 57.1182 145.565 56.0217ZM147.29 55.9734C147.29 56.8118 147.446 57.5427 147.758 58.1662C148.069 58.7896 148.499 59.2734 149.048 59.6173C149.607 59.9505 150.268 60.1172 151.031 60.1172C151.826 60.1172 152.503 59.9344 153.062 59.569C153.632 59.2035 154.067 58.6929 154.368 58.0372C154.669 57.3815 154.82 56.6291 154.82 55.7799C154.82 54.9522 154.664 54.2266 154.352 53.6032C154.051 52.9798 153.621 52.496 153.062 52.1521C152.503 51.8081 151.848 51.6361 151.095 51.6361C150.3 51.6361 149.617 51.8189 149.048 52.1843C148.489 52.5498 148.053 53.0604 147.742 53.7161C147.441 54.3718 147.29 55.1242 147.29 55.9734Z" fill="#16102A"/>
<path d="M139.886 61.3582V50.3942H141.515V61.3582H139.886Z" fill="#16102A"/>
<path d="M128.592 61.3582C128.377 61.3582 128.183 61.326 128.011 61.2615C127.85 61.1863 127.721 61.0841 127.624 60.9552C127.527 60.8154 127.479 60.6488 127.479 60.4553C127.479 60.3048 127.511 60.149 127.576 59.9877C127.64 59.8265 127.758 59.6384 127.93 59.4234L134.396 51.1842L136.025 51.5712L129.14 60.3586L128.898 59.9071H136.186V61.3582H128.592ZM127.576 51.8453V50.3942H136.025V51.5712L134.912 51.8453H127.576Z" fill="#16102A"/>
<path d="M120.54 56.634L119.186 55.9729L123.088 50.3942H124.99L120.54 56.634ZM119.057 61.3582V55.7311H120.669V61.3582H119.057ZM119.17 56.634L114.736 50.3942H116.638L120.54 55.9729L119.17 56.634Z" fill="#16102A"/>
<path d="M104.271 61.3582V50.3942H105.915V61.3582H104.271ZM105.044 56.3438V54.9249H110.752C110.999 54.9249 111.198 54.984 111.349 55.1023C111.499 55.2205 111.575 55.3979 111.575 55.6344C111.575 55.8601 111.499 56.0374 111.349 56.1664C111.198 56.2847 110.999 56.3438 110.752 56.3438H105.044ZM104.899 51.813V50.3942H112.171V51.813H104.899Z" fill="#16102A"/>
<path fill-rule="evenodd" clip-rule="evenodd" d="M45.8221 11.2817C43.0368 11.3825 40.8609 13.7215 40.9614 16.5058C41.0618 19.2908 43.4002 21.467 46.1862 21.3661C48.97 21.2656 51.1463 18.9267 51.0458 16.1416C50.9453 13.3573 48.607 11.1808 45.8221 11.2817Z" fill="#16102A"/>
<path fill-rule="evenodd" clip-rule="evenodd" d="M71.9402 0.00336822C69.155 0.104224 66.979 2.44316 67.0795 5.22745C67.18 8.0125 69.5184 10.1886 72.3044 10.0878C75.0882 9.98731 77.2645 7.64836 77.164 4.86331C77.0635 2.07902 74.7251 -0.0974873 71.9402 0.00336822Z" fill="#00C2A9"/>
<path fill-rule="evenodd" clip-rule="evenodd" d="M70.2022 15.4363C68.0726 15.5191 66.4089 17.4449 66.4854 19.7383C66.5616 22.0316 68.3507 23.8236 70.4811 23.7412C72.6092 23.6579 74.2744 21.7318 74.1971 19.4388C74.1202 17.145 72.3319 15.3535 70.2022 15.4363Z" fill="#00C2A9"/>
<path fill-rule="evenodd" clip-rule="evenodd" d="M64.8818 26.7142C63.0796 26.785 61.672 28.4365 61.7365 30.402C61.8014 32.3679 63.315 33.9039 65.1164 33.8326C66.9194 33.7622 68.3278 32.1103 68.2617 30.1448C68.1964 28.1797 66.6828 26.6434 64.8818 26.7142Z" fill="#00C2A9"/>
<path fill-rule="evenodd" clip-rule="evenodd" d="M55.999 33.8368C54.5245 33.8901 53.373 35.1282 53.4256 36.6027C53.4793 38.0772 54.7175 39.2286 56.1917 39.1756C57.6659 39.1223 58.8181 37.8842 58.7644 36.4101C58.7118 34.9356 57.4736 33.7838 55.999 33.8368Z" fill="#00C2A9"/>
<path fill-rule="evenodd" clip-rule="evenodd" d="M47.4024 37.9916C46.0916 38.033 45.068 38.996 45.1153 40.1431C45.1627 41.2894 46.2635 42.1851 47.5735 42.1441C48.8843 42.1027 49.9083 41.1397 49.861 39.9926C49.8141 38.8463 48.7132 37.9502 47.4024 37.9916Z" fill="#00C2A9"/>
<path fill-rule="evenodd" clip-rule="evenodd" d="M40.3004 41.5529C39.3175 41.5887 38.5498 42.414 38.5852 43.3969C38.6202 44.3794 39.4463 45.1476 40.4292 45.1122C41.4116 45.0768 42.1798 44.251 42.1444 43.2686C42.1086 42.2853 41.2829 41.5179 40.3004 41.5529Z" fill="#00C2A9"/>
<path fill-rule="evenodd" clip-rule="evenodd" d="M35.2653 45.7082C34.4461 45.7431 33.8058 46.5692 33.836 47.5528C33.865 48.5355 34.5534 49.304 35.3729 49.2673C36.1914 49.2324 36.8325 48.4068 36.8019 47.4227C36.7725 46.44 36.0841 45.6715 35.2653 45.7082Z" fill="#00C2A9"/>
<path fill-rule="evenodd" clip-rule="evenodd" d="M60.883 70.0445C63.6942 60.4401 63.2861 55.7207 61.5366 52.5511C52.8101 36.7449 18.632 67.8252 0 69.2775C22.4554 68.1183 48.418 48.0847 56.735 56.2375C58.9922 58.4494 62.0778 62.7391 60.883 70.0445Z" fill="#16102A"/>
<path fill-rule="evenodd" clip-rule="evenodd" d="M62.6404 9.4975C66.3194 38.6955 32.6778 26.096 29.8097 46.8941C27.2583 21.783 63.1045 30.1663 62.6404 9.4975Z" fill="#1E4793"/>
</svg>
